Inter-ExtraLightItalic.ufo
<glyph name="exclam" format="2">
  <advance width="752"/>
  <unicode hex="0021"/>
  <outline>
    <contour>
      <point x="655" y="2048" type="line"/>
      <point x="521" y="2048" type="line"/>
      <point x="287" y="597" type="line"/>
      <point x="407" y="597" type="line"/>
    </contour>
    <component base="period" xOffset="9"/>
  </outline>
</glyph>
<glyph name="numbersign" format="2">
  <advance width="1781"/>
  <unicode hex="0023"/>
  <note>
1. outline
2. slant 9.4 deg
3. remove extra shapes created by outlining
</note>
  <outline>
    <contour>
      <point x="1052" y="0" type="line"/>
      <point x="1161" y="0" type="line"/>
      <point x="1533" y="2048" type="line"/>
      <point x="1424" y="2048" type="line"/>
    </contour>
    <contour>
      <point x="94" y="613" type="line"/>
      <point x="1622" y="613" type="line"/>
      <point x="1642" y="723" type="line"/>
      <point x="114" y="723" type="line"/>
    </contour>
    <contour>
      <point x="332" y="0" type="line"/>
      <point x="441" y="0" type="line"/>
      <point x="813" y="2048" type="line"/>
      <point x="704" y="2048" type="line"/>
    </contour>
    <contour>
      <point x="223" y="1325" type="line"/>
      <point x="1751" y="1325" type="line"/>
      <point x="1773" y="1435" type="line"/>
      <point x="245" y="1435" type="line"/>
    </contour>
  </outline>
</glyph>
<glyph name="dollar" format="2">
  <advance width="1748"/>
  <unicode hex="0024"/>
  <outline>
    <contour>
      <point x="659" y="-256" type="line"/>
      <point x="756" y="-256" type="line"/>
      <point x="1180" y="2304" type="line"/>
      <point x="1083" y="2304" type="line"/>
    </contour>
    <component base="S"/>
  </outline>
</glyph>
<glyph name="percent" format="2">
  <advance width="2213"/>
  <unicode hex="0025"/>
  <outline>
    <contour>
      <point x="1208" y="376" type="line" smooth="yes"/>
      <point x="1169" y="141"/>
      <point x="1285" y="-28"/>
      <point x="1497" y="-28" type="curve" smooth="yes"/>
      <point x="1711" y="-28"/>
      <point x="1883" y="141"/>
      <point x="1921" y="376" type="curve" smooth="yes"/>
      <point x="1933" y="455" type="line" smooth="yes"/>
      <point x="1972" y="689"/>
      <point x="1857" y="859"/>
      <point x="1645" y="859" type="curve" smooth="yes"/>
      <point x="1432" y="859"/>
      <point x="1259" y="689"/>
      <point x="1220" y="455" type="curve" smooth="yes"/>
    </contour>
    <contour>
      <point x="1331" y="455" type="line" smooth="yes"/>
      <point x="1361" y="632"/>
      <point x="1480" y="759"/>
      <point x="1628" y="759" type="curve" smooth="yes"/>
      <point x="1777" y="759"/>
      <point x="1853" y="632"/>
      <point x="1823" y="455" type="curve" smooth="yes"/>
      <point x="1811" y="376" type="line" smooth="yes"/>
      <point x="1780" y="199"/>
      <point x="1663" y="72"/>
      <point x="1515" y="72" type="curve" smooth="yes"/>
      <point x="1363" y="72"/>
      <point x="1288" y="199"/>
      <point x="1319" y="376" type="curve" smooth="yes"/>
    </contour>
    <contour>
      <point x="365" y="1593" type="line" smooth="yes"/>
      <point x="325" y="1359"/>
      <point x="443" y="1189"/>
      <point x="655" y="1189" type="curve" smooth="yes"/>
      <point x="868" y="1189"/>
      <point x="1039" y="1359"/>
      <point x="1079" y="1593" type="curve" smooth="yes"/>
      <point x="1092" y="1672" type="line" smooth="yes"/>
      <point x="1128" y="1907"/>
      <point x="1016" y="2076"/>
      <point x="801" y="2076" type="curve" smooth="yes"/>
      <point x="591" y="2076"/>
      <point x="415" y="1907"/>
      <point x="379" y="1672" type="curve" smooth="yes"/>
    </contour>
    <contour>
      <point x="489" y="1672" type="line" smooth="yes"/>
      <point x="517" y="1849"/>
      <point x="636" y="1976"/>
      <point x="784" y="1976" type="curve" smooth="yes"/>
      <point x="936" y="1976"/>
      <point x="1009" y="1849"/>
      <point x="981" y="1672" type="curve" smooth="yes"/>
      <point x="968" y="1593" type="line" smooth="yes"/>
      <point x="936" y="1416"/>
      <point x="820" y="1289"/>
      <point x="672" y="1289" type="curve" smooth="yes"/>
      <point x="523" y="1289"/>
      <point x="444" y="1416"/>
      <point x="476" y="1593" type="curve" smooth="yes"/>
    </contour>
    <component base="fraction" xOffset="711"/>
  </outline>
</glyph>
<glyph name="ampersand" format="2">
  <advance width="1696"/>
  <unicode hex="0026"/>
  <outline>
    <contour>
      <point x="639" y="-28" type="curve" smooth="yes"/>
      <point x="837" y="-28"/>
      <point x="1058" y="57"/>
      <point x="1220" y="200" type="curve" smooth="yes"/>
      <point x="1240" y="218"/>
      <point x="1260" y="239"/>
      <point x="1279" y="260" type="curve" smooth="yes"/>
      <point x="1377" y="372"/>
      <point x="1511" y="539"/>
      <point x="1572" y="789" type="curve"/>
      <point x="1453" y="795" type="line"/>
      <point x="1337" y="373"/>
      <point x="1015" y="91"/>
      <point x="645" y="84" type="curve" smooth="yes"/>
      <point x="371" y="79"/>
      <point x="212" y="283"/>
      <point x="251" y="523" type="curve" smooth="yes"/>
      <point x="271" y="651"/>
      <point x="366" y="777"/>
      <point x="620" y="947" type="curve" smooth="yes"/>
      <point x="996" y="1197" type="line" smooth="yes"/>
      <point x="1217" y="1345"/>
      <point x="1329" y="1479"/>
      <point x="1357" y="1653" type="curve" smooth="yes"/>
      <point x="1397" y="1889"/>
      <point x="1250" y="2073"/>
      <point x="992" y="2073" type="curve" smooth="yes"/>
      <point x="735" y="2073"/>
      <point x="503" y="1877"/>
      <point x="463" y="1631" type="curve" smooth="yes"/>
      <point x="433" y="1447"/>
      <point x="535" y="1311"/>
      <point x="691" y="1067" type="curve" smooth="yes"/>
      <point x="1369" y="0" type="line"/>
      <point x="1517" y="0" type="line"/>
      <point x="780" y="1164" type="line" smooth="yes"/>
      <point x="646" y="1376"/>
      <point x="562" y="1493"/>
      <point x="584" y="1629" type="curve" smooth="yes"/>
      <point x="612" y="1803"/>
      <point x="801" y="1963"/>
      <point x="985" y="1963" type="curve" smooth="yes"/>
      <point x="1167" y="1963"/>
      <point x="1261" y="1824"/>
      <point x="1235" y="1653" type="curve" smooth="yes"/>
      <point x="1211" y="1510"/>
      <point x="1121" y="1410"/>
      <point x="931" y="1287" type="curve" smooth="yes"/>
      <point x="596" y="1064" type="line" smooth="yes"/>
      <point x="306" y="875"/>
      <point x="163" y="731"/>
      <point x="128" y="523" type="curve" smooth="yes"/>
      <point x="75" y="213"/>
      <point x="288" y="-28"/>
    </contour>
  </outline>
</glyph>
<glyph name="quotesingle" format="2">
  <advance width="592"/>
  <unicode hex="0027"/>
  <outline>
    <contour>
      <point x="565" y="2048" type="line"/>
      <point x="449" y="2048" type="line"/>
      <point x="339" y="1387" type="line"/>
      <point x="455" y="1387" type="line"/>
    </contour>
  </outline>
</glyph>
<glyph name="parenleft" format="2">
  <advance width="932"/>
  <unicode hex="0028"/>
  <outline>
    <contour>
      <point x="335" y="864" type="curve" smooth="yes"/>
      <point x="259" y="411"/>
      <point x="303" y="-23"/>
      <point x="447" y="-416" type="curve"/>
      <point x="561" y="-416" type="line"/>
      <point x="427" y="-53"/>
      <point x="384" y="417"/>
      <point x="459" y="864" type="curve" smooth="yes"/>
      <point x="533" y="1308"/>
      <point x="728" y="1781"/>
      <point x="985" y="2144" type="curve"/>
      <point x="871" y="2144" type="line"/>
      <point x="596" y="1753"/>
      <point x="411" y="1320"/>
    </contour>
  </outline>
</glyph>
<glyph name="asterisk" format="2">
  <advance width="1408"/>
  <unicode hex="002A"/>
  <note>
hexagonal angle: 30 deg
</note>
  <outline>
    <contour>
      <point x="671" y="896" type="line"/>
      <point x="777" y="896" type="line"/>
      <point x="856" y="1392" type="line"/>
      <point x="1243" y="1137" type="line"/>
      <point x="1305" y="1231" type="line"/>
      <point x="916" y="1469" type="line"/>
      <point x="1389" y="1713" type="line"/>
      <point x="1344" y="1807" type="line"/>
      <point x="881" y="1555" type="line"/>
      <point x="969" y="2048" type="line"/>
      <point x="863" y="2048" type="line"/>
      <point x="785" y="1552" type="line"/>
      <point x="399" y="1807" type="line"/>
      <point x="336" y="1713" type="line"/>
      <point x="725" y="1475" type="line"/>
      <point x="252" y="1231" type="line"/>
      <point x="296" y="1137" type="line"/>
      <point x="760" y="1389" type="line"/>
    </contour>
  </outline>
</glyph>
<glyph name="plus" format="2">
  <advance width="1813"/>
  <unicode hex="002B"/>
  <outline>
    <contour>
      <point x="752" y="193" type="line"/>
      <point x="870" y="193" type="line"/>
      <point x="1071" y="1407" type="line"/>
      <point x="953" y="1407" type="line"/>
    </contour>
    <contour>
      <point x="295" y="741" type="line"/>
      <point x="1509" y="741" type="line"/>
      <point x="1529" y="859" type="line"/>
      <point x="316" y="859" type="line"/>
    </contour>
  </outline>
</glyph>
<glyph name="comma" format="2">
  <advance width="745"/>
  <unicode hex="002C"/>
  <outline>
    <contour>
      <point x="405" y="280" type="line"/>
      <point x="275" y="280" type="line"/>
      <point x="237" y="168" type="line" smooth="yes"/>
      <point x="149" y="-103"/>
      <point x="59" y="-356"/>
      <point x="9" y="-500" type="curve"/>
      <point x="104" y="-500" type="line"/>
      <point x="175" y="-353"/>
      <point x="293" y="-31"/>
      <point x="367" y="175" type="curve" smooth="yes"/>
    </contour>
  </outline>
</glyph>
<glyph name="period" format="2">
  <advance width="733"/>
  <unicode hex="002E"/>
  <outline>
    <contour>
      <point x="251" y="-13" type="curve" smooth="yes"/>
      <point x="310" y="-13"/>
      <point x="361" y="35"/>
      <point x="364" y="95" type="curve" smooth="yes"/>
      <point x="367" y="153"/>
      <point x="321" y="201"/>
      <point x="261" y="201" type="curve" smooth="yes"/>
      <point x="202" y="201"/>
      <point x="150" y="155"/>
      <point x="148" y="95" type="curve" smooth="yes"/>
      <point x="146" y="35"/>
      <point x="190" y="-13"/>
    </contour>
  </outline>
</glyph>
<glyph name="slash" format="2">
  <advance width="941"/>
  <unicode hex="002F"/>
  <outline>
    <contour>
      <point x="1088" y="2144" type="line"/>
      <point x="971" y="2144" type="line"/>
      <point x="-93" y="-308" type="line"/>
      <point x="21" y="-308" type="line"/>
    </contour>
  </outline>
</glyph>
<glyph name="zero" format="2">
  <advance width="1696"/>
  <unicode hex="0030"/>
  <outline>
    <contour>
      <point x="713" y="-28" type="curve" smooth="yes"/>
      <point x="1124" y="-28"/>
      <point x="1436" y="367"/>
      <point x="1545" y="1024" type="curve" smooth="yes"/>
      <point x="1654" y="1680"/>
      <point x="1471" y="2076"/>
      <point x="1061" y="2076" type="curve" smooth="yes"/>
      <point x="652" y="2076"/>
      <point x="341" y="1679"/>
      <point x="233" y="1024" type="curve" smooth="yes"/>
      <point x="125" y="365"/>
      <point x="303" y="-28"/>
    </contour>
    <contour>
      <point x="728" y="88" type="curve" smooth="yes"/>
      <point x="391" y="88"/>
      <point x="260" y="446"/>
      <point x="356" y="1024" type="curve" smooth="yes"/>
      <point x="455" y="1622"/>
      <point x="720" y="1961"/>
      <point x="1049" y="1961" type="curve" smooth="yes"/>
      <point x="1384" y="1961"/>
      <point x="1518" y="1601"/>
      <point x="1423" y="1024" type="curve" smooth="yes"/>
      <point x="1323" y="425"/>
      <point x="1056" y="88"/>
    </contour>
  </outline>
</glyph>
<glyph name="one" format="2">
  <advance width="1201"/>
  <unicode hex="0031"/>
  <outline>
    <contour>
      <point x="1000" y="2048" type="line"/>
      <point x="859" y="2048" type="line"/>
      <point x="352" y="1745" type="line"/>
      <point x="329" y="1611" type="line"/>
      <point x="840" y="1916" type="line"/>
      <point x="852" y="1916" type="line"/>
      <point x="535" y="0" type="line"/>
      <point x="660" y="0" type="line"/>
    </contour>
  </outline>
</glyph>
<glyph name="two" format="2">
  <advance width="1733"/>
  <unicode hex="0032"/>
  <outline>
    <contour>
      <point x="116" y="0" type="line"/>
      <point x="1371" y="0" type="line"/>
      <point x="1391" y="116" type="line"/>
      <point x="316" y="116" type="line"/>
      <point x="317" y="127" type="line"/>
      <point x="980" y="768" type="line" smooth="yes"/>
      <point x="1369" y="1141"/>
      <point x="1496" y="1307"/>
      <point x="1533" y="1535" type="curve" smooth="yes"/>
      <point x="1585" y="1843"/>
      <point x="1388" y="2076"/>
      <point x="1063" y="2076" type="curve" smooth="yes"/>
      <point x="729" y="2076"/>
      <point x="447" y="1832"/>
      <point x="395" y="1515" type="curve"/>
      <point x="516" y="1515" type="line"/>
      <point x="559" y="1765"/>
      <point x="780" y="1961"/>
      <point x="1048" y="1961" type="curve" smooth="yes"/>
      <point x="1304" y="1961"/>
      <point x="1455" y="1785"/>
      <point x="1413" y="1535" type="curve" smooth="yes"/>
      <point x="1381" y="1336"/>
      <point x="1261" y="1188"/>
      <point x="920" y="859" type="curve" smooth="yes"/>
      <point x="132" y="95" type="line"/>
    </contour>
  </outline>
</glyph>
<glyph name="three" format="2">
  <advance width="1749"/>
  <unicode hex="0033"/>
  <outline>
    <contour>
      <point x="755" y="-28" type="curve" smooth="yes"/>
      <point x="1129" y="-28"/>
      <point x="1425" y="208"/>
      <point x="1479" y="535" type="curve" smooth="yes"/>
      <point x="1522" y="794"/>
      <point x="1389" y="993"/>
      <point x="1135" y="1053" type="curve"/>
      <point x="1135" y="1063" type="line"/>
      <point x="1369" y="1130"/>
      <point x="1543" y="1304"/>
      <point x="1579" y="1539" type="curve" smooth="yes"/>
      <point x="1629" y="1837"/>
      <point x="1438" y="2076"/>
      <point x="1093" y="2076" type="curve" smooth="yes"/>
      <point x="764" y="2076"/>
      <point x="475" y="1853"/>
      <point x="420" y="1536" type="curve"/>
      <point x="543" y="1536" type="line"/>
      <point x="585" y="1791"/>
      <point x="830" y="1961"/>
      <point x="1092" y="1961" type="curve" smooth="yes"/>
      <point x="1362" y="1961"/>
      <point x="1498" y="1787"/>
      <point x="1457" y="1545" type="curve" smooth="yes"/>
      <point x="1416" y="1281"/>
      <point x="1170" y="1112"/>
      <point x="884" y="1112" type="curve" smooth="yes"/>
      <point x="811" y="1112" type="line"/>
      <point x="793" y="996" type="line"/>
      <point x="871" y="996" type="line" smooth="yes"/>
      <point x="1207" y="996"/>
      <point x="1399" y="814"/>
      <point x="1356" y="545" type="curve" smooth="yes"/>
      <point x="1315" y="284"/>
      <point x="1058" y="88"/>
      <point x="756" y="88" type="curve" smooth="yes"/>
      <point x="470" y="88"/>
      <point x="293" y="263"/>
      <point x="328" y="512" type="curve"/>
      <point x="203" y="512" type="line"/>
      <point x="154" y="196"/>
      <point x="392" y="-28"/>
    </contour>
  </outline>
</glyph>
<glyph name="four" format="2">
  <advance width="1720"/>
  <unicode hex="0034"/>
  <outline>
    <contour>
      <point x="143" y="460" type="line"/>
      <point x="1476" y="460" type="line"/>
      <point x="1496" y="576" type="line"/>
      <point x="313" y="576" type="line"/>
      <point x="313" y="587" type="line"/>
      <point x="1312" y="1855" type="line"/>
      <point x="1377" y="1855" type="line"/>
      <point x="1408" y="2048" type="line"/>
      <point x="1332" y="2048" type="line"/>
      <point x="159" y="560" type="line"/>
    </contour>
    <contour>
      <point x="1013" y="0" type="line"/>
      <point x="1135" y="0" type="line"/>
      <point x="1475" y="2048" type="line"/>
      <point x="1353" y="2048" type="line"/>
      <point x="1104" y="539" type="line"/>
      <point x="1096" y="495" type="line"/>
    </contour>
  </outline>
</glyph>
<glyph name="five" format="2">
  <advance width="1643"/>
  <unicode hex="0035"/>
  <outline>
    <contour>
      <point x="669" y="-28" type="curve" smooth="yes"/>
      <point x="1036" y="-28"/>
      <point x="1346" y="257"/>
      <point x="1412" y="641" type="curve" smooth="yes"/>
      <point x="1481" y="1037"/>
      <point x="1243" y="1308"/>
      <point x="897" y="1308" type="curve" smooth="yes"/>
      <point x="740" y="1308"/>
      <point x="595" y="1252"/>
      <point x="484" y="1165" type="curve"/>
      <point x="475" y="1165" type="line"/>
      <point x="695" y="1932" type="line"/>
      <point x="1548" y="1932" type="line"/>
      <point x="1568" y="2048" type="line"/>
      <point x="608" y="2048" type="line"/>
      <point x="324" y="1067" type="line"/>
      <point x="461" y="1047" type="line"/>
      <point x="567" y="1131"/>
      <point x="721" y="1191"/>
      <point x="871" y="1191" type="curve" smooth="yes"/>
      <point x="1155" y="1191"/>
      <point x="1343" y="972"/>
      <point x="1289" y="640" type="curve" smooth="yes"/>
      <point x="1239" y="327"/>
      <point x="978" y="88"/>
      <point x="681" y="88" type="curve" smooth="yes"/>
      <point x="421" y="88"/>
      <point x="273" y="264"/>
      <point x="308" y="512" type="curve"/>
      <point x="185" y="512" type="line"/>
      <point x="137" y="197"/>
      <point x="340" y="-28"/>
    </contour>
  </outline>
</glyph>
<glyph name="six" format="2">
  <advance width="1679"/>
  <unicode hex="0036"/>
  <outline>
    <contour>
      <point x="728" y="-28" type="curve" smooth="yes"/>
      <point x="1093" y="-29"/>
      <point x="1383" y="272"/>
      <point x="1444" y="623" type="curve" smooth="yes"/>
      <point x="1507" y="1000"/>
      <point x="1276" y="1281"/>
      <point x="940" y="1281" type="curve" smooth="yes"/>
      <point x="714" y="1281"/>
      <point x="485" y="1151"/>
      <point x="372" y="959" type="curve"/>
      <point x="361" y="953" type="line"/>
      <point x="471" y="1608"/>
      <point x="734" y="1961"/>
      <point x="1091" y="1961" type="curve" smooth="yes"/>
      <point x="1342" y="1961"/>
      <point x="1456" y="1786"/>
      <point x="1443" y="1536" type="curve"/>
      <point x="1564" y="1536" type="line"/>
      <point x="1587" y="1857"/>
      <point x="1406" y="2077"/>
      <point x="1091" y="2077" type="curve" smooth="yes"/>
      <point x="608" y="2077"/>
      <point x="340" y="1547"/>
      <point x="241" y="939" type="curve" smooth="yes"/>
      <point x="127" y="255"/>
      <point x="381" y="-27"/>
    </contour>
    <contour>
      <point x="731" y="88" type="curve" smooth="yes"/>
      <point x="476" y="88"/>
      <point x="329" y="284"/>
      <point x="337" y="603" type="curve" smooth="yes"/>
      <point x="348" y="900"/>
      <point x="629" y="1165"/>
      <point x="924" y="1165" type="curve" smooth="yes"/>
      <point x="1203" y="1165"/>
      <point x="1371" y="931"/>
      <point x="1323" y="633" type="curve" smooth="yes"/>
      <point x="1271" y="333"/>
      <point x="1013" y="88"/>
    </contour>
  </outline>
</glyph>
<glyph name="seven" format="2">
  <advance width="1563"/>
  <unicode hex="0037"/>
  <outline>
    <contour>
      <point x="169" y="0" type="line"/>
      <point x="304" y="0" type="line"/>
      <point x="1575" y="1928" type="line"/>
      <point x="1596" y="2048" type="line"/>
      <point x="367" y="2048" type="line"/>
      <point x="347" y="1932" type="line"/>
      <point x="1440" y="1932" type="line"/>
      <point x="1439" y="1921" type="line"/>
    </contour>
  </outline>
</glyph>
<glyph name="eight" format="2">
  <advance width="1709"/>
  <unicode hex="0038"/>
  <note>
essentially two conjoined "three" glyphs
</note>
  <outline>
    <contour>
      <point x="728" y="-28" type="curve" smooth="yes"/>
      <point x="1096" y="-28"/>
      <point x="1418" y="214"/>
      <point x="1471" y="528" type="curve" smooth="yes"/>
      <point x="1512" y="779"/>
      <point x="1371" y="1007"/>
      <point x="1136" y="1059" type="curve"/>
      <point x="1136" y="1067" type="line"/>
      <point x="1353" y="1131"/>
      <point x="1530" y="1317"/>
      <point x="1569" y="1543" type="curve" smooth="yes"/>
      <point x="1619" y="1844"/>
      <point x="1395" y="2076"/>
      <point x="1065" y="2076" type="curve" smooth="yes"/>
      <point x="740" y="2076"/>
      <point x="452" y="1851"/>
      <point x="400" y="1553" type="curve" smooth="yes"/>
      <point x="359" y="1329"/>
      <point x="468" y="1132"/>
      <point x="664" y="1067" type="curve"/>
      <point x="664" y="1059" type="line"/>
      <point x="415" y="1008"/>
      <point x="201" y="785"/>
      <point x="160" y="539" type="curve" smooth="yes"/>
      <point x="107" y="222"/>
      <point x="353" y="-28"/>
    </contour>
    <contour>
      <point x="728" y="88" type="curve" smooth="yes"/>
      <point x="424" y="88"/>
      <point x="243" y="282"/>
      <point x="284" y="535" type="curve" smooth="yes"/>
      <point x="326" y="796"/>
      <point x="609" y="1003"/>
      <point x="912" y="1003" type="curve" smooth="yes"/>
      <point x="1209" y="1003"/>
      <point x="1391" y="803"/>
      <point x="1349" y="545" type="curve" smooth="yes"/>
      <point x="1308" y="288"/>
      <point x="1038" y="88"/>
    </contour>
    <contour>
      <point x="896" y="1111" type="curve" smooth="yes"/>
      <point x="641" y="1111"/>
      <point x="479" y="1297"/>
      <point x="520" y="1537" type="curve" smooth="yes"/>
      <point x="558" y="1780"/>
      <point x="802" y="1961"/>
      <point x="1067" y="1961" type="curve" smooth="yes"/>
      <point x="1328" y="1961"/>
      <point x="1487" y="1788"/>
      <point x="1448" y="1548" type="curve" smooth="yes"/>
      <point x="1406" y="1305"/>
      <point x="1158" y="1111"/>
    </contour>
  </outline>
</glyph>
<glyph name="nine" format="2">
  <advance width="1679"/>
  <unicode hex="0039"/>
  <note>
six mirrored
</note>
  <outline>
    <contour>
      <point x="1039" y="2080" type="curve" smooth="yes"/>
      <point x="673" y="2081"/>
      <point x="384" y="1780"/>
      <point x="323" y="1429" type="curve" smooth="yes"/>
      <point x="257" y="1053"/>
      <point x="491" y="771"/>
      <point x="827" y="771" type="curve" smooth="yes"/>
      <point x="1053" y="771"/>
      <point x="1281" y="901"/>
      <point x="1395" y="1093" type="curve"/>
      <point x="1405" y="1099" type="line"/>
      <point x="1296" y="444"/>
      <point x="1032" y="88"/>
      <point x="676" y="88" type="curve" smooth="yes"/>
      <point x="424" y="88"/>
      <point x="311" y="265"/>
      <point x="324" y="516" type="curve"/>
      <point x="203" y="516" type="line"/>
      <point x="180" y="195"/>
      <point x="360" y="-28"/>
      <point x="676" y="-28" type="curve" smooth="yes"/>
      <point x="1159" y="-28"/>
      <point x="1427" y="505"/>
      <point x="1525" y="1113" type="curve" smooth="yes"/>
      <point x="1637" y="1798"/>
      <point x="1385" y="2079"/>
    </contour>
    <contour>
      <point x="1036" y="1964" type="curve" smooth="yes"/>
      <point x="1291" y="1964"/>
      <point x="1437" y="1768"/>
      <point x="1429" y="1449" type="curve" smooth="yes"/>
      <point x="1421" y="1152"/>
      <point x="1137" y="887"/>
      <point x="843" y="887" type="curve" smooth="yes"/>
      <point x="564" y="887"/>
      <point x="396" y="1121"/>
      <point x="444" y="1419" type="curve" smooth="yes"/>
      <point x="493" y="1719"/>
      <point x="753" y="1964"/>
    </contour>
  </outline>
</glyph>
<glyph name="less" format="2">
  <advance width="1813"/>
  <unicode hex="003C"/>
  <note>
Recipe: Make rect and rotate 63deg (regular) or 69deg (black)
</note>
  <guideline x="281" y="800" angle="0.0"/>
  <outline>
    <contour>
      <point x="323" y="752" type="line"/>
      <point x="1370" y="59" type="line"/>
      <point x="1393" y="195" type="line"/>
      <point x="470" y="801" type="line"/>
      <point x="481" y="783" type="line"/>
      <point x="485" y="817" type="line"/>
      <point x="471" y="799" type="line"/>
      <point x="1593" y="1405" type="line"/>
      <point x="1614" y="1541" type="line"/>
      <point x="341" y="848" type="line"/>
    </contour>
  </outline>
</glyph>
<glyph name="equal" format="2">
  <advance width="1813"/>
  <unicode hex="003D"/>
  <outline>
    <contour>
      <point x="425" y="1020" type="line"/>
      <point x="1471" y="1020" type="line"/>
      <point x="1491" y="1135" type="line"/>
      <point x="445" y="1135" type="line"/>
    </contour>
    <contour>
      <point x="334" y="465" type="line"/>
      <point x="1379" y="465" type="line"/>
      <point x="1399" y="580" type="line"/>
      <point x="354" y="580" type="line"/>
    </contour>
  </outline>
</glyph>
<glyph name="greater" format="2">
  <advance width="1813"/>
  <unicode hex="003E"/>
  <outline>
    <contour>
      <point x="1500" y="752" type="line"/>
      <point x="1517" y="848" type="line"/>
      <point x="471" y="1541" type="line"/>
      <point x="449" y="1405" type="line"/>
      <point x="1368" y="799" type="line"/>
      <point x="1360" y="817" type="line"/>
      <point x="1356" y="783" type="line"/>
      <point x="1367" y="801" type="line"/>
      <point x="249" y="195" type="line"/>
      <point x="227" y="59" type="line"/>
    </contour>
  </outline>
</glyph>
<glyph name="question" format="2">
  <advance width="1375"/>
  <unicode hex="003F"/>
  <outline>
    <contour>
      <point x="537" y="597" type="line"/>
      <point x="660" y="597" type="line"/>
      <point x="677" y="699" type="line" smooth="yes"/>
      <point x="710" y="889"/>
      <point x="783" y="981"/>
      <point x="987" y="1107" type="curve" smooth="yes"/>
      <point x="1213" y="1246"/>
      <point x="1322" y="1348"/>
      <point x="1355" y="1563" type="curve" smooth="yes"/>
      <point x="1399" y="1851"/>
      <point x="1216" y="2076"/>
      <point x="900" y="2076" type="curve" smooth="yes"/>
      <point x="587" y="2076"/>
      <point x="311" y="1855"/>
      <point x="253" y="1536" type="curve"/>
      <point x="380" y="1536" type="line"/>
      <point x="427" y="1785"/>
      <point x="647" y="1964"/>
      <point x="889" y="1964" type="curve" smooth="yes"/>
      <point x="1121" y="1964"/>
      <point x="1267" y="1804"/>
      <point x="1232" y="1567" type="curve" smooth="yes"/>
      <point x="1207" y="1394"/>
      <point x="1105" y="1310"/>
      <point x="917" y="1193" type="curve" smooth="yes"/>
      <point x="700" y="1061"/>
      <point x="597" y="950"/>
      <point x="555" y="699" type="curve" smooth="yes"/>
    </contour>
    <component base="period" xOffset="264"/>
  </outline>
</glyph>
<glyph name="at" format="2">
  <advance width="2636"/>
  <unicode hex="0040"/>
  <outline>
    <contour>
      <point x="1129" y="-543" type="curve" smooth="yes"/>
      <point x="1352" y="-543"/>
      <point x="1599" y="-475"/>
      <point x="1785" y="-367" type="curve"/>
      <point x="1755" y="-271" type="line"/>
      <point x="1596" y="-364"/>
      <point x="1363" y="-436"/>
      <point x="1143" y="-436" type="curve" smooth="yes"/>
      <point x="504" y="-436"/>
      <point x="135" y="47"/>
      <point x="247" y="713" type="curve" smooth="yes"/>
      <point x="355" y="1376"/>
      <point x="901" y="1864"/>
      <point x="1521" y="1864" type="curve" smooth="yes"/>
      <point x="2141" y="1864"/>
      <point x="2484" y="1360"/>
      <point x="2387" y="771" type="curve" smooth="yes"/>
      <point x="2324" y="400"/>
      <point x="2148" y="169"/>
      <point x="1917" y="169" type="curve" smooth="yes"/>
      <point x="1797" y="169"/>
      <point x="1768" y="235"/>
      <point x="1795" y="403" type="curve" smooth="yes"/>
      <point x="1955" y="1357" type="line"/>
      <point x="1841" y="1357" type="line"/>
      <point x="1797" y="1101" type="line"/>
      <point x="1788" y="1101" type="line"/>
      <point x="1744" y="1267"/>
      <point x="1587" y="1383"/>
      <point x="1377" y="1376" type="curve" smooth="yes"/>
      <point x="1065" y="1365"/>
      <point x="776" y="1085"/>
      <point x="716" y="720" type="curve" smooth="yes"/>
      <point x="652" y="348"/>
      <point x="832" y="53"/>
      <point x="1157" y="49" type="curve" smooth="yes"/>
      <point x="1375" y="47"/>
      <point x="1560" y="175"/>
      <point x="1667" y="347" type="curve"/>
      <point x="1676" y="347" type="line"/>
      <point x="1651" y="137"/>
      <point x="1747" y="64"/>
      <point x="1900" y="64" type="curve" smooth="yes"/>
      <point x="2231" y="64"/>
      <point x="2437" y="397"/>
      <point x="2499" y="769" type="curve" smooth="yes"/>
      <point x="2603" y="1416"/>
      <point x="2217" y="1969"/>
      <point x="1536" y="1969" type="curve" smooth="yes"/>
      <point x="844" y="1969"/>
      <point x="248" y="1440"/>
      <point x="131" y="716" type="curve" smooth="yes"/>
      <point x="9" y="-15"/>
      <point x="423" y="-543"/>
    </contour>
    <contour>
      <point x="1180" y="160" type="curve" smooth="yes"/>
      <point x="909" y="160"/>
      <point x="777" y="417"/>
      <point x="828" y="724" type="curve" smooth="yes"/>
      <point x="876" y="1023"/>
      <point x="1120" y="1268"/>
      <point x="1380" y="1268" type="curve" smooth="yes"/>
      <point x="1644" y="1268"/>
      <point x="1793" y="1057"/>
      <point x="1740" y="724" type="curve" smooth="yes"/>
      <point x="1684" y="392"/>
      <point x="1453" y="160"/>
    </contour>
  </outline>
</glyph>
<glyph name="A" format="2">
  <advance width="1792"/>
  <unicode hex="0041"/>
  <outline>
    <contour>
      <point x="89" y="0" type="line"/>
      <point x="1077" y="1887" type="line"/>
      <point x="1088" y="1887" type="line"/>
      <point x="1447" y="0" type="line"/>
      <point x="1579" y="0" type="line"/>
      <point x="1180" y="2048" type="line"/>
      <point x="1036" y="2048" type="line"/>
      <point x="-43" y="0" type="line"/>
    </contour>
    <contour>
      <point x="405" y="771" type="line"/>
      <point x="385" y="655" type="line"/>
      <point x="1369" y="655" type="line"/>
      <point x="1389" y="771" type="line"/>
    </contour>
  </outline>
</glyph>
<glyph name="B" format="2">
  <advance width="1813"/>
  <unicode hex="0042"/>
  <outline>
    <contour>
      <point x="168" y="0" type="line"/>
      <point x="887" y="0" type="line" smooth="yes"/>
      <point x="1283" y="0"/>
      <point x="1525" y="217"/>
      <point x="1577" y="531" type="curve" smooth="yes"/>
      <point x="1627" y="828"/>
      <point x="1471" y="1025"/>
      <point x="1263" y="1043" type="curve"/>
      <point x="1264" y="1055" type="line"/>
      <point x="1463" y="1105"/>
      <point x="1617" y="1272"/>
      <point x="1659" y="1520" type="curve" smooth="yes"/>
      <point x="1713" y="1836"/>
      <point x="1545" y="2048"/>
      <point x="1173" y="2048" type="curve" smooth="yes"/>
      <point x="508" y="2048" type="line"/>
    </contour>
    <contour>
      <point x="313" y="116" type="line"/>
      <point x="457" y="983" type="line"/>
      <point x="1055" y="983" type="line" smooth="yes"/>
      <point x="1336" y="983"/>
      <point x="1499" y="789"/>
      <point x="1456" y="531" type="curve" smooth="yes"/>
      <point x="1413" y="287"/>
      <point x="1215" y="116"/>
      <point x="907" y="116" type="curve" smooth="yes"/>
    </contour>
    <contour>
      <point x="477" y="1097" type="line"/>
      <point x="613" y="1932" type="line"/>
      <point x="1153" y="1932" type="line" smooth="yes"/>
      <point x="1444" y="1932"/>
      <point x="1580" y="1775"/>
      <point x="1537" y="1520" type="curve" smooth="yes"/>
      <point x="1500" y="1285"/>
      <point x="1319" y="1097"/>
      <point x="1060" y="1097" type="curve" smooth="yes"/>
    </contour>
  </outline>
</glyph>
<glyph name="C" format="2">
  <advance width="2040"/>
  <unicode hex="0043"/>
  <outline>
    <contour>
      <point x="1957" y="1408" type="line"/>
      <point x="1955" y="1743"/>
      <point x="1729" y="2076"/>
      <point x="1268" y="2076" type="curve" smooth="yes"/>
      <point x="759" y="2076"/>
      <point x="337" y="1661"/>
      <point x="233" y="1029" type="curve" smooth="yes"/>
      <point x="127" y="392"/>
      <point x="416" y="-28"/>
      <point x="929" y="-28" type="curve" smooth="yes"/>
      <point x="1385" y="-28"/>
      <point x="1718" y="308"/>
      <point x="1833" y="640" type="curve"/>
      <point x="1705" y="640" type="line"/>
      <point x="1605" y="361"/>
      <point x="1311" y="92"/>
      <point x="940" y="92" type="curve" smooth="yes"/>
      <point x="538" y="92"/>
      <point x="253" y="415"/>
      <point x="355" y="1019" type="curve" smooth="yes"/>
      <point x="453" y="1623"/>
      <point x="851" y="1956"/>
      <point x="1256" y="1956" type="curve" smooth="yes"/>
      <point x="1624" y="1956"/>
      <point x="1825" y="1684"/>
      <point x="1831" y="1408" type="curve"/>
    </contour>
  </outline>
</glyph>
<glyph name="D" format="2">
  <advance width="2016"/>
  <unicode hex="0044"/>
  <note>
!post:RemoveOverlap
</note>
  <outline>
    <contour>
      <point x="739" y="0" type="line" smooth="yes"/>
      <point x="1347" y="0"/>
      <point x="1757" y="380"/>
      <point x="1867" y="1025" type="curve" smooth="yes"/>
      <point x="1975" y="1664"/>
      <point x="1692" y="2048"/>
      <point x="1117" y="2048" type="curve" smooth="yes"/>
      <point x="572" y="2048" type="line"/>
      <point x="552" y="1932" type="line"/>
      <point x="1097" y="1932" type="line" smooth="yes"/>
      <point x="1619" y="1932"/>
      <point x="1839" y="1604"/>
      <point x="1745" y="1036" type="curve" smooth="yes"/>
      <point x="1653" y="469"/>
      <point x="1290" y="116"/>
      <point x="749" y="116" type="curve" smooth="yes"/>
      <point x="256" y="116" type="line"/>
      <point x="236" y="0" type="line"/>
    </contour>
    <contour>
      <point x="633" y="2048" type="line"/>
      <point x="508" y="2048" type="line"/>
      <point x="168" y="0" type="line"/>
      <point x="293" y="0" type="line"/>
    </contour>
  </outline>
</glyph>
<glyph name="E" format="2">
  <advance width="1657"/>
  <unicode hex="0045"/>
  <outline>
    <contour>
      <point x="168" y="0" type="line"/>
      <point x="1332" y="0" type="line"/>
      <point x="1352" y="116" type="line"/>
      <point x="313" y="116" type="line"/>
      <point x="453" y="967" type="line"/>
      <point x="1407" y="967" type="line"/>
      <point x="1427" y="1083" type="line"/>
      <point x="473" y="1083" type="line"/>
      <point x="613" y="1932" type="line"/>
      <point x="1628" y="1932" type="line"/>
      <point x="1648" y="2048" type="line"/>
      <point x="508" y="2048" type="line"/>
    </contour>
  </outline>
</glyph>
<glyph name="F" format="2">
  <advance width="1649"/>
  <unicode hex="0046"/>
  <outline>
    <contour>
      <point x="168" y="0" type="line"/>
      <point x="293" y="0" type="line"/>
      <point x="453" y="967" type="line"/>
      <point x="1376" y="967" type="line"/>
      <point x="1396" y="1083" type="line"/>
      <point x="473" y="1083" type="line"/>
      <point x="613" y="1932" type="line"/>
      <point x="1631" y="1932" type="line"/>
      <point x="1651" y="2048" type="line"/>
      <point x="508" y="2048" type="line"/>
    </contour>
  </outline>
</glyph>
<glyph name="G" format="2">
  <advance width="2084"/>
  <unicode hex="0047"/>
  <outline>
    <contour>
      <point x="1832" y="1408" type="curve"/>
      <point x="1960" y="1408" type="line"/>
      <point x="1959" y="1735"/>
      <point x="1737" y="2076"/>
      <point x="1269" y="2076" type="curve" smooth="yes"/>
      <point x="759" y="2076"/>
      <point x="336" y="1659"/>
      <point x="233" y="1024" type="curve" smooth="yes"/>
      <point x="127" y="389"/>
      <point x="404" y="-28"/>
      <point x="932" y="-28" type="curve" smooth="yes"/>
      <point x="1401" y="-28"/>
      <point x="1794" y="301"/>
      <point x="1883" y="844" type="curve" smooth="yes"/>
      <point x="1904" y="960" type="line"/>
      <point x="1129" y="960" type="line"/>
      <point x="1108" y="844" type="line"/>
      <point x="1804" y="844" type="line"/>
      <point x="1764" y="865" type="line"/>
      <point x="1691" y="387"/>
      <point x="1345" y="92"/>
      <point x="947" y="92" type="curve" smooth="yes"/>
      <point x="490" y="92"/>
      <point x="260" y="449"/>
      <point x="356" y="1024" type="curve" smooth="yes"/>
      <point x="457" y="1623"/>
      <point x="857" y="1956"/>
      <point x="1256" y="1956" type="curve" smooth="yes"/>
      <point x="1647" y="1956"/>
      <point x="1818" y="1689"/>
    </contour>
  </outline>
</glyph>
<glyph name="H" format="2">
  <advance width="2076"/>
  <unicode hex="0048"/>
  <outline>
    <contour>
      <point x="168" y="0" type="line"/>
      <point x="293" y="0" type="line"/>
      <point x="453" y="967" type="line"/>
      <point x="1687" y="967" type="line"/>
      <point x="1527" y="0" type="line"/>
      <point x="1652" y="0" type="line"/>
      <point x="1992" y="2048" type="line"/>
      <point x="1867" y="2048" type="line"/>
      <point x="1707" y="1083" type="line"/>
      <point x="473" y="1083" type="line"/>
      <point x="633" y="2048" type="line"/>
      <point x="508" y="2048" type="line"/>
    </contour>
  </outline>
</glyph>
<glyph name="I" format="2">
  <advance width="717"/>
  <unicode hex="0049"/>
  <outline>
    <contour>
      <point x="633" y="2048" type="line"/>
      <point x="508" y="2048" type="line"/>
      <point x="168" y="0" type="line"/>
      <point x="293" y="0" type="line"/>
    </contour>
  </outline>
</glyph>
<glyph name="J" format="2">
  <advance width="1485"/>
  <unicode hex="004A"/>
  <outline>
    <contour>
      <point x="1276" y="2048" type="line"/>
      <point x="1031" y="560" type="line" smooth="yes"/>
      <point x="973" y="221"/>
      <point x="770" y="88"/>
      <point x="547" y="88" type="curve" smooth="yes"/>
      <point x="321" y="88"/>
      <point x="172" y="222"/>
      <point x="203" y="416" type="curve"/>
      <point x="81" y="416" type="line"/>
      <point x="39" y="154"/>
      <point x="236" y="-28"/>
      <point x="537" y="-28" type="curve" smooth="yes"/>
      <point x="833" y="-28"/>
      <point x="1087" y="147"/>
      <point x="1155" y="555" type="curve" smooth="yes"/>
      <point x="1401" y="2048" type="line"/>
    </contour>
  </outline>
</glyph>
<glyph name="K" format="2">
  <advance width="1767"/>
  <unicode hex="004B"/>
  <outline>
    <contour>
      <point x="168" y="0" type="line"/>
      <point x="293" y="0" type="line"/>
      <point x="405" y="667" type="line"/>
      <point x="749" y="989" type="line"/>
      <point x="1389" y="0" type="line"/>
      <point x="1545" y="0" type="line"/>
      <point x="844" y="1079" type="line"/>
      <point x="1893" y="2048" type="line"/>
      <point x="1727" y="2048" type="line"/>
      <point x="449" y="859" type="line"/>
      <point x="436" y="859" type="line"/>
      <point x="633" y="2048" type="line"/>
      <point x="508" y="2048" type="line"/>
    </contour>
  </outline>
</glyph>
<glyph name="M" format="2">
  <advance width="2456"/>
  <unicode hex="004D"/>
  <outline>
    <contour>
      <point x="508" y="2048" type="line"/>
      <point x="168" y="0" type="line"/>
      <point x="288" y="0" type="line"/>
      <point x="580" y="1751" type="line"/>
      <point x="592" y="1751" type="line"/>
      <point x="1041" y="0" type="line"/>
      <point x="1159" y="0" type="line"/>
      <point x="2192" y="1751" type="line"/>
      <point x="2204" y="1751" type="line"/>
      <point x="1912" y="0" type="line"/>
      <point x="2032" y="0" type="line"/>
      <point x="2372" y="2048" type="line"/>
      <point x="2236" y="2048" type="line"/>
      <point x="1137" y="180" type="line"/>
      <point x="1124" y="180" type="line"/>
      <point x="644" y="2048" type="line"/>
    </contour>
  </outline>
</glyph>
<glyph name="N" format="2">
  <advance width="2157"/>
  <unicode hex="004E"/>
  <outline>
    <contour>
      <point x="2073" y="2048" type="line"/>
      <point x="1949" y="2048" type="line"/>
      <point x="1647" y="225" type="line"/>
      <point x="1635" y="225" type="line"/>
      <point x="631" y="2048" type="line"/>
      <point x="508" y="2048" type="line"/>
      <point x="168" y="0" type="line"/>
      <point x="293" y="0" type="line"/>
      <point x="596" y="1821" type="line"/>
      <point x="608" y="1821" type="line"/>
      <point x="1611" y="0" type="line"/>
      <point x="1733" y="0" type="line"/>
    </contour>
  </outline>
</glyph>
<glyph name="O" format="2">
  <advance width="2117"/>
  <unicode hex="004F"/>
  <outline>
    <contour>
      <point x="1965" y="1019" type="curve" smooth="yes"/>
      <point x="2073" y="1657"/>
      <point x="1781" y="2076"/>
      <point x="1271" y="2076" type="curve" smooth="yes"/>
      <point x="761" y="2076"/>
      <point x="340" y="1660"/>
      <point x="233" y="1029" type="curve" smooth="yes"/>
      <point x="130" y="395"/>
      <point x="412" y="-28"/>
      <point x="932" y="-28" type="curve" smooth="yes"/>
      <point x="1439" y="-28"/>
      <point x="1861" y="387"/>
    </contour>
    <contour>
      <point x="1844" y="1029" type="curve" smooth="yes"/>
      <point x="1753" y="459"/>
      <point x="1375" y="92"/>
      <point x="932" y="92" type="curve" smooth="yes"/>
      <point x="498" y="92"/>
      <point x="259" y="448"/>
      <point x="355" y="1019" type="curve" smooth="yes"/>
      <point x="453" y="1592"/>
      <point x="829" y="1956"/>
      <point x="1269" y="1956" type="curve" smooth="yes"/>
      <point x="1699" y="1956"/>
      <point x="1939" y="1601"/>
    </contour>
  </outline>
</glyph>
<glyph name="P" format="2">
  <advance width="1733"/>
  <unicode hex="0050"/>
  <outline>
    <contour>
      <point x="168" y="0" type="line"/>
      <point x="293" y="0" type="line"/>
      <point x="613" y="1932" type="line"/>
      <point x="1116" y="1932" type="line" smooth="yes"/>
      <point x="1432" y="1932"/>
      <point x="1584" y="1725"/>
      <point x="1536" y="1432" type="curve" smooth="yes"/>
      <point x="1488" y="1143"/>
      <point x="1267" y="933"/>
      <point x="952" y="933" type="curve" smooth="yes"/>
      <point x="411" y="933" type="line"/>
      <point x="391" y="817" type="line"/>
      <point x="935" y="817" type="line" smooth="yes"/>
      <point x="1323" y="817"/>
      <point x="1603" y="1080"/>
      <point x="1660" y="1432" type="curve" smooth="yes"/>
      <point x="1720" y="1788"/>
      <point x="1528" y="2048"/>
      <point x="1139" y="2048" type="curve" smooth="yes"/>
      <point x="508" y="2048" type="line"/>
    </contour>
  </outline>
</glyph>
<glyph name="Q" format="2">
  <advance width="2131"/>
  <unicode hex="0051"/>
  <outline>
    <contour>
      <point x="1015" y="640" type="line"/>
      <point x="1368" y="173" type="line"/>
      <point x="1395" y="137" type="line"/>
      <point x="1643" y="-192" type="line"/>
      <point x="1787" y="-192" type="line"/>
      <point x="1484" y="209" type="line"/>
      <point x="1456" y="247" type="line"/>
      <point x="1159" y="640" type="line"/>
    </contour>
    <component base="O"/>
  </outline>
</glyph>
<glyph name="R" format="2">
  <advance width="1755"/>
  <unicode hex="0052"/>
  <outline>
    <contour>
      <point x="168" y="0" type="line"/>
      <point x="293" y="0" type="line"/>
      <point x="613" y="1932" type="line"/>
      <point x="1116" y="1932" type="line" smooth="yes"/>
      <point x="1432" y="1932"/>
      <point x="1588" y="1743"/>
      <point x="1540" y="1449" type="curve" smooth="yes"/>
      <point x="1492" y="1160"/>
      <point x="1273" y="973"/>
      <point x="959" y="973" type="curve" smooth="yes"/>
      <point x="396" y="973" type="line"/>
      <point x="377" y="856" type="line"/>
      <point x="943" y="856" type="line" smooth="yes"/>
      <point x="1331" y="856"/>
      <point x="1604" y="1097"/>
      <point x="1664" y="1449" type="curve" smooth="yes"/>
      <point x="1721" y="1805"/>
      <point x="1528" y="2048"/>
      <point x="1139" y="2048" type="curve" smooth="yes"/>
      <point x="508" y="2048" type="line"/>
    </contour>
    <contour>
      <point x="1164" y="928" type="line"/>
      <point x="1028" y="928" type="line"/>
      <point x="1375" y="0" type="line"/>
      <point x="1513" y="0" type="line"/>
    </contour>
  </outline>
</glyph>
<glyph name="S" format="2">
  <advance width="1748"/>
  <unicode hex="0053"/>
  <note>
recipe: use stroke + offset curve filter with 32, no autostroke
</note>
  <outline>
    <contour>
      <point x="1527" y="1531" type="curve"/>
      <point x="1649" y="1531" type="line"/>
      <point x="1682" y="1849"/>
      <point x="1469" y="2079"/>
      <point x="1103" y="2079" type="curve" smooth="yes"/>
      <point x="735" y="2079"/>
      <point x="427" y="1857"/>
      <point x="373" y="1536" type="curve" smooth="yes"/>
      <point x="333" y="1287"/>
      <point x="477" y="1121"/>
      <point x="781" y="1025" type="curve" smooth="yes"/>
      <point x="1011" y="953" type="line" smooth="yes"/>
      <point x="1289" y="866"/>
      <point x="1425" y="748"/>
      <point x="1389" y="533" type="curve" smooth="yes"/>
      <point x="1345" y="267"/>
      <point x="1087" y="84"/>
      <point x="757" y="84" type="curve" smooth="yes"/>
      <point x="450" y="84"/>
      <point x="257" y="242"/>
      <point x="280" y="496" type="curve"/>
      <point x="152" y="496" type="line"/>
      <point x="121" y="183"/>
      <point x="342" y="-33"/>
      <point x="737" y="-33" type="curve" smooth="yes"/>
      <point x="1164" y="-33"/>
      <point x="1457" y="201"/>
      <point x="1512" y="532" type="curve" smooth="yes"/>
      <point x="1561" y="829"/>
      <point x="1355" y="975"/>
      <point x="1064" y="1067" type="curve" smooth="yes"/>
      <point x="851" y="1133" type="line" smooth="yes"/>
      <point x="617" y="1207"/>
      <point x="462" y="1329"/>
      <point x="497" y="1540" type="curve" smooth="yes"/>
      <point x="538" y="1783"/>
      <point x="784" y="1963"/>
      <point x="1083" y="1963" type="curve" smooth="yes"/>
      <point x="1377" y="1963"/>
      <point x="1543" y="1791"/>
    </contour>
  </outline>
</glyph>
<glyph name="T" format="2">
  <advance width="1755"/>
  <unicode hex="0054"/>
  <outline>
    <contour>
      <point x="352" y="1932" type="line"/>
      <point x="1007" y="1932" type="line"/>
      <point x="687" y="0" type="line"/>
      <point x="812" y="0" type="line"/>
      <point x="1132" y="1932" type="line"/>
      <point x="1787" y="1932" type="line"/>
      <point x="1807" y="2048" type="line"/>
      <point x="372" y="2048" type="line"/>
    </contour>
  </outline>
</glyph>
<glyph name="U" format="2">
  <advance width="2104"/>
  <unicode hex="0055"/>
  <outline>
    <contour>
      <point x="1895" y="2048" type="line"/>
      <point x="1671" y="692" type="line" smooth="yes"/>
      <point x="1611" y="333"/>
      <point x="1286" y="87"/>
      <point x="932" y="87" type="curve" smooth="yes"/>
      <point x="577" y="87"/>
      <point x="349" y="333"/>
      <point x="409" y="692" type="curve" smooth="yes"/>
      <point x="633" y="2048" type="line"/>
      <point x="508" y="2048" type="line"/>
      <point x="284" y="692" type="line" smooth="yes"/>
      <point x="213" y="263"/>
      <point x="497" y="-33"/>
      <point x="920" y="-33" type="curve" smooth="yes"/>
      <point x="1345" y="-33"/>
      <point x="1724" y="262"/>
      <point x="1796" y="692" type="curve" smooth="yes"/>
      <point x="2020" y="2048" type="line"/>
    </contour>
  </outline>
</glyph>
<glyph name="V" format="2">
  <advance width="1792"/>
  <unicode hex="0056"/>
  <outline>
    <contour>
      <point x="429" y="2048" type="line"/>
      <point x="297" y="2048" type="line"/>
      <point x="696" y="0" type="line"/>
      <point x="840" y="0" type="line"/>
      <point x="1919" y="2048" type="line"/>
      <point x="1787" y="2048" type="line"/>
      <point x="801" y="161" type="line"/>
      <point x="788" y="161" type="line"/>
    </contour>
  </outline>
</glyph>
<glyph name="W" format="2">
  <advance width="2565"/>
  <unicode hex="0057"/>
  <outline>
    <contour>
      <point x="508" y="0" type="line"/>
      <point x="652" y="0" type="line"/>
      <point x="1456" y="1843" type="line"/>
      <point x="1467" y="1843" type="line"/>
      <point x="1657" y="0" type="line"/>
      <point x="1804" y="0" type="line"/>
      <point x="2707" y="2048" type="line"/>
      <point x="2575" y="2048" type="line"/>
      <point x="1767" y="193" type="line"/>
      <point x="1755" y="193" type="line"/>
      <point x="1571" y="2048" type="line"/>
      <point x="1419" y="2048" type="line"/>
      <point x="616" y="193" type="line"/>
      <point x="604" y="193" type="line"/>
      <point x="415" y="2048" type="line"/>
      <point x="285" y="2048" type="line"/>
    </contour>
  </outline>
</glyph>
<glyph name="X" format="2">
  <advance width="1701"/>
  <unicode hex="0058"/>
  <note>
recipe: offset curve 32, no auto
</note>
  <outline>
    <contour>
      <point x="449" y="2048" type="line"/>
      <point x="301" y="2048" type="line"/>
      <point x="812" y="1024" type="line"/>
      <point x="-39" y="0" type="line"/>
      <point x="117" y="0" type="line"/>
      <point x="876" y="921" type="line"/>
      <point x="887" y="921" type="line"/>
      <point x="1339" y="0" type="line"/>
      <point x="1484" y="0" type="line"/>
      <point x="983" y="1024" type="line"/>
      <point x="1824" y="2048" type="line"/>
      <point x="1671" y="2048" type="line"/>
      <point x="912" y="1121" type="line"/>
      <point x="901" y="1121" type="line"/>
    </contour>
  </outline>
</glyph>
<glyph name="Y" format="2">
  <advance width="1776"/>
  <unicode hex="0059"/>
  <outline>
    <contour>
      <point x="300" y="2048" type="line"/>
      <point x="851" y="929" type="line"/>
      <point x="697" y="0" type="line"/>
      <point x="823" y="0" type="line"/>
      <point x="976" y="929" type="line"/>
      <point x="1900" y="2048" type="line"/>
      <point x="1749" y="2048" type="line"/>
      <point x="940" y="1060" type="line"/>
      <point x="924" y="1060" type="line"/>
      <point x="443" y="2048" type="line"/>
    </contour>
  </outline>
</glyph>
<glyph name="Z" format="2">
  <advance width="1723"/>
  <unicode hex="005A"/>
  <outline>
    <contour>
      <point x="73" y="0" type="line"/>
      <point x="1403" y="0" type="line"/>
      <point x="1423" y="116" type="line"/>
      <point x="245" y="116" type="line"/>
      <point x="1719" y="1945" type="line"/>
      <point x="1733" y="2048" type="line"/>
      <point x="415" y="2048" type="line"/>
      <point x="397" y="1932" type="line"/>
      <point x="1561" y="1932" type="line"/>
      <point x="92" y="103" type="line"/>
    </contour>
  </outline>
</glyph>
<glyph name="bracketleft" format="2">
  <advance width="932"/>
  <unicode hex="005B"/>
  <outline>
    <contour>
      <point x="149" y="-416" type="line"/>
      <point x="581" y="-416" type="line"/>
      <point x="600" y="-308" type="line"/>
      <point x="285" y="-308" type="line"/>
      <point x="672" y="2036" type="line"/>
      <point x="987" y="2036" type="line"/>
      <point x="1005" y="2144" type="line"/>
      <point x="573" y="2144" type="line"/>
    </contour>
  </outline>
</glyph>
<glyph name="backslash" format="2">
  <advance width="881"/>
  <unicode hex="005C"/>
  <outline>
    <contour>
      <point x="177" y="2048" type="line"/>
      <point x="616" y="-308" type="line"/>
      <point x="755" y="-308" type="line"/>
      <point x="316" y="2048" type="line"/>
    </contour>
  </outline>
</glyph>
<glyph name="asciicircum" format="2">
  <advance width="1192"/>
  <unicode hex="005E"/>
  <outline>
    <contour>
      <point x="768" y="1920" type="line"/>
      <point x="757" y="1844" type="line"/>
      <point x="808" y="1844" type="line"/>
      <point x="819" y="1920" type="line"/>
    </contour>
    <contour>
      <point x="183" y="1120" type="line"/>
      <point x="313" y="1120" type="line"/>
      <point x="801" y="1884" type="line"/>
      <point x="772" y="1884" type="line"/>
      <point x="1000" y="1120" type="line"/>
      <point x="1124" y="1120" type="line"/>
      <point x="857" y="1984" type="line"/>
      <point x="735" y="1984" type="line"/>
    </contour>
  </outline>
</glyph>
<glyph name="underscore" format="2">
  <advance width="1225"/>
  <unicode hex="005F"/>
  <outline>
    <contour>
      <point x="1103" y="0" type="line"/>
      <point x="-135" y="0" type="line"/>
      <point x="-160" y="-151" type="line"/>
      <point x="1080" y="-151" type="line"/>
    </contour>
  </outline>
</glyph>
<glyph name="grave" format="2">
  <advance width="1400"/>
  <unicode hex="0060"/>
  <note>
mirrored version of acute
</note>
  <outline>
    <contour>
      <point x="949" y="1755" type="line"/>
      <point x="1059" y="1755" type="line"/>
      <point x="865" y="2197" type="line"/>
      <point x="723" y="2197" type="line"/>
    </contour>
  </outline>
</glyph>
<glyph name="a" format="2">
  <advance width="1545"/>
  <unicode hex="0061"/>
  <outline>
    <contour>
      <point x="528" y="-33" type="curve" smooth="yes"/>
      <point x="772" y="-33"/>
      <point x="968" y="105"/>
      <point x="1075" y="277" type="curve"/>
      <point x="1084" y="277" type="line"/>
      <point x="1037" y="0" type="line"/>
      <point x="1159" y="0" type="line"/>
      <point x="1337" y="1073" type="line" smooth="yes"/>
      <point x="1393" y="1409"/>
      <point x="1169" y="1559"/>
      <point x="896" y="1559" type="curve" smooth="yes"/>
      <point x="659" y="1559"/>
      <point x="419" y="1452"/>
      <point x="295" y="1231" type="curve"/>
      <point x="401" y="1188" type="line"/>
      <point x="487" y="1337"/>
      <point x="671" y="1447"/>
      <point x="889" y="1447" type="curve" smooth="yes"/>
      <point x="1137" y="1447"/>
      <point x="1255" y="1304"/>
      <point x="1217" y="1081" type="curve" smooth="yes"/>
      <point x="1207" y="1017" type="line" smooth="yes"/>
      <point x="1187" y="900"/>
      <point x="1012" y="887"/>
      <point x="773" y="859" type="curve" smooth="yes"/>
      <point x="356" y="809"/>
      <point x="159" y="679"/>
      <point x="115" y="423" type="curve" smooth="yes"/>
      <point x="69" y="131"/>
      <point x="263" y="-33"/>
    </contour>
    <contour>
      <point x="551" y="80" type="curve" smooth="yes"/>
      <point x="336" y="80"/>
      <point x="203" y="209"/>
      <point x="236" y="419" type="curve" smooth="yes"/>
      <point x="269" y="609"/>
      <point x="427" y="711"/>
      <point x="769" y="751" type="curve" smooth="yes"/>
      <point x="920" y="768"/>
      <point x="1107" y="796"/>
      <point x="1179" y="849" type="curve"/>
      <point x="1140" y="623" type="line" smooth="yes"/>
      <point x="1089" y="311"/>
      <point x="839" y="80"/>
    </contour>
  </outline>
</glyph>
<glyph name="b" format="2">
  <advance width="1705"/>
  <unicode hex="0062"/>
  <note>
top anchor should match top anchor of i
</note>
  <outline>
    <contour>
      <point x="168" y="0" type="line"/>
      <point x="287" y="0" type="line"/>
      <point x="343" y="335" type="line"/>
      <point x="357" y="335" type="line"/>
      <point x="397" y="136"/>
      <point x="529" y="-32"/>
      <point x="793" y="-32" type="curve" smooth="yes"/>
      <point x="1164" y="-32"/>
      <point x="1460" y="300"/>
      <point x="1537" y="764" type="curve" smooth="yes"/>
      <point x="1615" y="1227"/>
      <point x="1425" y="1559"/>
      <point x="1056" y="1559" type="curve" smooth="yes"/>
      <point x="793" y="1559"/>
      <point x="603" y="1391"/>
      <point x="501" y="1193" type="curve"/>
      <point x="489" y="1193" type="line"/>
      <point x="629" y="2048" type="line"/>
      <point x="508" y="2048" type="line"/>
    </contour>
    <contour>
      <point x="416" y="765" type="curve" smooth="yes"/>
      <point x="480" y="1157"/>
      <point x="723" y="1445"/>
      <point x="1035" y="1445" type="curve" smooth="yes"/>
      <point x="1351" y="1445"/>
      <point x="1479" y="1151"/>
      <point x="1416" y="765" type="curve" smooth="yes"/>
      <point x="1352" y="379"/>
      <point x="1109" y="81"/>
      <point x="795" y="81" type="curve" smooth="yes"/>
      <point x="481" y="81"/>
      <point x="352" y="372"/>
    </contour>
  </outline>
</glyph>
<glyph name="c" format="2">
  <advance width="1561"/>
  <unicode hex="0063"/>
  <outline>
    <contour>
      <point x="697" y="-32" type="curve" smooth="yes"/>
      <point x="996" y="-32"/>
      <point x="1254" y="161"/>
      <point x="1347" y="448" type="curve"/>
      <point x="1223" y="448" type="line"/>
      <point x="1146" y="226"/>
      <point x="936" y="81"/>
      <point x="709" y="81" type="curve" smooth="yes"/>
      <point x="387" y="81"/>
      <point x="224" y="374"/>
      <point x="289" y="765" type="curve" smooth="yes"/>
      <point x="354" y="1162"/>
      <point x="631" y="1445"/>
      <point x="949" y="1445" type="curve" smooth="yes"/>
      <point x="1179" y="1445"/>
      <point x="1320" y="1297"/>
      <point x="1324" y="1084" type="curve"/>
      <point x="1448" y="1084" type="line"/>
      <point x="1450" y="1367"/>
      <point x="1254" y="1559"/>
      <point x="960" y="1559" type="curve" smooth="yes"/>
      <point x="572" y="1559"/>
      <point x="242" y="1221"/>
      <point x="168" y="763" type="curve" smooth="yes"/>
      <point x="93" y="309"/>
      <point x="300" y="-32"/>
    </contour>
  </outline>
</glyph>
<glyph name="d" format="2">
  <advance width="1707"/>
  <unicode hex="0064"/>
  <outline>
    <contour>
      <point x="649" y="-32" type="curve" smooth="yes"/>
      <point x="911" y="-32"/>
      <point x="1099" y="137"/>
      <point x="1205" y="335" type="curve"/>
      <point x="1220" y="335" type="line"/>
      <point x="1164" y="0" type="line"/>
      <point x="1283" y="0" type="line"/>
      <point x="1623" y="2048" type="line"/>
      <point x="1501" y="2048" type="line"/>
      <point x="1359" y="1193" type="line"/>
      <point x="1347" y="1193" type="line"/>
      <point x="1309" y="1391"/>
      <point x="1176" y="1559"/>
      <point x="913" y="1559" type="curve" smooth="yes"/>
      <point x="544" y="1559"/>
      <point x="245" y="1227"/>
      <point x="167" y="764" type="curve" smooth="yes"/>
      <point x="91" y="299"/>
      <point x="278" y="-32"/>
    </contour>
    <contour>
      <point x="669" y="81" type="curve" smooth="yes"/>
      <point x="353" y="81"/>
      <point x="226" y="379"/>
      <point x="289" y="765" type="curve" smooth="yes"/>
      <point x="354" y="1151"/>
      <point x="592" y="1445"/>
      <point x="907" y="1445" type="curve" smooth="yes"/>
      <point x="1220" y="1445"/>
      <point x="1355" y="1157"/>
      <point x="1289" y="765" type="curve" smooth="yes"/>
      <point x="1225" y="372"/>
      <point x="981" y="81"/>
    </contour>
  </outline>
</glyph>
<glyph name="e" format="2">
  <advance width="1631"/>
  <unicode hex="0065"/>
  <outline>
    <contour>
      <point x="720" y="-32" type="curve" smooth="yes"/>
      <point x="1024" y="-32"/>
      <point x="1239" y="145"/>
      <point x="1332" y="300" type="curve"/>
      <point x="1231" y="345" type="line"/>
      <point x="1154" y="231"/>
      <point x="984" y="81"/>
      <point x="735" y="81" type="curve" smooth="yes"/>
      <point x="377" y="81"/>
      <point x="220" y="353"/>
      <point x="285" y="749" type="curve" smooth="yes"/>
      <point x="297" y="811" type="line" smooth="yes"/>
      <point x="360" y="1157"/>
      <point x="643" y="1445"/>
      <point x="943" y="1445" type="curve" smooth="yes"/>
      <point x="1236" y="1445"/>
      <point x="1408" y="1184"/>
      <point x="1353" y="852" type="curve"/>
      <point x="260" y="852" type="line"/>
      <point x="241" y="741" type="line"/>
      <point x="1457" y="741" type="line"/>
      <point x="1471" y="817" type="line" smooth="yes"/>
      <point x="1546" y="1272"/>
      <point x="1299" y="1559"/>
      <point x="955" y="1559" type="curve" smooth="yes"/>
      <point x="574" y="1559"/>
      <point x="244" y="1220"/>
      <point x="168" y="761" type="curve" smooth="yes"/>
      <point x="91" y="303"/>
      <point x="303" y="-32"/>
    </contour>
  </outline>
</glyph>
<glyph name="f" format="2">
  <advance width="960"/>
  <unicode hex="0066"/>
  <outline>
    <contour>
      <point x="961" y="1536" type="line"/>
      <point x="280" y="1536" type="line"/>
      <point x="261" y="1427" type="line"/>
      <point x="943" y="1427" type="line"/>
    </contour>
    <component base="_part.f_base"/>
  </outline>
</glyph>
<glyph name="g" format="2">
  <advance width="1668"/>
  <unicode hex="0067"/>
  <outline>
    <contour>
      <point x="583" y="-608" type="curve" smooth="yes"/>
      <point x="942" y="-608"/>
      <point x="1213" y="-421"/>
      <point x="1277" y="-36" type="curve" smooth="yes"/>
      <point x="1537" y="1536" type="line"/>
      <point x="1419" y="1536" type="line"/>
      <point x="1363" y="1193" type="line"/>
      <point x="1349" y="1193" type="line"/>
      <point x="1307" y="1391"/>
      <point x="1179" y="1559"/>
      <point x="913" y="1559" type="curve" smooth="yes"/>
      <point x="541" y="1559"/>
      <point x="246" y="1229"/>
      <point x="169" y="768" type="curve" smooth="yes"/>
      <point x="92" y="307"/>
      <point x="290" y="8"/>
      <point x="655" y="8" type="curve" smooth="yes"/>
      <point x="906" y="8"/>
      <point x="1105" y="152"/>
      <point x="1207" y="351" type="curve"/>
      <point x="1219" y="351" type="line"/>
      <point x="1157" y="-31" type="line" smooth="yes"/>
      <point x="1105" y="-345"/>
      <point x="887" y="-496"/>
      <point x="592" y="-496" type="curve" smooth="yes"/>
      <point x="343" y="-496"/>
      <point x="212" y="-391"/>
      <point x="169" y="-243" type="curve"/>
      <point x="59" y="-300" type="line"/>
      <point x="112" y="-490"/>
      <point x="297" y="-608"/>
    </contour>
    <contour>
      <point x="675" y="121" type="curve" smooth="yes"/>
      <point x="359" y="121"/>
      <point x="228" y="385"/>
      <point x="291" y="769" type="curve" smooth="yes"/>
      <point x="353" y="1151"/>
      <point x="589" y="1445"/>
      <point x="905" y="1445" type="curve" smooth="yes"/>
      <point x="1219" y="1445"/>
      <point x="1354" y="1157"/>
      <point x="1291" y="769" type="curve" smooth="yes"/>
      <point x="1224" y="368"/>
      <point x="982" y="121"/>
    </contour>
  </outline>
</glyph>
<glyph name="h" format="2">
  <advance width="1621"/>
  <unicode hex="0068"/>
  <note>
based on "n" and made slightly wider, brining the top vertical stem with it out.
</note>
  <outline>
    <contour>
      <point x="412" y="996" type="line" smooth="yes"/>
      <point x="457" y="1264"/>
      <point x="680" y="1443"/>
      <point x="939" y="1443" type="curve" smooth="yes"/>
      <point x="1193" y="1443"/>
      <point x="1329" y="1271"/>
      <point x="1287" y="1008" type="curve" smooth="yes"/>
      <point x="1119" y="0" type="line"/>
      <point x="1240" y="0" type="line"/>
      <point x="1409" y="1013" type="line" smooth="yes"/>
      <point x="1465" y="1351"/>
      <point x="1285" y="1556"/>
      <point x="976" y="1556" type="curve" smooth="yes"/>
      <point x="753" y="1556"/>
      <point x="571" y="1453"/>
      <point x="475" y="1293" type="curve"/>
      <point x="463" y="1293" type="line"/>
      <point x="587" y="2048" type="line"/>
      <point x="465" y="2048" type="line"/>
      <point x="125" y="0" type="line"/>
      <point x="247" y="0" type="line"/>
    </contour>
  </outline>
</glyph>
<glyph name="k" format="2">
  <advance width="1425"/>
  <unicode hex="006B"/>
  <outline>
    <contour>
      <point x="331" y="600" type="line"/>
      <point x="609" y="831" type="line"/>
      <point x="621" y="836" type="line"/>
      <point x="1444" y="1536" type="line"/>
      <point x="1280" y="1536" type="line"/>
      <point x="391" y="777" type="line"/>
      <point x="359" y="777" type="line"/>
    </contour>
    <contour>
      <point x="125" y="0" type="line"/>
      <point x="247" y="0" type="line"/>
      <point x="587" y="2048" type="line"/>
      <point x="465" y="2048" type="line"/>
    </contour>
    <contour>
      <point x="1069" y="0" type="line"/>
      <point x="1220" y="0" type="line"/>
      <point x="651" y="900" type="line"/>
      <point x="552" y="819" type="line"/>
    </contour>
  </outline>
</glyph>
<glyph name="m" format="2">
  <advance width="2384"/>
  <unicode hex="006D"/>
  <outline>
    <contour>
      <point x="125" y="0" type="line"/>
      <point x="247" y="0" type="line"/>
      <point x="415" y="1008" type="line" smooth="yes"/>
      <point x="456" y="1261"/>
      <point x="645" y="1443"/>
      <point x="888" y="1443" type="curve" smooth="yes"/>
      <point x="1129" y="1443"/>
      <point x="1215" y="1279"/>
      <point x="1176" y="1039" type="curve" smooth="yes"/>
      <point x="1003" y="0" type="line"/>
      <point x="1125" y="0" type="line"/>
      <point x="1296" y="1021" type="line" smooth="yes"/>
      <point x="1336" y="1267"/>
      <point x="1511" y="1443"/>
      <point x="1764" y="1443" type="curve" smooth="yes"/>
      <point x="2001" y="1443"/>
      <point x="2095" y="1288"/>
      <point x="2053" y="1031" type="curve" smooth="yes"/>
      <point x="1881" y="0" type="line"/>
      <point x="2003" y="0" type="line"/>
      <point x="2175" y="1031" type="line" smooth="yes"/>
      <point x="2229" y="1356"/>
      <point x="2101" y="1556"/>
      <point x="1805" y="1556" type="curve" smooth="yes"/>
      <point x="1577" y="1556"/>
      <point x="1395" y="1440"/>
      <point x="1307" y="1259" type="curve"/>
      <point x="1296" y="1259" type="line"/>
      <point x="1264" y="1441"/>
      <point x="1149" y="1556"/>
      <point x="928" y="1556" type="curve" smooth="yes"/>
      <point x="725" y="1556"/>
      <point x="559" y="1457"/>
      <point x="472" y="1304" type="curve"/>
      <point x="460" y="1304" type="line"/>
      <point x="500" y="1536" type="line"/>
      <point x="381" y="1536" type="line"/>
    </contour>
  </outline>
</glyph>
<glyph name="n" format="2">
  <advance width="1616"/>
  <unicode hex="006E"/>
  <outline>
    <contour>
      <point x="412" y="996" type="line" smooth="yes"/>
      <point x="457" y="1264"/>
      <point x="677" y="1443"/>
      <point x="935" y="1443" type="curve" smooth="yes"/>
      <point x="1189" y="1443"/>
      <point x="1324" y="1269"/>
      <point x="1281" y="1008" type="curve" smooth="yes"/>
      <point x="1113" y="0" type="line"/>
      <point x="1235" y="0" type="line"/>
      <point x="1404" y="1013" type="line" smooth="yes"/>
      <point x="1460" y="1349"/>
      <point x="1280" y="1556"/>
      <point x="972" y="1556" type="curve" smooth="yes"/>
      <point x="753" y="1556"/>
      <point x="568" y="1452"/>
      <point x="472" y="1293" type="curve"/>
      <point x="460" y="1293" type="line"/>
      <point x="500" y="1536" type="line"/>
      <point x="381" y="1536" type="line"/>
      <point x="125" y="0" type="line"/>
      <point x="247" y="0" type="line"/>
    </contour>
  </outline>
</glyph>
<glyph name="o" format="2">
  <advance width="1648"/>
  <unicode hex="006F"/>
  <outline>
    <contour>
      <point x="700" y="-32" type="curve" smooth="yes"/>
      <point x="1076" y="-32"/>
      <point x="1403" y="297"/>
      <point x="1479" y="752" type="curve" smooth="yes"/>
      <point x="1553" y="1219"/>
      <point x="1332" y="1559"/>
      <point x="945" y="1559" type="curve" smooth="yes"/>
      <point x="572" y="1559"/>
      <point x="245" y="1229"/>
      <point x="169" y="773" type="curve" smooth="yes"/>
      <point x="93" y="305"/>
      <point x="316" y="-32"/>
    </contour>
    <contour>
      <point x="701" y="81" type="curve" smooth="yes"/>
      <point x="385" y="81"/>
      <point x="224" y="377"/>
      <point x="288" y="752" type="curve" smooth="yes"/>
      <point x="350" y="1137"/>
      <point x="620" y="1445"/>
      <point x="947" y="1445" type="curve" smooth="yes"/>
      <point x="1263" y="1445"/>
      <point x="1421" y="1148"/>
      <point x="1360" y="773" type="curve" smooth="yes"/>
      <point x="1298" y="385"/>
      <point x="1031" y="81"/>
    </contour>
  </outline>
</glyph>
<glyph name="p" format="2">
  <advance width="1657"/>
  <unicode hex="0070"/>
  <outline>
    <contour>
      <point x="24" y="-576" type="line"/>
      <point x="145" y="-576" type="line"/>
      <point x="297" y="335" type="line"/>
      <point x="309" y="335" type="line"/>
      <point x="349" y="136"/>
      <point x="484" y="-32"/>
      <point x="745" y="-32" type="curve" smooth="yes"/>
      <point x="1113" y="-32"/>
      <point x="1412" y="300"/>
      <point x="1489" y="764" type="curve" smooth="yes"/>
      <point x="1567" y="1229"/>
      <point x="1380" y="1559"/>
      <point x="1008" y="1559" type="curve" smooth="yes"/>
      <point x="743" y="1559"/>
      <point x="557" y="1391"/>
      <point x="453" y="1193" type="curve"/>
      <point x="439" y="1193" type="line"/>
      <point x="495" y="1536" type="line"/>
      <point x="376" y="1536" type="line"/>
    </contour>
    <contour>
      <point x="368" y="765" type="curve" smooth="yes"/>
      <point x="432" y="1157"/>
      <point x="675" y="1445"/>
      <point x="987" y="1445" type="curve" smooth="yes"/>
      <point x="1305" y="1445"/>
      <point x="1431" y="1151"/>
      <point x="1368" y="765" type="curve" smooth="yes"/>
      <point x="1304" y="379"/>
      <point x="1061" y="81"/>
      <point x="747" y="81" type="curve" smooth="yes"/>
      <point x="436" y="81"/>
      <point x="304" y="372"/>
    </contour>
  </outline>
</glyph>
<glyph name="r" format="2">
  <advance width="961"/>
  <unicode hex="0072"/>
  <outline>
    <contour>
      <point x="125" y="0" type="line"/>
      <point x="247" y="0" type="line"/>
      <point x="415" y="1012" type="line" smooth="yes"/>
      <point x="456" y="1260"/>
      <point x="671" y="1439"/>
      <point x="927" y="1439" type="curve" smooth="yes"/>
      <point x="959" y="1439"/>
      <point x="980" y="1435"/>
      <point x="996" y="1433" type="curve"/>
      <point x="1017" y="1556" type="line"/>
      <point x="997" y="1557"/>
      <point x="977" y="1557"/>
      <point x="955" y="1557" type="curve" smooth="yes"/>
      <point x="752" y="1557"/>
      <point x="561" y="1453"/>
      <point x="471" y="1296" type="curve"/>
      <point x="460" y="1296" type="line"/>
      <point x="500" y="1536" type="line"/>
      <point x="381" y="1536" type="line"/>
    </contour>
  </outline>
</glyph>
<glyph name="s" format="2">
  <advance width="1416"/>
  <unicode hex="0073"/>
  <outline>
    <contour>
      <point x="1301" y="1205" type="line"/>
      <point x="1264" y="1431"/>
      <point x="1122" y="1559"/>
      <point x="860" y="1559" type="curve" smooth="yes"/>
      <point x="566" y="1559"/>
      <point x="331" y="1392"/>
      <point x="289" y="1147" type="curve" smooth="yes"/>
      <point x="256" y="947"/>
      <point x="360" y="805"/>
      <point x="603" y="743" type="curve" smooth="yes"/>
      <point x="836" y="683" type="line" smooth="yes"/>
      <point x="1012" y="639"/>
      <point x="1086" y="543"/>
      <point x="1063" y="403" type="curve" smooth="yes"/>
      <point x="1033" y="215"/>
      <point x="840" y="80"/>
      <point x="585" y="80" type="curve" smooth="yes"/>
      <point x="361" y="80"/>
      <point x="237" y="185"/>
      <point x="228" y="384" type="curve"/>
      <point x="107" y="360" type="line"/>
      <point x="119" y="108"/>
      <point x="287" y="-32"/>
      <point x="576" y="-32" type="curve" smooth="yes"/>
      <point x="895" y="-32"/>
      <point x="1143" y="141"/>
      <point x="1185" y="396" type="curve" smooth="yes"/>
      <point x="1218" y="595"/>
      <point x="1117" y="736"/>
      <point x="885" y="796" type="curve" smooth="yes"/>
      <point x="657" y="855" type="line" smooth="yes"/>
      <point x="467" y="904"/>
      <point x="388" y="995"/>
      <point x="412" y="1140" type="curve" smooth="yes"/>
      <point x="441" y="1321"/>
      <point x="621" y="1448"/>
      <point x="851" y="1448" type="curve" smooth="yes"/>
      <point x="1057" y="1448"/>
      <point x="1155" y="1347"/>
      <point x="1184" y="1177" type="curve"/>
    </contour>
  </outline>
</glyph>
<glyph name="t" format="2">
  <advance width="995"/>
  <unicode hex="0074"/>
  <outline>
    <contour>
      <point x="924" y="1536" type="line"/>
      <point x="253" y="1536" type="line"/>
      <point x="235" y="1427" type="line"/>
      <point x="905" y="1427" type="line"/>
    </contour>
    <component base="_part.t_base"/>
  </outline>
</glyph>
<glyph name="u" format="2">
  <advance width="1612"/>
  <unicode hex="0075"/>
  <outline>
    <contour>
      <point x="1200" y="545" type="line" smooth="yes"/>
      <point x="1155" y="271"/>
      <point x="923" y="99"/>
      <point x="683" y="99" type="curve" smooth="yes"/>
      <point x="436" y="99"/>
      <point x="293" y="272"/>
      <point x="335" y="528" type="curve" smooth="yes"/>
      <point x="503" y="1536" type="line"/>
      <point x="381" y="1536" type="line"/>
      <point x="212" y="523" type="line" smooth="yes"/>
      <point x="156" y="187"/>
      <point x="335" y="-20"/>
      <point x="636" y="-20" type="curve" smooth="yes"/>
      <point x="855" y="-20"/>
      <point x="1044" y="91"/>
      <point x="1140" y="249" type="curve"/>
      <point x="1151" y="249" type="line"/>
      <point x="1109" y="0" type="line"/>
      <point x="1231" y="0" type="line"/>
      <point x="1487" y="1536" type="line"/>
      <point x="1365" y="1536" type="line"/>
    </contour>
  </outline>
</glyph>
<glyph name="v" format="2">
  <advance width="1504"/>
  <unicode hex="0076"/>
  <outline>
    <contour>
      <point x="1504" y="1536" type="line"/>
      <point x="1367" y="1536" type="line"/>
      <point x="650" y="157" type="line"/>
      <point x="639" y="157" type="line"/>
      <point x="381" y="1536" type="line"/>
      <point x="256" y="1536" type="line"/>
      <point x="555" y="0" type="line"/>
      <point x="693" y="0" type="line"/>
    </contour>
  </outline>
</glyph>
<glyph name="w" format="2">
  <advance width="2245"/>
  <unicode hex="0077"/>
  <outline>
    <contour>
      <point x="460" y="0" type="line"/>
      <point x="596" y="0" type="line"/>
      <point x="1208" y="1335" type="line"/>
      <point x="1221" y="1335" type="line"/>
      <point x="1393" y="0" type="line"/>
      <point x="1529" y="0" type="line"/>
      <point x="2245" y="1536" type="line"/>
      <point x="2115" y="1536" type="line"/>
      <point x="1493" y="180" type="line"/>
      <point x="1483" y="180" type="line"/>
      <point x="1312" y="1536" type="line"/>
      <point x="1185" y="1536" type="line"/>
      <point x="563" y="179" type="line"/>
      <point x="552" y="179" type="line"/>
      <point x="381" y="1536" type="line"/>
      <point x="256" y="1536" type="line"/>
    </contour>
  </outline>
</glyph>
<glyph name="x" format="2">
  <advance width="1445"/>
  <unicode hex="0078"/>
  <outline>
    <contour>
      <point x="423" y="1536" type="line"/>
      <point x="285" y="1536" type="line"/>
      <point x="647" y="771" type="line"/>
      <point x="27" y="0" type="line"/>
      <point x="173" y="0" type="line"/>
      <point x="708" y="669" type="line"/>
      <point x="1020" y="0" type="line"/>
      <point x="1157" y="0" type="line"/>
      <point x="795" y="763" type="line"/>
      <point x="1419" y="1536" type="line"/>
      <point x="1273" y="1536" type="line"/>
      <point x="735" y="853" type="line"/>
    </contour>
  </outline>
</glyph>
<glyph name="y" format="2">
  <advance width="1505"/>
  <unicode hex="0079"/>
  <outline>
    <contour>
      <point x="127" y="-577" type="curve" smooth="yes"/>
      <point x="293" y="-578"/>
      <point x="444" y="-474"/>
      <point x="557" y="-261" type="curve" smooth="yes"/>
      <point x="1504" y="1536" type="line"/>
      <point x="1367" y="1536" type="line"/>
      <point x="650" y="156" type="line"/>
      <point x="639" y="156" type="line"/>
      <point x="381" y="1536" type="line"/>
      <point x="256" y="1536" type="line"/>
      <point x="556" y="-16" type="line"/>
      <point x="454" y="-208" type="line" smooth="yes"/>
      <point x="331" y="-437"/>
      <point x="187" y="-507"/>
      <point x="15" y="-435" type="curve"/>
      <point x="-38" y="-541" type="line"/>
      <point x="7" y="-563"/>
      <point x="66" y="-577"/>
    </contour>
  </outline>
</glyph>
<glyph name="z" format="2">
  <advance width="1463"/>
  <unicode hex="007A"/>
  <outline>
    <contour>
      <point x="73" y="0" type="line"/>
      <point x="1168" y="0" type="line"/>
      <point x="1188" y="116" type="line"/>
      <point x="261" y="116" type="line"/>
      <point x="263" y="127" type="line"/>
      <point x="1369" y="1431" type="line"/>
      <point x="1388" y="1536" type="line"/>
      <point x="379" y="1536" type="line"/>
      <point x="359" y="1420" type="line"/>
      <point x="1211" y="1420" type="line"/>
      <point x="1209" y="1409" type="line"/>
      <point x="92" y="103" type="line"/>
    </contour>
  </outline>
</glyph>
<glyph name="braceleft" format="2">
  <advance width="932"/>
  <unicode hex="007B"/>
  <outline>
    <contour>
      <point x="171" y="841" type="line"/>
      <point x="491" y="841"/>
      <point x="601" y="952"/>
      <point x="641" y="1197" type="curve" smooth="yes"/>
      <point x="720" y="1680" type="line" smooth="yes"/>
      <point x="761" y="1929"/>
      <point x="864" y="2036"/>
      <point x="1080" y="2036" type="curve"/>
      <point x="1099" y="2144" type="line"/>
      <point x="803" y="2144"/>
      <point x="657" y="1997"/>
      <point x="605" y="1680" type="curve" smooth="yes"/>
      <point x="532" y="1224" type="line" smooth="yes"/>
      <point x="493" y="998"/>
      <point x="412" y="925"/>
      <point x="183" y="925" type="curve"/>
    </contour>
    <contour>
      <point x="675" y="-416" type="curve"/>
      <point x="693" y="-308" type="line"/>
      <point x="475" y="-308"/>
      <point x="408" y="-201"/>
      <point x="451" y="48" type="curve" smooth="yes"/>
      <point x="529" y="531" type="line" smooth="yes"/>
      <point x="569" y="776"/>
      <point x="499" y="887"/>
      <point x="176" y="887" type="curve"/>
      <point x="164" y="803" type="line"/>
      <point x="391" y="803"/>
      <point x="448" y="729"/>
      <point x="409" y="504" type="curve" smooth="yes"/>
      <point x="336" y="48" type="line" smooth="yes"/>
      <point x="284" y="-269"/>
      <point x="379" y="-416"/>
    </contour>
    <contour>
      <point x="160" y="803" type="line"/>
      <point x="385" y="803" type="line"/>
      <point x="404" y="925" type="line"/>
      <point x="179" y="925" type="line"/>
    </contour>
  </outline>
</glyph>
<glyph name="asciitilde" format="2">
  <advance width="1813"/>
  <unicode hex="007E"/>
  <outline>
    <contour>
      <point x="233" y="651" type="curve"/>
      <point x="348" y="645" type="line"/>
      <point x="384" y="789"/>
      <point x="501" y="873"/>
      <point x="644" y="873" type="curve" smooth="yes"/>
      <point x="748" y="873"/>
      <point x="811" y="834"/>
      <point x="887" y="769" type="curve" smooth="yes"/>
      <point x="975" y="691"/>
      <point x="1054" y="630"/>
      <point x="1179" y="630" type="curve" smooth="yes"/>
      <point x="1367" y="630"/>
      <point x="1531" y="734"/>
      <point x="1592" y="956" type="curve"/>
      <point x="1480" y="967" type="line"/>
      <point x="1435" y="828"/>
      <point x="1324" y="741"/>
      <point x="1192" y="741" type="curve" smooth="yes"/>
      <point x="1104" y="741"/>
      <point x="1048" y="784"/>
      <point x="972" y="847" type="curve" smooth="yes"/>
      <point x="881" y="924"/>
      <point x="796" y="988"/>
      <point x="657" y="988" type="curve" smooth="yes"/>
      <point x="457" y="988"/>
      <point x="287" y="877"/>
    </contour>
  </outline>
</glyph>
<glyph name="sterling" format="2">
  <advance width="1776"/>
  <unicode hex="00A3"/>
  <outline>
    <contour>
      <point x="1367" y="0" type="line"/>
      <point x="1387" y="116" type="line"/>
      <point x="103" y="116" type="line"/>
      <point x="83" y="0" type="line"/>
    </contour>
    <contour>
      <point x="1104" y="833" type="line"/>
      <point x="1125" y="952" type="line"/>
      <point x="239" y="952" type="line"/>
      <point x="217" y="833" type="line"/>
    </contour>
    <contour>
      <point x="696" y="1481" type="line" smooth="yes"/>
      <point x="740" y="1780"/>
      <point x="961" y="1960"/>
      <point x="1212" y="1960" type="curve" smooth="yes"/>
      <point x="1453" y="1960"/>
      <point x="1615" y="1791"/>
      <point x="1539" y="1569" type="curve"/>
      <point x="1652" y="1537" type="line"/>
      <point x="1761" y="1820"/>
      <point x="1560" y="2076"/>
      <point x="1228" y="2076" type="curve" smooth="yes"/>
      <point x="911" y="2076"/>
      <point x="624" y="1851"/>
      <point x="576" y="1481" type="curve" smooth="yes"/>
      <point x="433" y="453" type="line" smooth="yes"/>
      <point x="409" y="291"/>
      <point x="335" y="116"/>
      <point x="199" y="116" type="curve"/>
      <point x="287" y="57" type="line"/>
      <point x="444" y="96"/>
      <point x="527" y="251"/>
      <point x="555" y="453" type="curve" smooth="yes"/>
    </contour>
  </outline>
</glyph>
<glyph name="currency" format="2">
  <advance width="1957"/>
  <unicode hex="00A4"/>
  <outline>
    <contour>
      <point x="837" y="-28" type="curve" smooth="yes"/>
      <point x="1283" y="-28"/>
      <point x="1707" y="348"/>
      <point x="1788" y="836" type="curve" smooth="yes"/>
      <point x="1867" y="1324"/>
      <point x="1567" y="1696"/>
      <point x="1121" y="1696" type="curve" smooth="yes"/>
      <point x="677" y="1696"/>
      <point x="263" y="1324"/>
      <point x="184" y="836" type="curve"/>
      <point x="103" y="348"/>
      <point x="393" y="-28"/>
    </contour>
    <contour>
      <point x="868" y="165" type="curve" smooth="yes"/>
      <point x="541" y="165"/>
      <point x="317" y="475"/>
      <point x="380" y="836" type="curve"/>
      <point x="441" y="1201"/>
      <point x="761" y="1507"/>
      <point x="1088" y="1507" type="curve" smooth="yes"/>
      <point x="1420" y="1507"/>
      <point x="1640" y="1201"/>
      <point x="1579" y="836" type="curve" smooth="yes"/>
      <point x="1517" y="475"/>
      <point x="1200" y="165"/>
    </contour>
    <contour>
      <point x="1615" y="1283" type="line"/>
      <point x="1940" y="1567" type="line"/>
      <point x="1820" y="1716" type="line"/>
      <point x="1501" y="1432" type="line"/>
    </contour>
    <contour>
      <point x="1531" y="-12" type="line"/>
      <point x="1699" y="140" type="line"/>
      <point x="1472" y="420" type="line"/>
      <point x="1308" y="275" type="line"/>
    </contour>
    <contour>
      <point x="157" y="-12" type="line"/>
      <point x="480" y="275" type="line"/>
      <point x="363" y="420" type="line"/>
      <point x="44" y="140" type="line"/>
    </contour>
    <contour>
      <point x="505" y="1283" type="line"/>
      <point x="673" y="1432" type="line"/>
      <point x="447" y="1716" type="line"/>
      <point x="283" y="1567" type="line"/>
    </contour>
  </outline>
</glyph>
<glyph name="yen" format="2">
  <advance width="1496"/>
  <unicode hex="00A5"/>
  <note>
line up with uni20BD
</note>
  <outline>
    <contour>
      <point x="405" y="2048" type="line"/>
      <point x="265" y="2048" type="line"/>
      <point x="696" y="865" type="line"/>
      <point x="813" y="892" type="line"/>
    </contour>
    <contour>
      <point x="725" y="892" type="line"/>
      <point x="832" y="865" type="line"/>
      <point x="1655" y="2048" type="line"/>
      <point x="1515" y="2048" type="line"/>
    </contour>
    <contour>
      <point x="849" y="993" type="line"/>
      <point x="724" y="993" type="line"/>
      <point x="557" y="0" type="line"/>
      <point x="683" y="0" type="line"/>
    </contour>
    <contour>
      <point x="1312" y="959" type="line"/>
      <point x="248" y="959" type="line"/>
      <point x="231" y="856" type="line"/>
      <point x="1295" y="856" type="line"/>
    </contour>
    <contour>
      <point x="1261" y="656" type="line"/>
      <point x="197" y="656" type="line"/>
      <point x="180" y="553" type="line"/>
      <point x="1244" y="553" type="line"/>
    </contour>
  </outline>
</glyph>
<glyph name="brokenbar" format="2">
  <advance width="599"/>
  <unicode hex="00A6"/>
  <outline>
    <contour>
      <point x="207" y="539" type="line"/>
      <point x="51" y="-384" type="line"/>
      <point x="164" y="-384" type="line"/>
      <point x="320" y="539" type="line"/>
    </contour>
    <contour>
      <point x="568" y="2048" type="line"/>
      <point x="455" y="2048" type="line"/>
      <point x="301" y="1129" type="line"/>
      <point x="415" y="1129" type="line"/>
    </contour>
  </outline>
</glyph>
<glyph name="section" format="2">
  <advance width="1512"/>
  <unicode hex="00A7"/>
  <note>
composed of "S" scaled down with RMX Tuner in temporary duplicate file
</note>
  <outline>
    <contour>
      <point x="1359" y="1612" type="line"/>
      <point x="1393" y="1883"/>
      <point x="1248" y="2076"/>
      <point x="972" y="2076" type="curve" smooth="yes"/>
      <point x="704" y="2076"/>
      <point x="483" y="1888"/>
      <point x="441" y="1648" type="curve" smooth="yes"/>
      <point x="419" y="1499"/>
      <point x="477" y="1397"/>
      <point x="583" y="1305" type="curve"/>
      <point x="580" y="1297" type="line"/>
      <point x="384" y="1289"/>
      <point x="232" y="1136"/>
      <point x="203" y="965" type="curve" smooth="yes"/>
      <point x="171" y="763"/>
      <point x="297" y="643"/>
      <point x="537" y="489" type="curve" smooth="yes"/>
      <point x="757" y="348" type="line" smooth="yes"/>
      <point x="949" y="223"/>
      <point x="1020" y="144"/>
      <point x="996" y="5" type="curve" smooth="yes"/>
      <point x="964" y="-191"/>
      <point x="780" y="-303"/>
      <point x="573" y="-303" type="curve" smooth="yes"/>
      <point x="345" y="-303"/>
      <point x="211" y="-163"/>
      <point x="237" y="55" type="curve"/>
      <point x="117" y="55" type="line"/>
      <point x="79" y="-231"/>
      <point x="261" y="-416"/>
      <point x="553" y="-416" type="curve" smooth="yes"/>
      <point x="828" y="-416"/>
      <point x="1072" y="-264"/>
      <point x="1115" y="5" type="curve" smooth="yes"/>
      <point x="1137" y="136"/>
      <point x="1103" y="237"/>
      <point x="947" y="361" type="curve"/>
      <point x="947" y="365" type="line"/>
      <point x="1128" y="381"/>
      <point x="1300" y="521"/>
      <point x="1329" y="691" type="curve" smooth="yes"/>
      <point x="1368" y="931"/>
      <point x="1165" y="1055"/>
      <point x="1004" y="1163" type="curve" smooth="yes"/>
      <point x="785" y="1305" type="line" smooth="yes"/>
      <point x="655" y="1391"/>
      <point x="532" y="1477"/>
      <point x="560" y="1648" type="curve" smooth="yes"/>
      <point x="591" y="1815"/>
      <point x="743" y="1965"/>
      <point x="955" y="1965" type="curve" smooth="yes"/>
      <point x="1172" y="1965"/>
      <point x="1265" y="1808"/>
      <point x="1240" y="1612" type="curve"/>
    </contour>
    <contour>
      <point x="1213" y="691" type="curve" smooth="yes"/>
      <point x="1184" y="516"/>
      <point x="985" y="421"/>
      <point x="829" y="448" type="curve"/>
      <point x="608" y="589" type="line" smooth="yes"/>
      <point x="400" y="724"/>
      <point x="296" y="821"/>
      <point x="319" y="965" type="curve" smooth="yes"/>
      <point x="347" y="1131"/>
      <point x="496" y="1249"/>
      <point x="688" y="1221" type="curve"/>
      <point x="931" y="1063" type="line" smooth="yes"/>
      <point x="1077" y="967"/>
      <point x="1241" y="860"/>
    </contour>
  </outline>
</glyph>
<glyph name="dieresis" format="2">
  <advance width="1792"/>
  <unicode hex="00A8"/>
  <outline>
    <contour>
      <point x="853" y="1808" type="curve" smooth="yes"/>
      <point x="903" y="1808"/>
      <point x="949" y="1849"/>
      <point x="955" y="1893" type="curve" smooth="yes"/>
      <point x="965" y="1953"/>
      <point x="926" y="2000"/>
      <point x="866" y="2000" type="curve" smooth="yes"/>
      <point x="819" y="2000"/>
      <point x="773" y="1962"/>
      <point x="765" y="1915" type="curve" smooth="yes"/>
      <point x="755" y="1857"/>
      <point x="797" y="1808"/>
    </contour>
    <contour>
      <point x="1301" y="1808" type="curve" smooth="yes"/>
      <point x="1351" y="1808"/>
      <point x="1394" y="1847"/>
      <point x="1403" y="1893" type="curve" smooth="yes"/>
      <point x="1415" y="1953"/>
      <point x="1374" y="2000"/>
      <point x="1314" y="2000" type="curve" smooth="yes"/>
      <point x="1267" y="2000"/>
      <point x="1221" y="1961"/>
      <point x="1213" y="1915" type="curve" smooth="yes"/>
      <point x="1202" y="1859"/>
      <point x="1245" y="1808"/>
    </contour>
  </outline>
</glyph>
<glyph name="copyright" format="2">
  <advance width="2576"/>
  <unicode hex="00A9"/>
  <note>
Stroke R: 116
Stroke B: 160
</note>
  <outline>
    <contour>
      <point x="758" y="1024" type="curve" smooth="yes"/>
      <point x="704" y="696"/>
      <point x="926" y="430"/>
      <point x="1254" y="430" type="curve" smooth="yes"/>
      <point x="1506" y="430"/>
      <point x="1727" y="589"/>
      <point x="1828" y="811" type="curve"/>
      <point x="1699" y="811" type="line"/>
      <point x="1617" y="656"/>
      <point x="1442" y="550"/>
      <point x="1257" y="550" type="curve" smooth="yes"/>
      <point x="996" y="550"/>
      <point x="836" y="767"/>
      <point x="878" y="1024" type="curve" smooth="yes"/>
      <point x="923" y="1291"/>
      <point x="1184" y="1498"/>
      <point x="1444" y="1498" type="curve" smooth="yes"/>
      <point x="1630" y="1498"/>
      <point x="1747" y="1393"/>
      <point x="1776" y="1237" type="curve"/>
      <point x="1905" y="1237" type="line"/>
      <point x="1879" y="1459"/>
      <point x="1702" y="1618"/>
      <point x="1450" y="1618" type="curve" smooth="yes"/>
      <point x="1122" y="1618"/>
      <point x="812" y="1352"/>
    </contour>
    <component base="circlewhite" xOffset="1"/>
  </outline>
</glyph>
<glyph name="ordfeminine" format="2">
  <advance width="1192"/>
  <unicode hex="00AA"/>
  <outline>
    <contour>
      <point x="831" y="1184" type="line"/>
      <point x="817" y="1115"/>
      <point x="816" y="1039"/>
      <point x="824" y="975" type="curve"/>
      <point x="1063" y="975" type="line"/>
      <point x="1055" y="1049"/>
      <point x="1055" y="1125"/>
      <point x="1073" y="1220" type="curve" smooth="yes"/>
      <point x="1145" y="1652" type="line"/>
      <point x="1185" y="1904"/>
      <point x="1048" y="2032"/>
      <point x="813" y="2032" type="curve" smooth="yes"/>
      <point x="556" y="2032"/>
      <point x="373" y="1896"/>
      <point x="341" y="1715" type="curve"/>
      <point x="568" y="1692" type="line"/>
      <point x="583" y="1780"/>
      <point x="663" y="1828"/>
      <point x="781" y="1828" type="curve" smooth="yes"/>
      <point x="885" y="1828"/>
      <point x="925" y="1771"/>
      <point x="911" y="1652" type="curve"/>
    </contour>
    <contour>
      <point x="956" y="1587" type="line"/>
      <point x="759" y="1587" type="line"/>
      <point x="449" y="1585"/>
      <point x="275" y="1468"/>
      <point x="243" y="1264" type="curve" smooth="yes"/>
      <point x="211" y="1076"/>
      <point x="313" y="952"/>
      <point x="532" y="952" type="curve" smooth="yes"/>
      <point x="715" y="952"/>
      <point x="833" y="1063"/>
      <point x="888" y="1151" type="curve"/>
      <point x="888" y="1308" type="line"/>
      <point x="880" y="1240"/>
      <point x="731" y="1153"/>
      <point x="621" y="1155" type="curve" smooth="yes"/>
      <point x="511" y="1153"/>
      <point x="472" y="1196"/>
      <point x="484" y="1275" type="curve" smooth="yes"/>
      <point x="496" y="1353"/>
      <point x="573" y="1425"/>
      <point x="731" y="1427" type="curve"/>
      <point x="928" y="1427" type="line"/>
    </contour>
  </outline>
</glyph>
<glyph name="logicalnot" format="2">
  <advance width="1445"/>
  <unicode hex="00AC"/>
  <outline>
    <contour>
      <point x="1344" y="1108" type="line"/>
      <point x="217" y="1108" type="line"/>
      <point x="177" y="872" type="line"/>
      <point x="1304" y="872" type="line"/>
    </contour>
    <contour>
      <point x="1328" y="1000" type="line"/>
      <point x="1055" y="1000" type="line"/>
      <point x="975" y="516" type="line"/>
      <point x="1248" y="516" type="line"/>
    </contour>
  </outline>
</glyph>
<glyph name="registered" format="2">
  <advance width="1888"/>
  <unicode hex="00AE"/>
  <note>
Stroke L: 32
Stroke R: 96
Stroke B: 112
</note>
  <outline>
    <contour>
      <point x="704" y="916" type="line"/>
      <point x="801" y="916" type="line"/>
      <point x="909" y="1571" type="line"/>
      <point x="1127" y="1571" type="line" smooth="yes"/>
      <point x="1216" y="1571"/>
      <point x="1270" y="1524"/>
      <point x="1255" y="1429" type="curve" smooth="yes"/>
      <point x="1241" y="1334"/>
      <point x="1169" y="1278"/>
      <point x="1078" y="1278" type="curve" smooth="yes"/>
      <point x="818" y="1278" type="line"/>
      <point x="805" y="1195" type="line"/>
      <point x="1083" y="1195" type="line" smooth="yes"/>
      <point x="1216" y="1195"/>
      <point x="1334" y="1289"/>
      <point x="1357" y="1429" type="curve" smooth="yes"/>
      <point x="1381" y="1567"/>
      <point x="1292" y="1654"/>
      <point x="1161" y="1654" type="curve" smooth="yes"/>
      <point x="826" y="1654" type="line"/>
    </contour>
    <contour>
      <point x="1176" y="1253" type="line"/>
      <point x="1071" y="1253" type="line"/>
      <point x="1193" y="916" type="line"/>
      <point x="1302" y="916" type="line"/>
    </contour>
    <contour>
      <point x="1028" y="476" type="curve" smooth="yes"/>
      <point x="1469" y="476"/>
      <point x="1827" y="834"/>
      <point x="1828" y="1276" type="curve" smooth="yes"/>
      <point x="1829" y="1718"/>
      <point x="1469" y="2076"/>
      <point x="1028" y="2076" type="curve" smooth="yes"/>
      <point x="585" y="2076"/>
      <point x="227" y="1718"/>
      <point x="228" y="1276" type="curve" smooth="yes"/>
      <point x="229" y="834"/>
      <point x="585" y="476"/>
    </contour>
    <contour>
      <point x="1028" y="583" type="curve" smooth="yes"/>
      <point x="644" y="583"/>
      <point x="334" y="893"/>
      <point x="335" y="1276" type="curve" smooth="yes"/>
      <point x="336" y="1659"/>
      <point x="644" y="1969"/>
      <point x="1028" y="1969" type="curve" smooth="yes"/>
      <point x="1410" y="1969"/>
      <point x="1720" y="1659"/>
      <point x="1721" y="1276" type="curve" smooth="yes"/>
      <point x="1722" y="893"/>
      <point x="1410" y="583"/>
    </contour>
  </outline>
</glyph>
<glyph name="macron" format="2">
  <advance width="971"/>
  <unicode hex="00AF"/>
  <outline>
    <contour>
      <point x="1052" y="1957" type="line"/>
      <point x="313" y="1957" type="line"/>
      <point x="295" y="1848" type="line"/>
      <point x="1033" y="1848" type="line"/>
    </contour>
  </outline>
</glyph>
<glyph name="degree" format="2">
  <advance width="1280"/>
  <unicode hex="00B0"/>
  <outline>
    <contour>
      <point x="783" y="1211" type="curve" smooth="yes"/>
      <point x="1021" y="1211"/>
      <point x="1214" y="1403"/>
      <point x="1214" y="1641" type="curve" smooth="yes"/>
      <point x="1214" y="1879"/>
      <point x="1021" y="2072"/>
      <point x="783" y="2072" type="curve" smooth="yes"/>
      <point x="545" y="2072"/>
      <point x="353" y="1879"/>
      <point x="353" y="1641" type="curve" smooth="yes"/>
      <point x="353" y="1403"/>
      <point x="545" y="1211"/>
    </contour>
    <contour>
      <point x="783" y="1320" type="curve" smooth="yes"/>
      <point x="605" y="1320"/>
      <point x="462" y="1463"/>
      <point x="462" y="1641" type="curve" smooth="yes"/>
      <point x="462" y="1819"/>
      <point x="605" y="1963"/>
      <point x="783" y="1963" type="curve" smooth="yes"/>
      <point x="961" y="1963"/>
      <point x="1105" y="1819"/>
      <point x="1105" y="1641" type="curve" smooth="yes"/>
      <point x="1105" y="1463"/>
      <point x="961" y="1320"/>
    </contour>
  </outline>
</glyph>
<glyph name="plusminus" format="2">
  <advance width="1813"/>
  <unicode hex="00B1"/>
  <outline>
    <contour>
      <point x="204" y="160" type="line"/>
      <point x="1407" y="160" type="line"/>
      <point x="1427" y="277" type="line"/>
      <point x="224" y="277" type="line"/>
    </contour>
    <contour>
      <point x="335" y="941" type="line"/>
      <point x="1537" y="941" type="line"/>
      <point x="1557" y="1059" type="line"/>
      <point x="355" y="1059" type="line"/>
    </contour>
    <contour>
      <point x="799" y="464" type="line"/>
      <point x="916" y="464" type="line"/>
      <point x="1093" y="1536" type="line"/>
      <point x="976" y="1536" type="line"/>
    </contour>
  </outline>
</glyph>
<glyph name="two.sups" format="2">
  <advance width="1167"/>
  <unicode hex="00B2"/>
  <outline>
    <contour>
      <point x="201" y="1024" type="line"/>
      <point x="1061" y="1024" type="line"/>
      <point x="1079" y="1123" type="line"/>
      <point x="384" y="1123" type="line"/>
      <point x="384" y="1128" type="line"/>
      <point x="787" y="1471" type="line" smooth="yes"/>
      <point x="1043" y="1687"/>
      <point x="1128" y="1784"/>
      <point x="1152" y="1931" type="curve" smooth="yes"/>
      <point x="1184" y="2123"/>
      <point x="1045" y="2268"/>
      <point x="816" y="2268" type="curve" smooth="yes"/>
      <point x="583" y="2268"/>
      <point x="395" y="2119"/>
      <point x="361" y="1920" type="curve"/>
      <point x="475" y="1920" type="line"/>
      <point x="497" y="2061"/>
      <point x="636" y="2173"/>
      <point x="807" y="2173" type="curve" smooth="yes"/>
      <point x="968" y="2173"/>
      <point x="1069" y="2073"/>
      <point x="1047" y="1937" type="curve" smooth="yes"/>
      <point x="1028" y="1819"/>
      <point x="949" y="1732"/>
      <point x="739" y="1553" type="curve" smooth="yes"/>
      <point x="215" y="1108" type="line"/>
    </contour>
  </outline>
</glyph>
<glyph name="three.sups" format="2">
  <advance width="1173"/>
  <unicode hex="00B3"/>
  <outline>
    <contour>
      <point x="633" y="1008" type="curve" smooth="yes"/>
      <point x="896" y="1008"/>
      <point x="1095" y="1152"/>
      <point x="1128" y="1351" type="curve" smooth="yes"/>
      <point x="1152" y="1504"/>
      <point x="1057" y="1623"/>
      <point x="883" y="1656" type="curve"/>
      <point x="883" y="1661" type="line"/>
      <point x="1045" y="1700"/>
      <point x="1156" y="1791"/>
      <point x="1180" y="1937" type="curve" smooth="yes"/>
      <point x="1212" y="2136"/>
      <point x="1067" y="2268"/>
      <point x="833" y="2268" type="curve" smooth="yes"/>
      <point x="608" y="2268"/>
      <point x="415" y="2133"/>
      <point x="380" y="1933" type="curve"/>
      <point x="489" y="1933" type="line"/>
      <point x="515" y="2077"/>
      <point x="671" y="2173"/>
      <point x="835" y="2173" type="curve" smooth="yes"/>
      <point x="1015" y="2173"/>
      <point x="1093" y="2071"/>
      <point x="1071" y="1943" type="curve" smooth="yes"/>
      <point x="1049" y="1807"/>
      <point x="904" y="1703"/>
      <point x="708" y="1703" type="curve" smooth="yes"/>
      <point x="655" y="1703" type="line"/>
      <point x="641" y="1609" type="line"/>
      <point x="699" y="1609" type="line" smooth="yes"/>
      <point x="913" y="1609"/>
      <point x="1037" y="1512"/>
      <point x="1012" y="1359" type="curve" smooth="yes"/>
      <point x="989" y="1223"/>
      <point x="833" y="1108"/>
      <point x="639" y="1108" type="curve" smooth="yes"/>
      <point x="460" y="1108"/>
      <point x="343" y="1204"/>
      <point x="364" y="1344" type="curve"/>
      <point x="249" y="1344" type="line"/>
      <point x="220" y="1148"/>
      <point x="381" y="1008"/>
    </contour>
  </outline>
</glyph>
<glyph name="acute" format="2">
  <advance width="1400"/>
  <unicode hex="00B4"/>
  <outline>
    <contour>
      <point x="791" y="1755" type="line"/>
      <point x="903" y="1755" type="line"/>
      <point x="1278" y="2197" type="line"/>
      <point x="1133" y="2197" type="line"/>
    </contour>
  </outline>
</glyph>
<glyph name="micro" format="2">
  <advance width="1669"/>
  <unicode hex="00B5"/>
  <outline>
    <contour>
      <point x="19" y="-589" type="line"/>
      <point x="140" y="-589" type="line"/>
      <point x="281" y="236" type="line"/>
      <point x="293" y="236" type="line"/>
      <point x="359" y="55"/>
      <point x="519" y="-39"/>
      <point x="699" y="-39" type="curve" smooth="yes"/>
      <point x="882" y="-39"/>
      <point x="1073" y="55"/>
      <point x="1203" y="236" type="curve"/>
      <point x="1215" y="236" type="line"/>
      <point x="1175" y="0" type="line"/>
      <point x="1296" y="0" type="line"/>
      <point x="1552" y="1536" type="line"/>
      <point x="1441" y="1536" type="line"/>
      <point x="1287" y="612" type="line" smooth="yes"/>
      <point x="1239" y="321"/>
      <point x="1019" y="120"/>
      <point x="728" y="120" type="curve" smooth="yes"/>
      <point x="437" y="120"/>
      <point x="282" y="321"/>
      <point x="329" y="612" type="curve" smooth="yes"/>
      <point x="484" y="1536" type="line"/>
      <point x="376" y="1536" type="line"/>
    </contour>
  </outline>
</glyph>
<glyph name="paragraph" format="2">
  <advance width="1603"/>
  <unicode hex="00B6"/>
  <note>
aka PILCROW SIGN
</note>
  <outline>
    <contour>
      <point x="1497" y="1932" type="line"/>
      <point x="1517" y="2048" type="line"/>
      <point x="1069" y="2048" type="line" smooth="yes"/>
      <point x="633" y="2048"/>
      <point x="349" y="1772"/>
      <point x="285" y="1404" type="curve" smooth="yes"/>
      <point x="222" y="1033"/>
      <point x="421" y="760"/>
      <point x="857" y="760" type="curve" smooth="yes"/>
      <point x="973" y="760" type="line"/>
      <point x="1165" y="1932" type="line"/>
    </contour>
    <contour>
      <point x="1056" y="0" type="line"/>
      <point x="1181" y="0" type="line"/>
      <point x="1521" y="2048" type="line"/>
      <point x="1396" y="2048" type="line"/>
    </contour>
  </outline>
</glyph>
<glyph name="cedilla" format="2">
  <advance width="635"/>
  <unicode hex="00B8"/>
  <outline>
    <contour>
      <point x="144" y="8" type="line"/>
      <point x="84" y="-151" type="line"/>
      <point x="233" y="-153"/>
      <point x="295" y="-201"/>
      <point x="279" y="-308" type="curve" smooth="yes"/>
      <point x="263" y="-404"/>
      <point x="187" y="-447"/>
      <point x="45" y="-449" type="curve"/>
      <point x="33" y="-544" type="line"/>
      <point x="243" y="-540"/>
      <point x="367" y="-456"/>
      <point x="392" y="-305" type="curve" smooth="yes"/>
      <point x="415" y="-171"/>
      <point x="347" y="-92"/>
      <point x="223" y="-72" type="curve"/>
      <point x="252" y="8" type="line"/>
    </contour>
  </outline>
</glyph>
<glyph name="one.sups" format="2">
  <advance width="795"/>
  <unicode hex="00B9"/>
  <outline>
    <contour>
      <point x="775" y="2252" type="line"/>
      <point x="668" y="2252" type="line"/>
      <point x="655" y="2221"/>
      <point x="520" y="2063"/>
      <point x="336" y="2059" type="curve"/>
      <point x="323" y="1961" type="line"/>
      <point x="477" y="1964"/>
      <point x="597" y="2056"/>
      <point x="624" y="2084" type="curve"/>
      <point x="636" y="2084" type="line"/>
      <point x="460" y="1024" type="line"/>
      <point x="571" y="1024" type="line"/>
    </contour>
  </outline>
</glyph>
<glyph name="ordmasculine" format="2">
  <advance width="1197"/>
  <unicode hex="00BA"/>
  <outline>
    <contour>
      <point x="244" y="1436" type="line"/>
      <point x="196" y="1152"/>
      <point x="347" y="953"/>
      <point x="636" y="955" type="curve" smooth="yes"/>
      <point x="921" y="953"/>
      <point x="1129" y="1152"/>
      <point x="1177" y="1436" type="curve"/>
      <point x="1193" y="1547" type="line"/>
      <point x="1241" y="1828"/>
      <point x="1097" y="2032"/>
      <point x="808" y="2032" type="curve" smooth="yes"/>
      <point x="519" y="2032"/>
      <point x="308" y="1828"/>
      <point x="260" y="1547" type="curve"/>
    </contour>
    <contour>
      <point x="495" y="1547" type="line"/>
      <point x="523" y="1705"/>
      <point x="621" y="1828"/>
      <point x="776" y="1828" type="curve" smooth="yes"/>
      <point x="931" y="1828"/>
      <point x="985" y="1705"/>
      <point x="959" y="1547" type="curve"/>
      <point x="943" y="1436" type="line"/>
      <point x="913" y="1272"/>
      <point x="819" y="1152"/>
      <point x="668" y="1152" type="curve" smooth="yes"/>
      <point x="509" y="1152"/>
      <point x="451" y="1272"/>
      <point x="479" y="1436" type="curve"/>
    </contour>
  </outline>
</glyph>
<glyph name="AE" format="2">
  <advance width="2729"/>
  <unicode hex="00C6"/>
  <outline>
    <contour>
      <point x="-43" y="0" type="line"/>
      <point x="99" y="0" type="line"/>
      <point x="1380" y="1932" type="line"/>
      <point x="1560" y="1932" type="line"/>
      <point x="1240" y="0" type="line"/>
      <point x="2404" y="0" type="line"/>
      <point x="2424" y="116" type="line"/>
      <point x="1385" y="116" type="line"/>
      <point x="1525" y="967" type="line"/>
      <point x="2479" y="967" type="line"/>
      <point x="2499" y="1083" type="line"/>
      <point x="1545" y="1083" type="line"/>
      <point x="1685" y="1932" type="line"/>
      <point x="2700" y="1932" type="line"/>
      <point x="2720" y="2048" type="line"/>
      <point x="1324" y="2048" type="line"/>
    </contour>
    <contour>
      <point x="480" y="655" type="line"/>
      <point x="1416" y="655" type="line"/>
      <point x="1436" y="771" type="line"/>
      <point x="500" y="771" type="line"/>
    </contour>
  </outline>
</glyph>
<glyph name="multiply" format="2">
  <advance width="1813"/>
  <unicode hex="00D7"/>
  <outline>
    <contour>
      <point x="1337" y="197" type="line"/>
      <point x="1425" y="271" type="line"/>
      <point x="485" y="1399" type="line"/>
      <point x="397" y="1325" type="line"/>
    </contour>
    <contour>
      <point x="297" y="196" type="line"/>
      <point x="1603" y="1313" type="line"/>
      <point x="1528" y="1400" type="line"/>
      <point x="223" y="283" type="line"/>
    </contour>
  </outline>
</glyph>
<glyph name="Oslash" format="2">
  <advance width="2119"/>
  <unicode hex="00D8"/>
  <outline>
    <contour>
      <point x="328" y="-60" type="line"/>
      <point x="1955" y="2048" type="line"/>
      <point x="1875" y="2107" type="line"/>
      <point x="245" y="-1" type="line"/>
    </contour>
    <component base="O" yOffset="-7"/>
  </outline>
</glyph>
<glyph name="Thorn" format="2">
  <advance width="1701"/>
  <unicode hex="00DE"/>
  <outline>
    <contour>
      <point x="484" y="2048" type="line"/>
      <point x="144" y="0" type="line"/>
      <point x="267" y="0" type="line"/>
      <point x="607" y="2048" type="line"/>
    </contour>
    <contour>
      <point x="464" y="1592" type="line"/>
      <point x="441" y="1449" type="line"/>
      <point x="967" y="1449" type="line" smooth="yes"/>
      <point x="1275" y="1449"/>
      <point x="1447" y="1305"/>
      <point x="1397" y="1027" type="curve" smooth="yes"/>
      <point x="1349" y="744"/>
      <point x="1139" y="611"/>
      <point x="831" y="612" type="curve" smooth="yes"/>
      <point x="305" y="612" type="line"/>
      <point x="283" y="467" type="line"/>
      <point x="808" y="467" type="line" smooth="yes"/>
      <point x="1204" y="465"/>
      <point x="1467" y="729"/>
      <point x="1516" y="1031" type="curve" smooth="yes"/>
      <point x="1567" y="1329"/>
      <point x="1387" y="1592"/>
      <point x="989" y="1592" type="curve" smooth="yes"/>
    </contour>
  </outline>
</glyph>
<glyph name="germandbls" format="2">
  <advance width="1613"/>
  <unicode hex="00DF"/>
  <outline>
    <contour>
      <point x="168" y="0" type="line"/>
      <point x="276" y="0" type="line"/>
      <point x="536" y="1577" type="line" smooth="yes"/>
      <point x="571" y="1793"/>
      <point x="771" y="1947"/>
      <point x="1003" y="1947" type="curve" smooth="yes"/>
      <point x="1253" y="1947"/>
      <point x="1379" y="1767"/>
      <point x="1345" y="1547" type="curve" smooth="yes"/>
      <point x="1309" y="1332"/>
      <point x="1126" y="1119"/>
      <point x="888" y="1120" type="curve" smooth="yes"/>
      <point x="744" y="1120" type="line"/>
      <point x="719" y="968" type="line"/>
      <point x="915" y="968" type="line" smooth="yes"/>
      <point x="1180" y="967"/>
      <point x="1321" y="782"/>
      <point x="1283" y="537" type="curve" smooth="yes"/>
      <point x="1245" y="303"/>
      <point x="1059" y="135"/>
      <point x="816" y="135" type="curve" smooth="yes"/>
      <point x="572" y="135" type="line"/>
      <point x="549" y="0" type="line"/>
      <point x="744" y="0" type="line" smooth="yes"/>
      <point x="1084" y="0"/>
      <point x="1343" y="255"/>
      <point x="1393" y="564" type="curve" smooth="yes"/>
      <point x="1441" y="853"/>
      <point x="1274" y="1025"/>
      <point x="1021" y="1056" type="curve"/>
      <point x="1025" y="1076" type="line"/>
      <point x="1236" y="1152"/>
      <point x="1411" y="1303"/>
      <point x="1449" y="1567" type="curve" smooth="yes"/>
      <point x="1491" y="1870"/>
      <point x="1330" y="2076"/>
      <point x="1027" y="2076" type="curve" smooth="yes"/>
      <point x="732" y="2076"/>
      <point x="476" y="1871"/>
      <point x="420" y="1535" type="curve" smooth="yes"/>
    </contour>
  </outline>
</glyph>
<glyph name="ae" format="2">
  <advance width="2599"/>
  <unicode hex="00E6"/>
  <outline>
    <contour>
      <point x="1689" y="-32" type="curve" smooth="yes"/>
      <point x="1993" y="-32"/>
      <point x="2208" y="145"/>
      <point x="2301" y="300" type="curve"/>
      <point x="2200" y="345" type="line"/>
      <point x="2123" y="231"/>
      <point x="1960" y="81"/>
      <point x="1709" y="81" type="curve" smooth="yes"/>
      <point x="1356" y="81"/>
      <point x="1192" y="369"/>
      <point x="1256" y="755" type="curve" smooth="yes"/>
      <point x="1264" y="805" type="line" smooth="yes"/>
      <point x="1328" y="1161"/>
      <point x="1599" y="1445"/>
      <point x="1904" y="1445" type="curve" smooth="yes"/>
      <point x="2197" y="1445"/>
      <point x="2377" y="1184"/>
      <point x="2323" y="852" type="curve"/>
      <point x="1237" y="852" type="line"/>
      <point x="1219" y="741" type="line"/>
      <point x="2427" y="741" type="line"/>
      <point x="2440" y="817" type="line" smooth="yes"/>
      <point x="2515" y="1272"/>
      <point x="2268" y="1559"/>
      <point x="1924" y="1559" type="curve" smooth="yes"/>
      <point x="1660" y="1559"/>
      <point x="1428" y="1397"/>
      <point x="1285" y="1144" type="curve"/>
      <point x="1141" y="447" type="line"/>
      <point x="1173" y="163"/>
      <point x="1371" y="-32"/>
    </contour>
    <contour>
      <point x="559" y="80" type="curve" smooth="yes"/>
      <point x="344" y="80"/>
      <point x="203" y="209"/>
      <point x="236" y="419" type="curve" smooth="yes"/>
      <point x="269" y="609"/>
      <point x="427" y="711"/>
      <point x="769" y="751" type="curve" smooth="yes"/>
      <point x="920" y="768"/>
      <point x="1107" y="796"/>
      <point x="1179" y="849" type="curve"/>
      <point x="1140" y="623" type="line" smooth="yes"/>
      <point x="1089" y="311"/>
      <point x="847" y="80"/>
    </contour>
    <contour>
      <point x="528" y="-33" type="curve" smooth="yes"/>
      <point x="772" y="-33"/>
      <point x="1043" y="111"/>
      <point x="1173" y="413" type="curve"/>
      <point x="1188" y="413" type="line"/>
      <point x="1340" y="1143" type="line" smooth="yes"/>
      <point x="1355" y="1415"/>
      <point x="1159" y="1559"/>
      <point x="896" y="1559" type="curve" smooth="yes"/>
      <point x="659" y="1559"/>
      <point x="419" y="1452"/>
      <point x="295" y="1231" type="curve"/>
      <point x="401" y="1188" type="line"/>
      <point x="487" y="1340"/>
      <point x="660" y="1447"/>
      <point x="879" y="1447" type="curve" smooth="yes"/>
      <point x="1127" y="1447"/>
      <point x="1255" y="1304"/>
      <point x="1217" y="1081" type="curve" smooth="yes"/>
      <point x="1207" y="1017" type="line" smooth="yes"/>
      <point x="1187" y="900"/>
      <point x="1012" y="887"/>
      <point x="773" y="859" type="curve" smooth="yes"/>
      <point x="356" y="809"/>
      <point x="159" y="679"/>
      <point x="115" y="423" type="curve" smooth="yes"/>
      <point x="69" y="131"/>
      <point x="263" y="-33"/>
    </contour>
  </outline>
</glyph>
<glyph name="eth" format="2">
  <advance width="1647"/>
  <unicode hex="00F0"/>
  <outline>
    <contour>
      <point x="1567" y="1996" type="line"/>
      <point x="1547" y="2099" type="line"/>
      <point x="692" y="1729" type="line"/>
      <point x="708" y="1627" type="line"/>
    </contour>
    <contour>
      <point x="692" y="-32" type="curve" smooth="yes"/>
      <point x="1088" y="-32"/>
      <point x="1397" y="256"/>
      <point x="1479" y="752" type="curve" smooth="yes"/>
      <point x="1593" y="1453"/>
      <point x="1207" y="1944"/>
      <point x="805" y="2176" type="curve"/>
      <point x="740" y="2075" type="line"/>
      <point x="1241" y="1803"/>
      <point x="1393" y="1348"/>
      <point x="1411" y="1092" type="curve"/>
      <point x="1391" y="1092" type="line"/>
      <point x="1355" y="1228"/>
      <point x="1247" y="1439"/>
      <point x="959" y="1451" type="curve" smooth="yes"/>
      <point x="569" y="1481"/>
      <point x="227" y="1153"/>
      <point x="153" y="704" type="curve" smooth="yes"/>
      <point x="85" y="276"/>
      <point x="287" y="-32"/>
    </contour>
    <contour>
      <point x="704" y="100" type="curve" smooth="yes"/>
      <point x="319" y="100"/>
      <point x="229" y="427"/>
      <point x="275" y="704" type="curve" smooth="yes"/>
      <point x="325" y="1000"/>
      <point x="547" y="1333"/>
      <point x="909" y="1335" type="curve" smooth="yes"/>
      <point x="1308" y="1333"/>
      <point x="1375" y="931"/>
      <point x="1336" y="677" type="curve" smooth="yes"/>
      <point x="1287" y="381"/>
      <point x="1063" y="100"/>
    </contour>
  </outline>
</glyph>
<glyph name="divide" format="2">
  <advance width="1813"/>
  <unicode hex="00F7"/>
  <outline>
    <contour>
      <point x="1523" y="859" type="line"/>
      <point x="323" y="859" type="line"/>
      <point x="303" y="741" type="line"/>
      <point x="1503" y="741" type="line"/>
    </contour>
    <contour>
      <point x="827" y="216" type="curve" smooth="yes"/>
      <point x="883" y="216"/>
      <point x="933" y="261"/>
      <point x="937" y="319" type="curve" smooth="yes"/>
      <point x="942" y="380"/>
      <point x="897" y="431"/>
      <point x="837" y="431" type="curve" smooth="yes"/>
      <point x="779" y="431"/>
      <point x="729" y="385"/>
      <point x="725" y="329" type="curve" smooth="yes"/>
      <point x="720" y="266"/>
      <point x="764" y="216"/>
    </contour>
    <contour>
      <point x="985" y="1169" type="curve" smooth="yes"/>
      <point x="1041" y="1169"/>
      <point x="1091" y="1215"/>
      <point x="1096" y="1272" type="curve" smooth="yes"/>
      <point x="1102" y="1333"/>
      <point x="1056" y="1384"/>
      <point x="996" y="1384" type="curve" smooth="yes"/>
      <point x="937" y="1384"/>
      <point x="888" y="1339"/>
      <point x="883" y="1283" type="curve" smooth="yes"/>
      <point x="876" y="1220"/>
      <point x="923" y="1169"/>
    </contour>
  </outline>
</glyph>
<glyph name="oslash" format="2">
  <advance width="1648"/>
  <unicode hex="00F8"/>
  <outline>
    <contour>
      <point x="200" y="-55" type="line"/>
      <point x="1527" y="1528" type="line"/>
      <point x="1448" y="1587" type="line"/>
      <point x="120" y="4" type="line"/>
    </contour>
    <component base="o" yOffset="3"/>
  </outline>
</glyph>
<glyph name="thorn" format="2">
  <advance width="1709"/>
  <unicode hex="00FE"/>
  <outline>
    <contour>
      <point x="460" y="2048" type="line"/>
      <point x="24" y="-576" type="line"/>
      <point x="132" y="-576" type="line"/>
      <point x="276" y="280" type="line"/>
      <point x="364" y="808" type="line"/>
      <point x="416" y="1116" type="line"/>
      <point x="568" y="2048" type="line"/>
    </contour>
    <contour>
      <point x="391" y="1247" type="line"/>
      <point x="231" y="281" type="line"/>
      <point x="299" y="281" type="line"/>
      <point x="339" y="215"/>
      <point x="378" y="-37"/>
      <point x="743" y="-37" type="curve" smooth="yes"/>
      <point x="1151" y="-37"/>
      <point x="1467" y="293"/>
      <point x="1545" y="764" type="curve" smooth="yes"/>
      <point x="1619" y="1217"/>
      <point x="1423" y="1556"/>
      <point x="1000" y="1556" type="curve" smooth="yes"/>
      <point x="634" y="1556"/>
      <point x="519" y="1309"/>
      <point x="459" y="1247" type="curve"/>
    </contour>
    <contour>
      <point x="1421" y="768" type="curve" smooth="yes"/>
      <point x="1358" y="407"/>
      <point x="1133" y="91"/>
      <point x="789" y="92" type="curve" smooth="yes"/>
      <point x="473" y="91"/>
      <point x="311" y="355"/>
      <point x="379" y="768" type="curve" smooth="yes"/>
      <point x="443" y="1173"/>
      <point x="685" y="1429"/>
      <point x="1011" y="1429" type="curve" smooth="yes"/>
      <point x="1359" y="1429"/>
      <point x="1477" y="1124"/>
    </contour>
  </outline>
</glyph>
<glyph name="idotless" format="2">
  <advance width="639"/>
  <unicode hex="0131"/>
  <outline>
    <contour>
      <point x="131" y="0" type="line"/>
      <point x="252" y="0" type="line"/>
      <point x="508" y="1536" type="line"/>
      <point x="387" y="1536" type="line"/>
    </contour>
  </outline>
</glyph>
<glyph name="kgreenlandic" format="2">
  <advance width="1701"/>
  <unicode hex="0138"/>
  <outline>
    <contour>
      <point x="564" y="1488" type="line"/>
      <point x="387" y="1488" type="line"/>
      <point x="139" y="0" type="line"/>
      <point x="316" y="0" type="line"/>
    </contour>
    <contour>
      <point x="1497" y="1488" type="line"/>
      <point x="1299" y="1488" type="line"/>
      <point x="556" y="816" type="line"/>
      <point x="308" y="816" type="line"/>
      <point x="325" y="689" type="line"/>
      <point x="597" y="689" type="line"/>
    </contour>
    <contour>
      <point x="1087" y="0" type="line"/>
      <point x="1307" y="0" type="line"/>
      <point x="605" y="899" type="line"/>
      <point x="523" y="703" type="line"/>
    </contour>
  </outline>
</glyph>
<glyph name="Lslash" format="2">
  <advance width="1541"/>
  <unicode hex="0141"/>
  <outline>
    <contour>
      <point x="771" y="1251" type="line"/>
      <point x="52" y="997" type="line"/>
      <point x="71" y="855" type="line"/>
      <point x="787" y="1111" type="line"/>
    </contour>
    <component base="L" xOffset="-59"/>
  </outline>
</glyph>
<glyph name="lslash" format="2">
  <advance width="603"/>
  <unicode hex="0142"/>
  <outline>
    <contour>
      <point x="673" y="1245" type="line"/>
      <point x="48" y="992" type="line"/>
      <point x="19" y="856" type="line"/>
      <point x="653" y="1109" type="line"/>
    </contour>
    <component base="l"/>
  </outline>
</glyph>
<glyph name="Eng" format="2">
  <advance width="2157"/>
  <unicode hex="014A"/>
  <outline>
    <contour>
      <point x="1581" y="0" type="line"/>
      <point x="1539" y="-208" type="line" smooth="yes"/>
      <point x="1501" y="-386"/>
      <point x="1403" y="-427"/>
      <point x="1284" y="-427" type="curve" smooth="yes"/>
      <point x="1271" y="-427"/>
      <point x="1260" y="-425"/>
      <point x="1253" y="-424" type="curve"/>
      <point x="1235" y="-551" type="line"/>
      <point x="1260" y="-560"/>
      <point x="1308" y="-555"/>
      <point x="1356" y="-555" type="curve" smooth="yes"/>
      <point x="1487" y="-555"/>
      <point x="1644" y="-397"/>
      <point x="1688" y="-220" type="curve" smooth="yes"/>
      <point x="1731" y="0" type="line"/>
    </contour>
    <component base="N"/>
  </outline>
</glyph>
<glyph name="eng" format="2">
  <advance width="1567"/>
  <unicode hex="014B"/>
  <outline>
    <contour>
      <point x="1092" y="0" type="line"/>
      <point x="1053" y="-223" type="line" smooth="yes"/>
      <point x="1023" y="-404"/>
      <point x="904" y="-455"/>
      <point x="768" y="-455" type="curve" smooth="yes"/>
      <point x="753" y="-455"/>
      <point x="733" y="-453"/>
      <point x="724" y="-452" type="curve"/>
      <point x="727" y="-556" type="line"/>
      <point x="737" y="-565"/>
      <point x="776" y="-563"/>
      <point x="808" y="-563" type="curve" smooth="yes"/>
      <point x="961" y="-563"/>
      <point x="1144" y="-415"/>
      <point x="1167" y="-212" type="curve" smooth="yes"/>
      <point x="1200" y="0" type="line"/>
    </contour>
    <component base="n"/>
  </outline>
</glyph>
<glyph name="OE" format="2">
  <advance width="2620"/>
  <unicode hex="0152"/>
  <note>
!post:RemoveOverlap
</note>
  <outline>
    <contour>
      <point x="924" y="0" type="curve" smooth="yes"/>
      <point x="1184" y="0" type="line"/>
      <point x="1205" y="116" type="line"/>
      <point x="945" y="116" type="line" smooth="yes"/>
      <point x="492" y="116"/>
      <point x="260" y="479"/>
      <point x="352" y="1024" type="curve" smooth="yes"/>
      <point x="443" y="1567"/>
      <point x="804" y="1935"/>
      <point x="1244" y="1932" type="curve" smooth="yes"/>
      <point x="1504" y="1932" type="line"/>
      <point x="1524" y="2048" type="line"/>
      <point x="1264" y="2048" type="line" smooth="yes"/>
      <point x="743" y="2048"/>
      <point x="331" y="1641"/>
      <point x="229" y="1024" type="curve" smooth="yes"/>
      <point x="129" y="415"/>
      <point x="409" y="0"/>
    </contour>
    <component base="E" xOffset="961"/>
  </outline>
</glyph>
<glyph name="tbar" format="2">
  <advance width="995"/>
  <unicode hex="0167"/>
  <outline>
    <contour>
      <point x="131" y="888" type="line"/>
      <point x="841" y="888" type="line"/>
      <point x="871" y="1059" type="line"/>
      <point x="163" y="1059" type="line"/>
    </contour>
    <component base="t"/>
  </outline>
</glyph>
<glyph name="longs" format="2">
  <advance width="711"/>
  <unicode hex="017F"/>
  <outline>
    <contour>
      <point x="111" y="0" type="line"/>
      <point x="388" y="1659" type="line"/>
      <point x="419" y="1867"/>
      <point x="537" y="1997"/>
      <point x="715" y="1997" type="curve" smooth="yes"/>
      <point x="753" y="1997"/>
      <point x="797" y="1993"/>
      <point x="820" y="1985" type="curve"/>
      <point x="875" y="2112" type="line"/>
      <point x="818" y="2128"/>
      <point x="759" y="2140"/>
      <point x="701" y="2140" type="curve" smooth="yes"/>
      <point x="449" y="2140"/>
      <point x="257" y="1969"/>
      <point x="208" y="1659" type="curve"/>
      <point x="-67" y="0" type="line"/>
    </contour>
  </outline>
</glyph>
<glyph name="Bhook" format="2">
  <advance width="2141"/>
  <unicode hex="0181"/>
  <outline>
    <contour>
      <point x="776" y="1919" type="line"/>
      <point x="799" y="2048" type="line"/>
      <point x="663" y="2048" type="line" smooth="yes"/>
      <point x="466" y="2048"/>
      <point x="340" y="1880"/>
      <point x="320" y="1720" type="curve" smooth="yes"/>
      <point x="308" y="1627" type="line"/>
      <point x="436" y="1627" type="line"/>
      <point x="443" y="1676" type="line" smooth="yes"/>
      <point x="463" y="1805"/>
      <point x="492" y="1917"/>
      <point x="647" y="1919" type="curve" smooth="yes"/>
    </contour>
    <component base="B" xOffset="329"/>
  </outline>
</glyph>
<glyph name="Btopbar" format="2">
  <advance width="1837"/>
  <unicode hex="0182"/>
  <outline>
    <contour>
      <point x="168" y="0" type="line"/>
      <point x="936" y="0" type="line" smooth="yes"/>
      <point x="1346" y="0"/>
      <point x="1584" y="235"/>
      <point x="1639" y="572" type="curve" smooth="yes"/>
      <point x="1695" y="905"/>
      <point x="1533" y="1119"/>
      <point x="1119" y="1119" type="curve" smooth="yes"/>
      <point x="476" y="1119" type="line"/>
      <point x="611" y="1919" type="line"/>
      <point x="1641" y="1919" type="line"/>
      <point x="1661" y="2048" type="line"/>
      <point x="508" y="2048" type="line"/>
    </contour>
    <contour>
      <point x="313" y="128" type="line"/>
      <point x="453" y="981" type="line"/>
      <point x="1099" y="981" type="line" smooth="yes"/>
      <point x="1411" y="981"/>
      <point x="1555" y="793"/>
      <point x="1517" y="576" type="curve" smooth="yes"/>
      <point x="1482" y="353"/>
      <point x="1270" y="128"/>
      <point x="959" y="128" type="curve" smooth="yes"/>
    </contour>
  </outline>
</glyph>
<glyph name="btopbar" format="2">
  <advance width="1705"/>
  <unicode hex="0183"/>
  <note>
!post:RemoveOverlap
</note>
  <outline>
    <contour>
      <point x="1575" y="2048" type="line"/>
      <point x="597" y="2048" type="line"/>
      <point x="576" y="1932" type="line"/>
      <point x="1555" y="1932" type="line"/>
    </contour>
    <component base="b"/>
  </outline>
</glyph>
<glyph name="Tonesix" format="2">
  <advance width="1881"/>
  <unicode hex="0184"/>
  <outline>
    <contour>
      <point x="880" y="2048" type="line"/>
      <point x="235" y="2048" type="line"/>
      <point x="215" y="1919" type="line"/>
      <point x="860" y="1919" type="line"/>
    </contour>
    <contour>
      <point x="672" y="1119" type="line"/>
      <point x="649" y="981" type="line"/>
      <point x="1297" y="981" type="line"/>
      <point x="1609" y="981"/>
      <point x="1751" y="793"/>
      <point x="1716" y="576" type="curve"/>
      <point x="1681" y="353"/>
      <point x="1469" y="128"/>
      <point x="1157" y="128" type="curve"/>
      <point x="512" y="128" type="line"/>
      <point x="832" y="2048" type="line"/>
      <point x="707" y="2048" type="line"/>
      <point x="367" y="0" type="line"/>
      <point x="1135" y="0" type="line"/>
      <point x="1545" y="0"/>
      <point x="1781" y="235"/>
      <point x="1837" y="572" type="curve"/>
      <point x="1894" y="905"/>
      <point x="1729" y="1119"/>
      <point x="1320" y="1119" type="curve"/>
    </contour>
  </outline>
</glyph>
<glyph name="tonesix" format="2">
  <advance width="1705"/>
  <unicode hex="0185"/>
  <outline>
    <contour>
      <point x="523" y="2112" type="line"/>
      <point x="272" y="1803" type="line"/>
      <point x="263" y="1752" type="line"/>
      <point x="411" y="1440" type="line"/>
      <point x="472" y="1440" type="line"/>
      <point x="584" y="2112" type="line"/>
    </contour>
    <contour>
      <point x="480" y="1247" type="line"/>
      <point x="320" y="281" type="line"/>
      <point x="388" y="281" type="line"/>
      <point x="431" y="213"/>
      <point x="473" y="-37"/>
      <point x="832" y="-37" type="curve" smooth="yes"/>
      <point x="1241" y="-37"/>
      <point x="1557" y="293"/>
      <point x="1635" y="764" type="curve" smooth="yes"/>
      <point x="1709" y="1217"/>
      <point x="1513" y="1556"/>
      <point x="1089" y="1556" type="curve" smooth="yes"/>
      <point x="713" y="1556"/>
      <point x="607" y="1305"/>
      <point x="548" y="1247" type="curve"/>
    </contour>
    <contour>
      <point x="1511" y="768" type="curve" smooth="yes"/>
      <point x="1448" y="405"/>
      <point x="1223" y="91"/>
      <point x="879" y="92" type="curve" smooth="yes"/>
      <point x="563" y="91"/>
      <point x="401" y="355"/>
      <point x="468" y="768" type="curve" smooth="yes"/>
      <point x="533" y="1175"/>
      <point x="776" y="1429"/>
      <point x="1100" y="1429" type="curve" smooth="yes"/>
      <point x="1449" y="1429"/>
      <point x="1567" y="1125"/>
    </contour>
    <contour>
      <point x="547" y="2048" type="line"/>
      <point x="207" y="0" type="line"/>
      <point x="307" y="0" type="line"/>
      <point x="355" y="280" type="line"/>
      <point x="423" y="808" type="line"/>
      <point x="503" y="1116" type="line"/>
      <point x="657" y="2048" type="line"/>
    </contour>
  </outline>
</glyph>
<glyph name="Oopen" format="2">
  <advance width="2001"/>
  <unicode hex="0186"/>
  <outline>
    <contour>
      <point x="823" y="-28" type="curve" smooth="yes"/>
      <point x="1325" y="-28"/>
      <point x="1753" y="383"/>
      <point x="1860" y="1011" type="curve"/>
      <point x="1959" y="1649"/>
      <point x="1667" y="2076"/>
      <point x="1147" y="2076" type="curve" smooth="yes"/>
      <point x="784" y="2076"/>
      <point x="430" y="1844"/>
      <point x="275" y="1459" type="curve"/>
      <point x="400" y="1459" type="line"/>
      <point x="531" y="1781"/>
      <point x="859" y="1945"/>
      <point x="1159" y="1945" type="curve" smooth="yes"/>
      <point x="1564" y="1945"/>
      <point x="1853" y="1633"/>
      <point x="1756" y="1037" type="curve"/>
      <point x="1655" y="436"/>
      <point x="1249" y="103"/>
      <point x="828" y="103" type="curve" smooth="yes"/>
      <point x="536" y="103"/>
      <point x="277" y="271"/>
      <point x="260" y="600" type="curve"/>
      <point x="137" y="600" type="line"/>
      <point x="155" y="151"/>
      <point x="481" y="-28"/>
    </contour>
  </outline>
</glyph>
<glyph name="Chook" format="2">
  <advance width="2051"/>
  <unicode hex="0187"/>
  <outline>
    <contour>
      <point x="1952" y="1459" type="line"/>
      <point x="2007" y="1771" type="line" smooth="yes"/>
      <point x="2032" y="1909"/>
      <point x="2095" y="1947"/>
      <point x="2220" y="1947" type="curve"/>
      <point x="2247" y="1947"/>
      <point x="2254" y="1943"/>
      <point x="2267" y="1939" type="curve"/>
      <point x="2283" y="2043" type="line"/>
      <point x="2272" y="2053"/>
      <point x="2226" y="2053"/>
      <point x="2196" y="2055" type="curve" smooth="yes"/>
      <point x="2038" y="2053"/>
      <point x="1920" y="1935"/>
      <point x="1883" y="1736" type="curve" smooth="yes"/>
      <point x="1836" y="1459" type="line"/>
    </contour>
    <component base="C"/>
  </outline>
</glyph>
<glyph name="chook" format="2">
  <advance width="1659"/>
  <unicode hex="0188"/>
  <outline>
    <contour>
      <point x="1437" y="1148" type="line"/>
      <point x="1457" y="1265" type="line" smooth="yes"/>
      <point x="1488" y="1441"/>
      <point x="1615" y="1572"/>
      <point x="1759" y="1572" type="curve" smooth="yes"/>
      <point x="1782" y="1572"/>
      <point x="1801" y="1571"/>
      <point x="1821" y="1569" type="curve"/>
      <point x="1840" y="1679" type="line"/>
      <point x="1816" y="1683"/>
      <point x="1774" y="1683"/>
      <point x="1759" y="1683" type="curve" smooth="yes"/>
      <point x="1545" y="1683"/>
      <point x="1376" y="1486"/>
      <point x="1336" y="1265" type="curve" smooth="yes"/>
      <point x="1316" y="1148" type="line"/>
    </contour>
    <component base="c"/>
  </outline>
</glyph>
<glyph name="Dhook" format="2">
  <advance width="2357"/>
  <unicode hex="018A"/>
  <outline>
    <contour>
      <point x="308" y="1627" type="line"/>
      <point x="436" y="1627" type="line"/>
      <point x="443" y="1676" type="line" smooth="yes"/>
      <point x="463" y="1805"/>
      <point x="494" y="1929"/>
      <point x="652" y="1929" type="curve" smooth="yes"/>
      <point x="779" y="1929" type="line"/>
      <point x="799" y="2048" type="line"/>
      <point x="663" y="2048" type="line" smooth="yes"/>
      <point x="465" y="2048"/>
      <point x="338" y="1879"/>
      <point x="320" y="1720" type="curve" smooth="yes"/>
    </contour>
    <component base="D" xOffset="351"/>
  </outline>
</glyph>
<glyph name="Dtopbar" format="2">
  <advance width="1701"/>
  <unicode hex="018B"/>
  <outline>
    <contour>
      <point x="1412" y="0" type="line"/>
      <point x="1739" y="1980" type="line"/>
      <point x="589" y="1980" type="line"/>
      <point x="567" y="1831" type="line"/>
      <point x="1533" y="1831" type="line"/>
      <point x="1416" y="1132" type="line"/>
      <point x="835" y="1132" type="line" smooth="yes"/>
      <point x="425" y="1131"/>
      <point x="185" y="907"/>
      <point x="128" y="572" type="curve" smooth="yes"/>
      <point x="69" y="233"/>
      <point x="237" y="0"/>
      <point x="648" y="0" type="curve" smooth="yes"/>
    </contour>
    <contour>
      <point x="1256" y="148" type="line"/>
      <point x="675" y="148" type="line" smooth="yes"/>
      <point x="357" y="148"/>
      <point x="280" y="353"/>
      <point x="315" y="576" type="curve" smooth="yes"/>
      <point x="351" y="793"/>
      <point x="492" y="975"/>
      <point x="808" y="975" type="curve" smooth="yes"/>
      <point x="1389" y="975" type="line"/>
    </contour>
  </outline>
</glyph>
<glyph name="deltaturn" format="2">
  <advance width="1304"/>
  <unicode hex="018D"/>
  <outline>
    <contour>
      <point x="867" y="-516" type="line"/>
      <point x="892" y="-387" type="line"/>
      <point x="761" y="-200"/>
      <point x="615" y="-83"/>
      <point x="464" y="95" type="curve"/>
      <point x="482" y="93"/>
      <point x="469" y="93"/>
      <point x="516" y="99" type="curve" smooth="yes"/>
      <point x="963" y="145"/>
      <point x="1225" y="428"/>
      <point x="1276" y="724" type="curve" smooth="yes"/>
      <point x="1280" y="752" type="line" smooth="yes"/>
      <point x="1349" y="1184"/>
      <point x="1166" y="1516"/>
      <point x="775" y="1516" type="curve" smooth="yes"/>
      <point x="385" y="1516"/>
      <point x="99" y="1199"/>
      <point x="31" y="784" type="curve" smooth="yes"/>
      <point x="27" y="756" type="line" smooth="yes"/>
      <point x="-27" y="435"/>
      <point x="149" y="199"/>
      <point x="408" y="-80" type="curve" smooth="yes"/>
      <point x="469" y="-143"/>
      <point x="619" y="-333"/>
      <point x="641" y="-384" type="curve"/>
      <point x="12" y="-384" type="line"/>
      <point x="-11" y="-516" type="line"/>
    </contour>
    <contour>
      <point x="1101" y="756" type="line"/>
      <point x="1055" y="487"/>
      <point x="853" y="237"/>
      <point x="527" y="237" type="curve" smooth="yes"/>
      <point x="465" y="237"/>
      <point x="426" y="243"/>
      <point x="384" y="256" type="curve"/>
      <point x="265" y="351"/>
      <point x="165" y="533"/>
      <point x="203" y="756" type="curve" smooth="yes"/>
      <point x="207" y="784" type="line" smooth="yes"/>
      <point x="255" y="1103"/>
      <point x="453" y="1373"/>
      <point x="752" y="1373" type="curve" smooth="yes"/>
      <point x="1050" y="1373"/>
      <point x="1157" y="1113"/>
      <point x="1105" y="784" type="curve" smooth="yes"/>
    </contour>
  </outline>
</glyph>
<glyph name="Schwa" format="2">
  <advance width="1952"/>
  <unicode hex="018F"/>
  <outline>
    <contour>
      <point x="841" y="-28" type="curve" smooth="yes"/>
      <point x="1275" y="-28"/>
      <point x="1703" y="381"/>
      <point x="1804" y="975" type="curve" smooth="yes"/>
      <point x="1813" y="1024" type="line" smooth="yes"/>
      <point x="1911" y="1615"/>
      <point x="1665" y="2032"/>
      <point x="1112" y="2032" type="curve" smooth="yes"/>
      <point x="787" y="2032"/>
      <point x="650" y="1923"/>
      <point x="592" y="1884" type="curve"/>
      <point x="640" y="1775" type="line"/>
      <point x="741" y="1825"/>
      <point x="885" y="1895"/>
      <point x="1108" y="1895" type="curve" smooth="yes"/>
      <point x="1565" y="1895"/>
      <point x="1703" y="1511"/>
      <point x="1624" y="1024" type="curve" smooth="yes"/>
      <point x="1615" y="975" type="line" smooth="yes"/>
      <point x="1534" y="492"/>
      <point x="1247" y="105"/>
      <point x="865" y="105" type="curve" smooth="yes"/>
      <point x="407" y="105"/>
      <point x="317" y="428"/>
      <point x="380" y="839" type="curve" smooth="yes"/>
      <point x="388" y="883" type="line"/>
      <point x="1708" y="883" type="line"/>
      <point x="1728" y="1008" type="line"/>
      <point x="228" y="1008" type="line"/>
      <point x="205" y="876" type="line" smooth="yes"/>
      <point x="115" y="321"/>
      <point x="317" y="-28"/>
    </contour>
  </outline>
</glyph>
<glyph name="Epsilon1" format="2">
  <advance width="1703"/>
  <unicode hex="0190"/>
  <outline>
    <contour>
      <point x="1093" y="960" type="line"/>
      <point x="1116" y="1101" type="line"/>
      <point x="908" y="1101" type="line" smooth="yes"/>
      <point x="557" y="1101"/>
      <point x="465" y="1267"/>
      <point x="500" y="1475" type="curve" smooth="yes"/>
      <point x="537" y="1699"/>
      <point x="713" y="1880"/>
      <point x="1061" y="1880" type="curve" smooth="yes"/>
      <point x="1321" y="1880"/>
      <point x="1479" y="1708"/>
      <point x="1443" y="1491" type="curve"/>
      <point x="1628" y="1491" type="line"/>
      <point x="1685" y="1823"/>
      <point x="1429" y="2032"/>
      <point x="1084" y="2032" type="curve" smooth="yes"/>
      <point x="675" y="2032"/>
      <point x="376" y="1832"/>
      <point x="317" y="1460" type="curve" smooth="yes"/>
      <point x="264" y="1137"/>
      <point x="508" y="960"/>
      <point x="915" y="960" type="curve"/>
    </contour>
    <contour>
      <point x="935" y="1080" type="line"/>
      <point x="485" y="1080"/>
      <point x="188" y="896"/>
      <point x="133" y="560" type="curve" smooth="yes"/>
      <point x="63" y="131"/>
      <point x="353" y="-28"/>
      <point x="744" y="-28" type="curve" smooth="yes"/>
      <point x="1067" y="-28"/>
      <point x="1431" y="148"/>
      <point x="1499" y="556" type="curve"/>
      <point x="1319" y="556" type="line"/>
      <point x="1279" y="321"/>
      <point x="1059" y="120"/>
      <point x="764" y="120" type="curve" smooth="yes"/>
      <point x="439" y="120"/>
      <point x="269" y="265"/>
      <point x="320" y="548" type="curve" smooth="yes"/>
      <point x="361" y="809"/>
      <point x="548" y="943"/>
      <point x="885" y="943" type="curve" smooth="yes"/>
      <point x="1091" y="943" type="line"/>
      <point x="1113" y="1080" type="line"/>
    </contour>
  </outline>
</glyph>
<glyph name="Fhook" format="2">
  <advance width="1604"/>
  <unicode hex="0191"/>
  <outline>
    <contour>
      <point x="123" y="0" type="line"/>
      <point x="91" y="-208" type="line" smooth="yes"/>
      <point x="63" y="-389"/>
      <point x="-33" y="-461"/>
      <point x="-173" y="-461" type="curve" smooth="yes"/>
      <point x="-204" y="-461"/>
      <point x="-216" y="-460"/>
      <point x="-233" y="-451" type="curve"/>
      <point x="-273" y="-556" type="line"/>
      <point x="-244" y="-571"/>
      <point x="-221" y="-573"/>
      <point x="-187" y="-573" type="curve" smooth="yes"/>
      <point x="32" y="-573"/>
      <point x="176" y="-448"/>
      <point x="215" y="-209" type="curve" smooth="yes"/>
      <point x="248" y="0" type="line"/>
    </contour>
    <component base="F" xOffset="-45"/>
  </outline>
</glyph>
<glyph name="florin" format="2">
  <advance width="933"/>
  <unicode hex="0192"/>
  <outline>
    <contour>
      <point x="888" y="1488" type="line"/>
      <point x="619" y="1488" type="line"/>
      <point x="648" y="1659" type="line" smooth="yes"/>
      <point x="679" y="1867"/>
      <point x="787" y="1971"/>
      <point x="968" y="1971" type="curve" smooth="yes"/>
      <point x="1004" y="1971"/>
      <point x="1040" y="1961"/>
      <point x="1057" y="1955" type="curve"/>
      <point x="1156" y="2099" type="line"/>
      <point x="1119" y="2123"/>
      <point x="999" y="2140"/>
      <point x="931" y="2140" type="curve" smooth="yes"/>
      <point x="747" y="2140"/>
      <point x="557" y="1969"/>
      <point x="509" y="1659" type="curve" smooth="yes"/>
      <point x="483" y="1488" type="line"/>
      <point x="224" y="1488" type="line"/>
      <point x="196" y="1351" type="line"/>
      <point x="455" y="1351" type="line"/>
      <point x="207" y="-167" type="line" smooth="yes"/>
      <point x="173" y="-349"/>
      <point x="47" y="-457"/>
      <point x="-49" y="-457" type="curve" smooth="yes"/>
      <point x="-65" y="-457"/>
      <point x="-159" y="-455"/>
      <point x="-184" y="-441" type="curve"/>
      <point x="-227" y="-580" type="line"/>
      <point x="-191" y="-596"/>
      <point x="-156" y="-600"/>
      <point x="-109" y="-600" type="curve" smooth="yes"/>
      <point x="139" y="-600"/>
      <point x="295" y="-447"/>
      <point x="343" y="-167" type="curve" smooth="yes"/>
      <point x="593" y="1351" type="line"/>
      <point x="860" y="1351" type="line"/>
    </contour>
  </outline>
</glyph>
<glyph name="Ghook" format="2">
  <advance width="2059"/>
  <unicode hex="0193"/>
  <outline>
    <contour>
      <point x="1956" y="1424" type="line"/>
      <point x="1979" y="1576" type="line" smooth="yes"/>
      <point x="2006" y="1729"/>
      <point x="2091" y="1787"/>
      <point x="2215" y="1787" type="curve" smooth="yes"/>
      <point x="2231" y="1787"/>
      <point x="2252" y="1785"/>
      <point x="2257" y="1781" type="curve"/>
      <point x="2273" y="1888" type="line"/>
      <point x="2263" y="1897"/>
      <point x="2219" y="1892"/>
      <point x="2184" y="1892" type="curve" smooth="yes"/>
      <point x="1981" y="1892"/>
      <point x="1928" y="1776"/>
      <point x="1872" y="1576" type="curve" smooth="yes"/>
      <point x="1829" y="1424" type="line"/>
    </contour>
    <component base="G"/>
  </outline>
</glyph>
<glyph name="Gamma1" format="2">
  <advance width="1561"/>
  <unicode hex="0194"/>
  <outline>
    <contour>
      <point x="187" y="2072" type="line"/>
      <point x="647" y="151" type="line" smooth="yes"/>
      <point x="713" y="-124"/>
      <point x="759" y="-241"/>
      <point x="748" y="-323" type="curve" smooth="yes"/>
      <point x="739" y="-375"/>
      <point x="661" y="-427"/>
      <point x="585" y="-427" type="curve" smooth="yes"/>
      <point x="507" y="-427"/>
      <point x="447" y="-377"/>
      <point x="455" y="-323" type="curve" smooth="yes"/>
      <point x="465" y="-245"/>
      <point x="564" y="-115"/>
      <point x="720" y="151" type="curve" smooth="yes"/>
      <point x="1811" y="2072" type="line"/>
      <point x="1692" y="2072" type="line"/>
      <point x="577" y="191" type="line" smooth="yes"/>
      <point x="381" y="-148"/>
      <point x="347" y="-175"/>
      <point x="323" y="-312" type="curve" smooth="yes"/>
      <point x="293" y="-475"/>
      <point x="348" y="-600"/>
      <point x="553" y="-600" type="curve" smooth="yes"/>
      <point x="757" y="-600"/>
      <point x="860" y="-475"/>
      <point x="891" y="-312" type="curve" smooth="yes"/>
      <point x="908" y="-187"/>
      <point x="861" y="-151"/>
      <point x="775" y="191" type="curve" smooth="yes"/>
      <point x="305" y="2072" type="line"/>
    </contour>
  </outline>
</glyph>
<glyph name="hv" format="2">
  <advance width="2593"/>
  <unicode hex="0195"/>
  <note>
Note: Must be split in two, or conversion to quadratic curves will fail.
</note>
  <outline>
    <contour>
      <point x="117" y="0" type="line"/>
      <point x="228" y="0" type="line"/>
      <point x="383" y="948" type="line" smooth="yes"/>
      <point x="439" y="1263"/>
      <point x="671" y="1439"/>
      <point x="944" y="1440" type="curve" smooth="yes"/>
      <point x="1194" y="1439"/>
      <point x="1325" y="1279"/>
      <point x="1279" y="1000" type="curve" smooth="yes"/>
      <point x="1241" y="768" type="line"/>
      <point x="1352" y="768" type="line"/>
      <point x="1388" y="976" type="line" smooth="yes"/>
      <point x="1454" y="1395"/>
      <point x="1271" y="1556"/>
      <point x="963" y="1556" type="curve" smooth="yes"/>
      <point x="713" y="1556"/>
      <point x="569" y="1463"/>
      <point x="475" y="1317" type="curve"/>
      <point x="455" y="1317" type="line"/>
      <point x="576" y="2048" type="line"/>
      <point x="457" y="2048" type="line"/>
    </contour>
    <contour>
      <point x="1549" y="-28" type="curve" smooth="yes"/>
      <point x="1861" y="-28"/>
      <point x="2272" y="329"/>
      <point x="2436" y="1304" type="curve"/>
      <point x="2475" y="1536" type="line"/>
      <point x="2367" y="1536" type="line"/>
      <point x="2325" y="1304" type="line" smooth="yes"/>
      <point x="2169" y="357"/>
      <point x="1841" y="84"/>
      <point x="1585" y="84" type="curve" smooth="yes"/>
      <point x="1457" y="84"/>
      <point x="1246" y="153"/>
      <point x="1324" y="616" type="curve"/>
      <point x="1352" y="768" type="line"/>
      <point x="1241" y="768" type="line"/>
      <point x="1213" y="616" type="line" smooth="yes"/>
      <point x="1137" y="139"/>
      <point x="1337" y="-28"/>
    </contour>
  </outline>
</glyph>
<glyph name="Iota1" format="2">
  <advance width="951"/>
  <unicode hex="0196"/>
  <outline>
    <contour>
      <point x="583" y="2112" type="line"/>
      <point x="405" y="2112" type="line"/>
      <point x="131" y="456" type="line" smooth="yes"/>
      <point x="81" y="147"/>
      <point x="207" y="-28"/>
      <point x="461" y="-28" type="curve" smooth="yes"/>
      <point x="518" y="-28"/>
      <point x="585" y="-16"/>
      <point x="643" y="0" type="curve"/>
      <point x="633" y="131" type="line"/>
      <point x="601" y="123"/>
      <point x="557" y="113"/>
      <point x="520" y="115" type="curve" smooth="yes"/>
      <point x="342" y="113"/>
      <point x="275" y="249"/>
      <point x="308" y="456" type="curve" smooth="yes"/>
    </contour>
  </outline>
</glyph>
<glyph name="Khook" format="2">
  <advance width="1785"/>
  <unicode hex="0198"/>
  <outline>
    <contour>
      <point x="168" y="0" type="line"/>
      <point x="291" y="0" type="line"/>
      <point x="419" y="755" type="line"/>
      <point x="731" y="1056" type="line"/>
      <point x="1336" y="0" type="line"/>
      <point x="1492" y="0" type="line"/>
      <point x="812" y="1140" type="line"/>
      <point x="1580" y="1851" type="line" smooth="yes"/>
      <point x="1708" y="1970"/>
      <point x="1811" y="1957"/>
      <point x="1871" y="1903" type="curve"/>
      <point x="1963" y="2007" type="line"/>
      <point x="1879" y="2097"/>
      <point x="1693" y="2109"/>
      <point x="1543" y="1963" type="curve" smooth="yes"/>
      <point x="471" y="944" type="line"/>
      <point x="449" y="944" type="line"/>
      <point x="631" y="2048" type="line"/>
      <point x="508" y="2048" type="line"/>
    </contour>
  </outline>
</glyph>
<glyph name="khook" format="2">
  <advance width="1417"/>
  <unicode hex="0199"/>
  <outline>
    <contour>
      <point x="1067" y="0" type="line"/>
      <point x="1228" y="0" type="line"/>
      <point x="673" y="880" type="line"/>
      <point x="1401" y="1536" type="line"/>
      <point x="1232" y="1536" type="line"/>
      <point x="372" y="743" type="line"/>
      <point x="352" y="743" type="line"/>
      <point x="503" y="1672" type="line"/>
      <point x="395" y="1672" type="line"/>
      <point x="120" y="0" type="line"/>
      <point x="228" y="0" type="line"/>
      <point x="323" y="572" type="line"/>
      <point x="572" y="796" type="line"/>
    </contour>
    <contour>
      <point x="488" y="1547" type="line"/>
      <point x="512" y="1712" type="line" smooth="yes"/>
      <point x="545" y="1897"/>
      <point x="643" y="1957"/>
      <point x="785" y="1957" type="curve" smooth="yes"/>
      <point x="807" y="1957"/>
      <point x="831" y="1953"/>
      <point x="836" y="1949" type="curve"/>
      <point x="861" y="2067" type="line"/>
      <point x="834" y="2081"/>
      <point x="798" y="2076"/>
      <point x="779" y="2076" type="curve" smooth="yes"/>
      <point x="577" y="2076"/>
      <point x="431" y="1887"/>
      <point x="404" y="1712" type="curve" smooth="yes"/>
      <point x="377" y="1547" type="line"/>
    </contour>
  </outline>
</glyph>
<glyph name="lambdabar" format="2">
  <advance width="1705"/>
  <unicode hex="019B"/>
  <outline>
    <contour>
      <point x="1047" y="1995" type="line"/>
      <point x="412" y="1732" type="line"/>
      <point x="381" y="1527" type="line"/>
      <point x="1012" y="1783" type="line"/>
    </contour>
    <contour>
      <point x="868" y="1192" type="line"/>
      <point x="979" y="1488" type="line"/>
      <point x="860" y="1508" type="line"/>
      <point x="27" y="0" type="line"/>
      <point x="232" y="0" type="line"/>
    </contour>
    <contour>
      <point x="629" y="2059" type="curve"/>
      <point x="603" y="2059"/>
      <point x="553" y="2053"/>
      <point x="556" y="2051" type="curve"/>
      <point x="525" y="1915" type="line"/>
      <point x="535" y="1917"/>
      <point x="569" y="1917"/>
      <point x="583" y="1919" type="curve" smooth="yes"/>
      <point x="631" y="1917"/>
      <point x="663" y="1896"/>
      <point x="691" y="1785" type="curve" smooth="yes"/>
      <point x="784" y="1363" type="line"/>
      <point x="1049" y="231" type="line" smooth="yes"/>
      <point x="1108" y="-52"/>
      <point x="1177" y="-23"/>
      <point x="1296" y="-24" type="curve" smooth="yes"/>
      <point x="1327" y="-23"/>
      <point x="1369" y="-9"/>
      <point x="1379" y="0" type="curve"/>
      <point x="1388" y="145" type="line"/>
      <point x="1375" y="145"/>
      <point x="1353" y="145"/>
      <point x="1340" y="145" type="curve" smooth="yes"/>
      <point x="1291" y="145"/>
      <point x="1263" y="133"/>
      <point x="1243" y="231" type="curve" smooth="yes"/>
      <point x="904" y="1839" type="line" smooth="yes"/>
      <point x="876" y="1977"/>
      <point x="831" y="2059"/>
    </contour>
  </outline>
</glyph>
<glyph name="mcapturn" format="2">
  <advance width="2449"/>
  <unicode hex="019C"/>
  <outline>
    <contour>
      <point x="1956" y="252" type="line"/>
      <point x="1907" y="0" type="line"/>
      <point x="2087" y="0" type="line"/>
      <point x="2419" y="2004" type="line"/>
      <point x="2248" y="2004" type="line"/>
    </contour>
    <contour>
      <point x="2031" y="692" type="line"/>
      <point x="1975" y="376"/>
      <point x="1825" y="127"/>
      <point x="1495" y="128" type="curve" smooth="yes"/>
      <point x="1365" y="127"/>
      <point x="1223" y="208"/>
      <point x="1287" y="624" type="curve"/>
      <point x="1519" y="2004" type="line"/>
      <point x="1343" y="2004" type="line"/>
      <point x="1111" y="624" type="line"/>
      <point x="1033" y="125"/>
      <point x="1199" y="-28"/>
      <point x="1479" y="-28" type="curve" smooth="yes"/>
      <point x="1901" y="-28"/>
      <point x="2088" y="280"/>
      <point x="2156" y="696" type="curve"/>
    </contour>
    <contour>
      <point x="1132" y="692" type="line"/>
      <point x="1077" y="377"/>
      <point x="920" y="127"/>
      <point x="589" y="128" type="curve" smooth="yes"/>
      <point x="461" y="127"/>
      <point x="323" y="208"/>
      <point x="388" y="624" type="curve" smooth="yes"/>
      <point x="620" y="2004" type="line"/>
      <point x="437" y="2004" type="line"/>
      <point x="208" y="624" type="line" smooth="yes"/>
      <point x="129" y="129"/>
      <point x="305" y="-28"/>
      <point x="576" y="-28" type="curve" smooth="yes"/>
      <point x="991" y="-28"/>
      <point x="1187" y="285"/>
      <point x="1255" y="696" type="curve"/>
    </contour>
  </outline>
</glyph>
<glyph name="Nhook" format="2">
  <advance width="2187"/>
  <unicode hex="019D"/>
  <outline>
    <contour>
      <point x="199" y="0" type="line"/>
      <point x="163" y="-205" type="line" smooth="yes"/>
      <point x="128" y="-391"/>
      <point x="32" y="-451"/>
      <point x="-111" y="-451" type="curve"/>
      <point x="-136" y="-451"/>
      <point x="-158" y="-444"/>
      <point x="-181" y="-440" type="curve"/>
      <point x="-200" y="-564" type="line"/>
      <point x="-158" y="-572"/>
      <point x="-128" y="-581"/>
      <point x="-63" y="-583" type="curve"/>
      <point x="134" y="-581"/>
      <point x="235" y="-414"/>
      <point x="284" y="-212" type="curve" smooth="yes"/>
      <point x="324" y="0" type="line"/>
    </contour>
    <component base="N" xOffset="33"/>
  </outline>
</glyph>
<glyph name="Ohorn" format="2">
  <advance width="2107"/>
  <unicode hex="01A0"/>
  <outline>
    <contour>
      <point x="2099" y="2228" type="line"/>
      <point x="2062" y="2007"/>
      <point x="1928" y="1877"/>
      <point x="1712" y="1879" type="curve"/>
      <point x="1683" y="1699" type="line"/>
      <point x="2029" y="1697"/>
      <point x="2253" y="1887"/>
      <point x="2311" y="2228" type="curve"/>
    </contour>
    <component base="O"/>
  </outline>
</glyph>
<glyph name="ohorn" format="2">
  <advance width="1625"/>
  <unicode hex="01A1"/>
  <outline>
    <contour>
      <point x="1575" y="1671" type="line"/>
      <point x="1539" y="1495"/>
      <point x="1503" y="1367"/>
      <point x="1312" y="1367" type="curve"/>
      <point x="1287" y="1201" type="line"/>
      <point x="1599" y="1201"/>
      <point x="1722" y="1388"/>
      <point x="1771" y="1671" type="curve"/>
    </contour>
    <component base="o"/>
  </outline>
</glyph>
<glyph name="OI" format="2">
  <advance width="2065"/>
  <unicode hex="01A2"/>
  <outline>
    <contour>
      <point x="1600" y="888" type="line"/>
      <point x="1427" y="888" type="line"/>
      <point x="1323" y="296" type="line"/>
      <point x="1261" y="229"/>
      <point x="1146" y="120"/>
      <point x="820" y="120" type="curve" smooth="yes"/>
      <point x="419" y="120"/>
      <point x="250" y="441"/>
      <point x="331" y="927" type="curve" smooth="yes"/>
      <point x="351" y="1080" type="line"/>
      <point x="176" y="1076" type="line"/>
      <point x="151" y="927" type="line" smooth="yes"/>
      <point x="46" y="299"/>
      <point x="343" y="-28"/>
      <point x="796" y="-28" type="curve" smooth="yes"/>
      <point x="1254" y="-28"/>
      <point x="1422" y="171"/>
      <point x="1495" y="283" type="curve"/>
    </contour>
    <contour>
      <point x="1736" y="1721" type="line"/>
      <point x="1699" y="1831"/>
      <point x="1593" y="2032"/>
      <point x="1136" y="2032" type="curve" smooth="yes"/>
      <point x="677" y="2032"/>
      <point x="275" y="1676"/>
      <point x="177" y="1080" type="curve" smooth="yes"/>
      <point x="155" y="956" type="line"/>
      <point x="335" y="956" type="line"/>
      <point x="355" y="1080" type="line" smooth="yes"/>
      <point x="439" y="1589"/>
      <point x="759" y="1879"/>
      <point x="1097" y="1880" type="curve" smooth="yes"/>
      <point x="1453" y="1879"/>
      <point x="1521" y="1767"/>
      <point x="1559" y="1704" type="curve"/>
      <point x="1457" y="1075" type="line"/>
      <point x="1628" y="1072" type="line"/>
    </contour>
    <contour>
      <point x="2148" y="2004" type="line"/>
      <point x="2003" y="2004" type="line"/>
      <point x="1712" y="1909" type="line"/>
      <point x="1696" y="1824" type="line"/>
      <point x="1948" y="1884" type="line"/>
      <point x="1541" y="-572" type="line"/>
      <point x="1724" y="-572" type="line"/>
    </contour>
  </outline>
</glyph>
<glyph name="oi" format="2">
  <advance width="1565"/>
  <unicode hex="01A3"/>
  <outline>
    <contour>
      <point x="623" y="115" type="curve" smooth="yes"/>
      <point x="359" y="113"/>
      <point x="190" y="309"/>
      <point x="257" y="711" type="curve" smooth="yes"/>
      <point x="268" y="780" type="line" smooth="yes"/>
      <point x="317" y="1059"/>
      <point x="479" y="1373"/>
      <point x="836" y="1373" type="curve"/>
      <point x="910" y="1373"/>
      <point x="981" y="1352"/>
      <point x="1032" y="1320" type="curve"/>
      <point x="920" y="647" type="line"/>
      <point x="1103" y="665" type="line"/>
      <point x="1224" y="1389" type="line"/>
      <point x="1130" y="1508"/>
      <point x="995" y="1516"/>
      <point x="851" y="1516" type="curve" smooth="yes"/>
      <point x="414" y="1516"/>
      <point x="151" y="1157"/>
      <point x="85" y="780" type="curve" smooth="yes"/>
      <point x="75" y="711" type="line" smooth="yes"/>
      <point x="11" y="333"/>
      <point x="153" y="-28"/>
      <point x="595" y="-28" type="curve"/>
      <point x="701" y="-28"/>
      <point x="890" y="27"/>
      <point x="1016" y="127" type="curve"/>
      <point x="1108" y="687" type="line"/>
      <point x="928" y="687" type="line"/>
      <point x="845" y="172" type="line"/>
      <point x="771" y="139"/>
      <point x="697" y="113"/>
    </contour>
    <contour>
      <point x="1600" y="1488" type="line"/>
      <point x="1432" y="1488" type="line"/>
      <point x="1116" y="1315" type="line"/>
      <point x="1065" y="1004" type="line"/>
      <point x="1380" y="1209" type="line"/>
      <point x="1087" y="-572" type="line"/>
      <point x="1260" y="-572" type="line"/>
    </contour>
  </outline>
</glyph>
<glyph name="Phook" format="2">
  <advance width="2016"/>
  <unicode hex="01A4"/>
  <note>
!post:RemoveOverlap
</note>
  <outline>
    <contour>
      <point x="428" y="1653" type="line"/>
      <point x="435" y="1700" type="line" smooth="yes"/>
      <point x="457" y="1847"/>
      <point x="527" y="1932"/>
      <point x="681" y="1932" type="curve" smooth="yes"/>
      <point x="784" y="1932" type="line"/>
      <point x="804" y="2048" type="line"/>
      <point x="700" y="2048" type="line" smooth="yes"/>
      <point x="484" y="2048"/>
      <point x="350" y="1920"/>
      <point x="317" y="1720" type="curve" smooth="yes"/>
      <point x="308" y="1653" type="line"/>
    </contour>
    <component base="P" xOffset="252"/>
  </outline>
</glyph>
<glyph name="phook" format="2">
  <advance width="1673"/>
  <unicode hex="01A5"/>
  <outline>
    <contour>
      <point x="476" y="1536" type="line"/>
      <point x="498" y="1668"/>
      <point x="593" y="1721"/>
      <point x="764" y="1723" type="curve" smooth="yes"/>
      <point x="767" y="1725"/>
      <point x="777" y="1725"/>
      <point x="803" y="1723" type="curve"/>
      <point x="824" y="1867" type="line"/>
      <point x="817" y="1873"/>
      <point x="781" y="1871"/>
      <point x="748" y="1871" type="curve" smooth="yes"/>
      <point x="572" y="1871"/>
      <point x="406" y="1732"/>
      <point x="376" y="1536" type="curve"/>
    </contour>
    <component base="p"/>
  </outline>
</glyph>
<glyph name="YR" format="2">
  <advance width="1955"/>
  <unicode hex="01A6"/>
  <outline>
    <contour>
      <point x="340" y="1864" type="line"/>
      <point x="529" y="1864" type="line"/>
      <point x="577" y="2144" type="line"/>
      <point x="388" y="2144" type="line"/>
    </contour>
    <contour>
      <point x="367" y="2004" type="line"/>
      <point x="35" y="0" type="line"/>
      <point x="221" y="0" type="line"/>
      <point x="531" y="1852" type="line"/>
      <point x="940" y="1852" type="line" smooth="yes"/>
      <point x="1293" y="1852"/>
      <point x="1387" y="1680"/>
      <point x="1347" y="1427" type="curve" smooth="yes"/>
      <point x="1312" y="1203"/>
      <point x="1120" y="1012"/>
      <point x="797" y="1012" type="curve" smooth="yes"/>
      <point x="383" y="1012" type="line"/>
      <point x="360" y="864" type="line"/>
      <point x="931" y="864" type="line"/>
      <point x="963" y="860" type="line"/>
      <point x="1279" y="929"/>
      <point x="1488" y="1164"/>
      <point x="1527" y="1403" type="curve" smooth="yes"/>
      <point x="1589" y="1792"/>
      <point x="1407" y="2004"/>
      <point x="963" y="2004" type="curve" smooth="yes"/>
    </contour>
    <contour>
      <point x="1389" y="-507" type="line"/>
      <point x="1584" y="-507" type="line"/>
      <point x="1584" y="-491" type="line"/>
      <point x="1053" y="925" type="line"/>
      <point x="860" y="925" type="line"/>
    </contour>
  </outline>
</glyph>
<glyph name="eshlooprev" format="2">
  <advance width="1309"/>
  <unicode hex="01AA"/>
  <outline>
    <contour>
      <point x="903" y="1672" type="line"/>
      <point x="607" y="-115" type="line" smooth="yes"/>
      <point x="559" y="-391"/>
      <point x="615" y="-537"/>
      <point x="827" y="-539" type="curve" smooth="yes"/>
      <point x="858" y="-537"/>
      <point x="930" y="-528"/>
      <point x="959" y="-512" type="curve"/>
      <point x="984" y="-371" type="line"/>
      <point x="969" y="-379"/>
      <point x="929" y="-383"/>
      <point x="916" y="-383" type="curve" smooth="yes"/>
      <point x="797" y="-383"/>
      <point x="749" y="-324"/>
      <point x="787" y="-115" type="curve" smooth="yes"/>
      <point x="1092" y="1724" type="line"/>
    </contour>
    <contour>
      <point x="297" y="1724" type="curve" smooth="yes"/>
      <point x="259" y="1503"/>
      <point x="401" y="1319"/>
      <point x="624" y="1320" type="curve" smooth="yes"/>
      <point x="841" y="1319"/>
      <point x="1051" y="1501"/>
      <point x="1092" y="1724" type="curve" smooth="yes"/>
      <point x="1125" y="1951"/>
      <point x="975" y="2127"/>
      <point x="759" y="2128" type="curve" smooth="yes"/>
      <point x="538" y="2127"/>
      <point x="331" y="1951"/>
    </contour>
    <contour>
      <point x="655" y="1500" type="curve" smooth="yes"/>
      <point x="535" y="1500"/>
      <point x="454" y="1573"/>
      <point x="479" y="1728" type="curve" smooth="yes"/>
      <point x="503" y="1877"/>
      <point x="611" y="1956"/>
      <point x="732" y="1956" type="curve" smooth="yes"/>
      <point x="851" y="1956"/>
      <point x="931" y="1875"/>
      <point x="907" y="1728" type="curve" smooth="yes"/>
      <point x="882" y="1573"/>
      <point x="775" y="1500"/>
    </contour>
  </outline>
</glyph>
<glyph name="tpalatalhook" format="2">
  <advance width="1001"/>
  <unicode hex="01AB"/>
  <outline>
    <contour>
      <point x="548" y="112" type="line"/>
      <point x="491" y="-212" type="line" smooth="yes"/>
      <point x="462" y="-374"/>
      <point x="385" y="-433"/>
      <point x="243" y="-433" type="curve" smooth="yes"/>
      <point x="225" y="-433"/>
      <point x="201" y="-429"/>
      <point x="188" y="-425" type="curve"/>
      <point x="164" y="-572" type="line"/>
      <point x="181" y="-581"/>
      <point x="231" y="-577"/>
      <point x="267" y="-579" type="curve" smooth="yes"/>
      <point x="451" y="-577"/>
      <point x="643" y="-444"/>
      <point x="684" y="-212" type="curve" smooth="yes"/>
      <point x="747" y="149" type="line"/>
    </contour>
    <component base="t"/>
  </outline>
</glyph>
<glyph name="Thook" format="2">
  <advance width="1880"/>
  <unicode hex="01AC"/>
  <note>
!post:RemoveOverlap
</note>
  <outline>
    <contour>
      <point x="1215" y="2048" type="line"/>
      <point x="679" y="2048" type="line" smooth="yes"/>
      <point x="500" y="2048"/>
      <point x="346" y="1909"/>
      <point x="317" y="1727" type="curve" smooth="yes"/>
      <point x="308" y="1660" type="line"/>
      <point x="441" y="1660" type="line"/>
      <point x="448" y="1707" type="line" smooth="yes"/>
      <point x="465" y="1817"/>
      <point x="532" y="1919"/>
      <point x="659" y="1919" type="curve" smooth="yes"/>
      <point x="1195" y="1919" type="line"/>
    </contour>
    <contour>
      <point x="1932" y="2048" type="line"/>
      <point x="881" y="2048" type="line"/>
      <point x="861" y="1919" type="line"/>
      <point x="1129" y="1919" type="line"/>
      <point x="809" y="0" type="line"/>
      <point x="937" y="0" type="line"/>
      <point x="1257" y="1919" type="line"/>
      <point x="1912" y="1919" type="line"/>
    </contour>
  </outline>
</glyph>
<glyph name="thook" format="2">
  <advance width="807"/>
  <unicode hex="01AD"/>
  <outline>
    <contour>
      <point x="663" y="1599" type="line"/>
      <point x="689" y="1768" type="line" smooth="yes"/>
      <point x="719" y="1931"/>
      <point x="776" y="1999"/>
      <point x="915" y="2000" type="curve" smooth="yes"/>
      <point x="923" y="1999"/>
      <point x="949" y="1996"/>
      <point x="975" y="1988" type="curve"/>
      <point x="992" y="2108" type="line"/>
      <point x="969" y="2119"/>
      <point x="916" y="2127"/>
      <point x="913" y="2128" type="curve" smooth="yes"/>
      <point x="728" y="2127"/>
      <point x="539" y="1951"/>
      <point x="507" y="1768" type="curve" smooth="yes"/>
      <point x="483" y="1599" type="line"/>
    </contour>
    <contour>
      <point x="924" y="1488" type="line"/>
      <point x="164" y="1488" type="line"/>
      <point x="136" y="1351" type="line"/>
      <point x="896" y="1351" type="line"/>
    </contour>
    <contour>
      <point x="473" y="1567" type="line"/>
      <point x="281" y="404" type="line"/>
      <point x="229" y="91"/>
      <point x="363" y="-28"/>
      <point x="496" y="-28" type="curve" smooth="yes"/>
      <point x="591" y="-28"/>
      <point x="655" y="-9"/>
      <point x="669" y="-8" type="curve"/>
      <point x="695" y="151" type="line"/>
      <point x="676" y="147"/>
      <point x="615" y="131"/>
      <point x="575" y="132" type="curve" smooth="yes"/>
      <point x="511" y="131"/>
      <point x="425" y="181"/>
      <point x="459" y="372" type="curve"/>
      <point x="656" y="1567" type="line"/>
    </contour>
  </outline>
</glyph>
<glyph name="Trthook" format="2">
  <advance width="1759"/>
  <unicode hex="01AE"/>
  <outline>
    <contour>
      <point x="815" y="0" type="line"/>
      <point x="687" y="0" type="line"/>
      <point x="651" y="-219" type="line" smooth="yes"/>
      <point x="621" y="-397"/>
      <point x="752" y="-576"/>
      <point x="949" y="-576" type="curve"/>
      <point x="1043" y="-576" type="line"/>
      <point x="1068" y="-433" type="line"/>
      <point x="997" y="-433" type="line"/>
      <point x="856" y="-433"/>
      <point x="748" y="-397"/>
      <point x="779" y="-212" type="curve" smooth="yes"/>
    </contour>
    <component base="T"/>
  </outline>
</glyph>
<glyph name="Uhorn" format="2">
  <advance width="2427"/>
  <unicode hex="01AF"/>
  <outline>
    <contour>
      <point x="2300" y="2207" type="line"/>
      <point x="2256" y="1941"/>
      <point x="2125" y="1815"/>
      <point x="1863" y="1816" type="curve"/>
      <point x="1836" y="1639" type="line"/>
      <point x="2229" y="1637"/>
      <point x="2443" y="1825"/>
      <point x="2503" y="2207" type="curve"/>
    </contour>
    <component base="U"/>
  </outline>
</glyph>
<glyph name="uhorn" format="2">
  <advance width="1591"/>
  <unicode hex="01B0"/>
  <outline>
    <contour>
      <point x="1599" y="1593" type="line"/>
      <point x="1568" y="1397"/>
      <point x="1570" y="1324"/>
      <point x="1344" y="1324" type="curve"/>
      <point x="1319" y="1179" type="line"/>
      <point x="1636" y="1177"/>
      <point x="1738" y="1317"/>
      <point x="1783" y="1593" type="curve"/>
    </contour>
    <component base="u" xOffset="-5"/>
  </outline>
</glyph>
<glyph name="Upsilon2" format="2">
  <advance width="2112"/>
  <unicode hex="01B1"/>
  <outline>
    <contour>
      <point x="232" y="989" type="curve" smooth="yes"/>
      <point x="133" y="392"/>
      <point x="421" y="-28"/>
      <point x="924" y="-28" type="curve" smooth="yes"/>
      <point x="1427" y="-28"/>
      <point x="1855" y="392"/>
      <point x="1952" y="989" type="curve"/>
      <point x="2021" y="1407"/>
      <point x="1904" y="1723"/>
      <point x="1645" y="1903" type="curve"/>
      <point x="1652" y="1919" type="line"/>
      <point x="2109" y="1919" type="line"/>
      <point x="2129" y="2048" type="line"/>
      <point x="1457" y="2048" type="line"/>
      <point x="1428" y="1880" type="line"/>
      <point x="1705" y="1752"/>
      <point x="1913" y="1408"/>
      <point x="1840" y="968" type="curve" smooth="yes"/>
      <point x="1764" y="487"/>
      <point x="1387" y="101"/>
      <point x="948" y="103" type="curve" smooth="yes"/>
      <point x="509" y="101"/>
      <point x="260" y="487"/>
      <point x="336" y="968" type="curve"/>
      <point x="409" y="1408"/>
      <point x="735" y="1752"/>
      <point x="1049" y="1880" type="curve"/>
      <point x="1079" y="2048" type="line"/>
      <point x="407" y="2048" type="line"/>
      <point x="387" y="1919" type="line"/>
      <point x="847" y="1919" type="line"/>
      <point x="843" y="1903" type="line"/>
      <point x="527" y="1717"/>
      <point x="299" y="1407"/>
    </contour>
  </outline>
</glyph>
<glyph name="Vcursive" format="2">
  <advance width="1705"/>
  <unicode hex="01B2"/>
  <outline>
    <contour>
      <point x="719" y="-28" type="curve" smooth="yes"/>
      <point x="1057" y="-28"/>
      <point x="1442" y="177"/>
      <point x="1517" y="621" type="curve" smooth="yes"/>
      <point x="1679" y="1611" type="line" smooth="yes"/>
      <point x="1725" y="1881"/>
      <point x="1583" y="2033"/>
      <point x="1367" y="2035" type="curve" smooth="yes"/>
      <point x="1345" y="2033"/>
      <point x="1267" y="2019"/>
      <point x="1241" y="2011" type="curve"/>
      <point x="1219" y="1873" type="line"/>
      <point x="1234" y="1881"/>
      <point x="1273" y="1879"/>
      <point x="1289" y="1879" type="curve" smooth="yes"/>
      <point x="1441" y="1879"/>
      <point x="1529" y="1805"/>
      <point x="1495" y="1611" type="curve" smooth="yes"/>
      <point x="1331" y="621" type="line" smooth="yes"/>
      <point x="1271" y="268"/>
      <point x="1027" y="120"/>
      <point x="741" y="120" type="curve" smooth="yes"/>
      <point x="455" y="120"/>
      <point x="266" y="268"/>
      <point x="328" y="621" type="curve" smooth="yes"/>
      <point x="555" y="2004" type="line"/>
      <point x="372" y="2004" type="line"/>
      <point x="143" y="621" type="line" smooth="yes"/>
      <point x="69" y="179"/>
      <point x="342" y="-28"/>
    </contour>
  </outline>
</glyph>
<glyph name="Yhook" format="2">
  <advance width="1831"/>
  <unicode hex="01B3"/>
  <note>
!post:RemoveOverlap
</note>
  <outline>
    <contour>
      <point x="1611" y="1779" type="line"/>
      <point x="1665" y="1849" type="line" smooth="yes"/>
      <point x="1744" y="1957"/>
      <point x="1849" y="1959"/>
      <point x="1911" y="1920" type="curve"/>
      <point x="1975" y="2037" type="line"/>
      <point x="1831" y="2125"/>
      <point x="1673" y="2051"/>
      <point x="1543" y="1884" type="curve" smooth="yes"/>
      <point x="1505" y="1839" type="line"/>
    </contour>
    <contour>
      <point x="856" y="996" type="line"/>
      <point x="904" y="996" type="line"/>
      <point x="912" y="1044" type="line"/>
      <point x="864" y="1044" type="line"/>
    </contour>
    <contour>
      <point x="449" y="2048" type="line"/>
      <point x="291" y="2048" type="line"/>
      <point x="799" y="879" type="line"/>
      <point x="653" y="0" type="line"/>
      <point x="779" y="0" type="line"/>
      <point x="924" y="879" type="line"/>
      <point x="1611" y="1779" type="line"/>
      <point x="1505" y="1839" type="line"/>
      <point x="888" y="1024" type="line"/>
    </contour>
  </outline>
</glyph>
<glyph name="yhook" format="2">
  <advance width="1717"/>
  <unicode hex="01B4"/>
  <outline>
    <contour>
      <point x="1360" y="1323" type="line"/>
      <point x="1392" y="1376" type="line" smooth="yes"/>
      <point x="1545" y="1672"/>
      <point x="1629" y="1800"/>
      <point x="1771" y="1784" type="curve" smooth="yes"/>
      <point x="1830" y="1776"/>
      <point x="1905" y="1743"/>
      <point x="1955" y="1703" type="curve"/>
      <point x="2052" y="1757" type="line"/>
      <point x="2011" y="1835"/>
      <point x="1942" y="1891"/>
      <point x="1859" y="1920" type="curve" smooth="yes"/>
      <point x="1589" y="1952"/>
      <point x="1419" y="1673"/>
      <point x="1279" y="1407" type="curve" smooth="yes"/>
      <point x="1272" y="1391" type="line"/>
    </contour>
    <contour>
      <point x="428" y="-200" type="line" smooth="yes"/>
      <point x="307" y="-419"/>
      <point x="174" y="-448"/>
      <point x="12" y="-448" type="curve"/>
      <point x="-83" y="-448"/>
      <point x="-129" y="-443"/>
      <point x="-133" y="-440" type="curve"/>
      <point x="-159" y="-585" type="line"/>
      <point x="-153" y="-583"/>
      <point x="-3" y="-600"/>
      <point x="12" y="-600" type="curve" smooth="yes"/>
      <point x="175" y="-600"/>
      <point x="381" y="-515"/>
      <point x="533" y="-233" type="curve" smooth="yes"/>
      <point x="1360" y="1323" type="line"/>
      <point x="1272" y="1391" type="line"/>
      <point x="623" y="143" type="line"/>
      <point x="373" y="1536" type="line"/>
      <point x="243" y="1536" type="line"/>
      <point x="515" y="-27" type="line"/>
    </contour>
  </outline>
</glyph>
<glyph name="Ezh" format="2">
  <advance width="1941"/>
  <unicode hex="01B7"/>
  <outline>
    <contour>
      <point x="49" y="103" type="line"/>
      <point x="-8" y="-292"/>
      <point x="292" y="-581"/>
      <point x="725" y="-581" type="curve" smooth="yes"/>
      <point x="1223" y="-581"/>
      <point x="1583" y="-201"/>
      <point x="1655" y="231" type="curve" smooth="yes"/>
      <point x="1732" y="701"/>
      <point x="1433" y="1052"/>
      <point x="917" y="1075" type="curve"/>
      <point x="919" y="1087" type="line"/>
      <point x="1879" y="1953" type="line"/>
      <point x="1893" y="2048" type="line"/>
      <point x="483" y="2048" type="line"/>
      <point x="463" y="1931" type="line"/>
      <point x="1716" y="1931" type="line"/>
      <point x="1720" y="1949" type="line"/>
      <point x="753" y="1079" type="line"/>
      <point x="733" y="967" type="line"/>
      <point x="848" y="967" type="line" smooth="yes"/>
      <point x="1317" y="953"/>
      <point x="1600" y="651"/>
      <point x="1531" y="231" type="curve" smooth="yes"/>
      <point x="1467" y="-168"/>
      <point x="1139" y="-464"/>
      <point x="748" y="-464" type="curve" smooth="yes"/>
      <point x="377" y="-464"/>
      <point x="129" y="-221"/>
      <point x="176" y="103" type="curve"/>
    </contour>
  </outline>
</glyph>
<glyph name="ezhtail" format="2">
  <advance width="1453"/>
  <unicode hex="01BA"/>
  <outline>
    <contour>
      <point x="307" y="1488" type="line"/>
      <point x="284" y="1345" type="line"/>
      <point x="1240" y="1345" type="line"/>
      <point x="484" y="828" type="line"/>
      <point x="464" y="704" type="line"/>
      <point x="629" y="704" type="line"/>
      <point x="1451" y="1365" type="line"/>
      <point x="1471" y="1488" type="line"/>
    </contour>
    <contour>
      <point x="140" y="-187" type="curve" smooth="yes"/>
      <point x="159" y="-59"/>
      <point x="239" y="32"/>
      <point x="517" y="91" type="curve" smooth="yes"/>
      <point x="903" y="175"/>
      <point x="1097" y="267"/>
      <point x="1140" y="523" type="curve" smooth="yes"/>
      <point x="1177" y="749"/>
      <point x="979" y="876"/>
      <point x="671" y="876" type="curve" smooth="yes"/>
      <point x="644" y="876" type="line"/>
      <point x="616" y="704" type="line"/>
      <point x="643" y="704" type="line" smooth="yes"/>
      <point x="895" y="703"/>
      <point x="967" y="633"/>
      <point x="947" y="523" type="curve" smooth="yes"/>
      <point x="923" y="380"/>
      <point x="853" y="324"/>
      <point x="585" y="267" type="curve" smooth="yes"/>
      <point x="209" y="185"/>
      <point x="1" y="60"/>
      <point x="-40" y="-167" type="curve" smooth="yes"/>
      <point x="-81" y="-429"/>
      <point x="98" y="-600"/>
      <point x="421" y="-600" type="curve" smooth="yes"/>
      <point x="795" y="-600"/>
      <point x="1037" y="-367"/>
      <point x="1083" y="-116" type="curve"/>
      <point x="896" y="-116" type="line"/>
      <point x="837" y="-355"/>
      <point x="621" y="-429"/>
      <point x="455" y="-431" type="curve" smooth="yes"/>
      <point x="213" y="-429"/>
      <point x="117" y="-323"/>
    </contour>
  </outline>
</glyph>
<glyph name="Tonefive" format="2">
  <advance width="1607"/>
  <unicode hex="01BC"/>
  <outline>
    <contour>
      <point x="675" y="2048" type="line"/>
      <point x="305" y="2048" type="line"/>
      <point x="284" y="1932" type="line"/>
      <point x="648" y="1932" type="line"/>
    </contour>
    <component base="five" xOffset="-32"/>
  </outline>
</glyph>
<glyph name="tonefive" format="2">
  <advance width="1304"/>
  <unicode hex="01BD"/>
  <outline>
    <contour>
      <point x="357" y="659" type="line"/>
      <point x="434" y="759"/>
      <point x="537" y="853"/>
      <point x="717" y="853" type="curve" smooth="yes"/>
      <point x="951" y="853"/>
      <point x="1041" y="704"/>
      <point x="1007" y="488" type="curve" smooth="yes"/>
      <point x="973" y="279"/>
      <point x="834" y="123"/>
      <point x="580" y="123" type="curve" smooth="yes"/>
      <point x="379" y="123"/>
      <point x="253" y="251"/>
      <point x="295" y="431" type="curve"/>
      <point x="128" y="404" type="line"/>
      <point x="77" y="121"/>
      <point x="357" y="-24"/>
      <point x="555" y="-24" type="curve" smooth="yes"/>
      <point x="942" y="-24"/>
      <point x="1135" y="212"/>
      <point x="1183" y="507" type="curve" smooth="yes"/>
      <point x="1237" y="849"/>
      <point x="1078" y="1045"/>
      <point x="755" y="1036" type="curve" smooth="yes"/>
      <point x="669" y="1029"/>
      <point x="529" y="984"/>
      <point x="468" y="939" type="curve"/>
      <point x="568" y="1316" type="line"/>
      <point x="1260" y="1316" type="line"/>
      <point x="1289" y="1488" type="line"/>
      <point x="440" y="1488" type="line"/>
      <point x="221" y="679" type="line"/>
    </contour>
    <contour>
      <point x="600" y="1488" type="line"/>
      <point x="200" y="1488" type="line"/>
      <point x="168" y="1316" type="line"/>
      <point x="571" y="1316" type="line"/>
    </contour>
  </outline>
</glyph>
<glyph name="glottalstopbarinv" format="2">
  <advance width="1453"/>
  <unicode hex="01BE"/>
  <outline>
    <contour>
      <point x="1040" y="383" type="curve" smooth="yes"/>
      <point x="1015" y="253"/>
      <point x="875" y="143"/>
      <point x="644" y="144" type="curve" smooth="yes"/>
      <point x="469" y="143"/>
      <point x="281" y="221"/>
      <point x="317" y="463" type="curve"/>
      <point x="124" y="463" type="line"/>
      <point x="75" y="201"/>
      <point x="243" y="-28"/>
      <point x="621" y="-28" type="curve" smooth="yes"/>
      <point x="937" y="-28"/>
      <point x="1187" y="149"/>
      <point x="1232" y="415" type="curve" smooth="yes"/>
      <point x="1295" y="800"/>
      <point x="787" y="749"/>
      <point x="840" y="1057" type="curve" smooth="yes"/>
      <point x="971" y="1836" type="line"/>
      <point x="791" y="1836" type="line"/>
      <point x="660" y="1041" type="line" smooth="yes"/>
      <point x="591" y="645"/>
      <point x="1087" y="685"/>
    </contour>
    <contour>
      <point x="1191" y="1488" type="line"/>
      <point x="431" y="1488" type="line"/>
      <point x="405" y="1351" type="line"/>
      <point x="1165" y="1351" type="line"/>
    </contour>
  </outline>
</glyph>
<glyph name="wynn" format="2">
  <advance width="1695"/>
  <unicode hex="01BF"/>
  <outline>
    <contour>
      <point x="501" y="1204" type="line"/>
      <point x="528" y="1488" type="line"/>
      <point x="372" y="1488" type="line"/>
      <point x="32" y="-572" type="line"/>
      <point x="209" y="-572" type="line"/>
    </contour>
    <contour>
      <point x="372" y="961" type="line"/>
      <point x="471" y="1143"/>
      <point x="649" y="1360"/>
      <point x="904" y="1360" type="curve" smooth="yes"/>
      <point x="1215" y="1360"/>
      <point x="1315" y="1081"/>
      <point x="1267" y="751" type="curve" smooth="yes"/>
      <point x="1256" y="728" type="line" smooth="yes"/>
      <point x="1181" y="257"/>
      <point x="778" y="68"/>
      <point x="260" y="-84" type="curve"/>
      <point x="211" y="-232" type="line"/>
      <point x="889" y="-29"/>
      <point x="1346" y="161"/>
      <point x="1436" y="728" type="curve" smooth="yes"/>
      <point x="1444" y="751" type="line" smooth="yes"/>
      <point x="1515" y="1205"/>
      <point x="1369" y="1516"/>
      <point x="995" y="1516" type="curve" smooth="yes"/>
      <point x="614" y="1516"/>
      <point x="361" y="1275"/>
      <point x="245" y="807" type="curve"/>
    </contour>
  </outline>
</glyph>
<glyph name="pipe" format="2">
  <advance width="684"/>
  <unicode hex="01C0"/>
  <outline>
    <contour>
      <point x="659" y="2072" type="line"/>
      <point x="460" y="2072" type="line"/>
      <point x="115" y="0" type="line"/>
      <point x="316" y="0" type="line"/>
    </contour>
  </outline>
</glyph>
<glyph name="Gbar" format="2">
  <advance width="2041"/>
  <unicode hex="01E4"/>
  <outline>
    <contour>
      <point x="1971" y="635" type="line"/>
      <point x="1077" y="635" type="line"/>
      <point x="1059" y="525" type="line"/>
      <point x="1952" y="525" type="line"/>
    </contour>
    <component base="G"/>
  </outline>
</glyph>
<glyph name="uni01F6" format="2">
  <advance width="3119"/>
  <unicode hex="01F6"/>
  <outline>
    <contour>
      <point x="2139" y="-28" type="curve" smooth="yes"/>
      <point x="2481" y="-28"/>
      <point x="2771" y="172"/>
      <point x="2847" y="621" type="curve" smooth="yes"/>
      <point x="3005" y="1563" type="line"/>
      <point x="2880" y="1563" type="line"/>
      <point x="2724" y="621" type="line" smooth="yes"/>
      <point x="2663" y="261"/>
      <point x="2472" y="109"/>
      <point x="2159" y="109" type="curve" smooth="yes"/>
      <point x="1847" y="109"/>
      <point x="1693" y="261"/>
      <point x="1755" y="621" type="curve" smooth="yes"/>
      <point x="1992" y="2048" type="line"/>
      <point x="1867" y="2048" type="line"/>
      <point x="1707" y="1091" type="line"/>
      <point x="471" y="1091" type="line"/>
      <point x="631" y="2048" type="line"/>
      <point x="508" y="2048" type="line"/>
      <point x="168" y="0" type="line"/>
      <point x="291" y="0" type="line"/>
      <point x="451" y="964" type="line"/>
      <point x="1687" y="964" type="line"/>
      <point x="1629" y="621" type="line" smooth="yes"/>
      <point x="1559" y="183"/>
      <point x="1779" y="-28"/>
    </contour>
  </outline>
</glyph>
<glyph name="uni01F7" format="2">
  <advance width="1557"/>
  <unicode hex="01F7"/>
  <outline>
    <contour>
      <point x="499" y="2004" type="line"/>
      <point x="309" y="2004" type="line"/>
      <point x="-115" y="-572" type="line"/>
      <point x="75" y="-572" type="line"/>
    </contour>
    <contour>
      <point x="4" y="-243" type="line"/>
      <point x="661" y="-240"/>
      <point x="1389" y="397"/>
      <point x="1517" y="1156" type="curve" smooth="yes"/>
      <point x="1529" y="1228" type="line" smooth="yes"/>
      <point x="1619" y="1781"/>
      <point x="1365" y="2032"/>
      <point x="880" y="2032" type="curve" smooth="yes"/>
      <point x="697" y="2032"/>
      <point x="553" y="1991"/>
      <point x="413" y="1911" type="curve"/>
      <point x="324" y="1381" type="line"/>
      <point x="407" y="1691"/>
      <point x="504" y="1879"/>
      <point x="857" y="1880" type="curve" smooth="yes"/>
      <point x="1217" y="1879"/>
      <point x="1433" y="1741"/>
      <point x="1352" y="1232" type="curve" smooth="yes"/>
      <point x="1340" y="1156" type="line" smooth="yes"/>
      <point x="1253" y="661"/>
      <point x="811" y="-27"/>
      <point x="27" y="-97" type="curve"/>
    </contour>
  </outline>
</glyph>
<glyph name="uni021C" format="2">
  <advance width="1703"/>
  <unicode hex="021C"/>
  <outline>
    <contour>
      <point x="241" y="463" type="line"/>
      <point x="897" y="615"/>
      <point x="1535" y="1023"/>
      <point x="1607" y="1460" type="curve" smooth="yes"/>
      <point x="1667" y="1832"/>
      <point x="1443" y="2033"/>
      <point x="1024" y="2035" type="curve" smooth="yes"/>
      <point x="671" y="2033"/>
      <point x="353" y="1811"/>
      <point x="301" y="1487" type="curve"/>
      <point x="484" y="1487" type="line"/>
      <point x="521" y="1711"/>
      <point x="757" y="1880"/>
      <point x="1004" y="1880" type="curve" smooth="yes"/>
      <point x="1343" y="1880"/>
      <point x="1459" y="1695"/>
      <point x="1429" y="1504" type="curve" smooth="yes"/>
      <point x="1344" y="1007"/>
      <point x="867" y="767"/>
      <point x="260" y="591" type="curve"/>
    </contour>
    <contour>
      <point x="1172" y="952" type="line"/>
      <point x="1307" y="859"/>
      <point x="1324" y="693"/>
      <point x="1281" y="431" type="curve" smooth="yes"/>
      <point x="1188" y="-132"/>
      <point x="756" y="-316"/>
      <point x="89" y="-452" type="curve"/>
      <point x="63" y="-600" type="line"/>
      <point x="807" y="-421"/>
      <point x="1359" y="-245"/>
      <point x="1471" y="432" type="curve" smooth="yes"/>
      <point x="1521" y="736"/>
      <point x="1481" y="912"/>
      <point x="1367" y="1044" type="curve"/>
    </contour>
  </outline>
</glyph>
<glyph name="uni021D" format="2">
  <advance width="1451"/>
  <unicode hex="021D"/>
  <outline>
    <contour>
      <point x="204" y="339" type="line"/>
      <point x="590" y="373"/>
      <point x="1221" y="680"/>
      <point x="1287" y="1080" type="curve" smooth="yes"/>
      <point x="1335" y="1364"/>
      <point x="1173" y="1516"/>
      <point x="859" y="1516" type="curve" smooth="yes"/>
      <point x="565" y="1516"/>
      <point x="290" y="1344"/>
      <point x="247" y="1083" type="curve"/>
      <point x="420" y="1083" type="line"/>
      <point x="443" y="1225"/>
      <point x="625" y="1359"/>
      <point x="820" y="1360" type="curve" smooth="yes"/>
      <point x="1057" y="1359"/>
      <point x="1130" y="1233"/>
      <point x="1115" y="1120" type="curve" smooth="yes"/>
      <point x="1047" y="693"/>
      <point x="515" y="521"/>
      <point x="229" y="476" type="curve"/>
    </contour>
    <contour>
      <point x="904" y="675" type="line"/>
      <point x="1017" y="595"/>
      <point x="1027" y="419"/>
      <point x="999" y="244" type="curve" smooth="yes"/>
      <point x="923" y="-229"/>
      <point x="526" y="-387"/>
      <point x="71" y="-448" type="curve"/>
      <point x="48" y="-600" type="line"/>
      <point x="722" y="-543"/>
      <point x="1083" y="-303"/>
      <point x="1179" y="263" type="curve" smooth="yes"/>
      <point x="1207" y="441"/>
      <point x="1206" y="663"/>
      <point x="1120" y="793" type="curve"/>
    </contour>
  </outline>
</glyph>
<glyph name="uni0220" format="2">
  <advance width="1699"/>
  <unicode hex="0220"/>
  <outline>
    <contour>
      <point x="1337" y="-572" type="line"/>
      <point x="1648" y="1319" type="line" smooth="yes"/>
      <point x="1729" y="1808"/>
      <point x="1391" y="2032"/>
      <point x="1016" y="2032" type="curve" smooth="yes"/>
      <point x="857" y="2032"/>
      <point x="698" y="2017"/>
      <point x="584" y="1979" type="curve"/>
      <point x="567" y="1868" type="line"/>
      <point x="657" y="1860"/>
      <point x="794" y="1876"/>
      <point x="1025" y="1876" type="curve" smooth="yes"/>
      <point x="1327" y="1876"/>
      <point x="1537" y="1719"/>
      <point x="1471" y="1319" type="curve" smooth="yes"/>
      <point x="1160" y="-572" type="line"/>
    </contour>
    <contour>
      <point x="523" y="2004" type="line"/>
      <point x="352" y="2004" type="line"/>
      <point x="20" y="0" type="line"/>
      <point x="191" y="0" type="line"/>
    </contour>
  </outline>
</glyph>
<glyph name="uni0221" format="2">
  <advance width="2027"/>
  <unicode hex="0221"/>
  <outline>
    <contour>
      <point x="1243" y="348" type="line"/>
      <point x="1155" y="-195" type="line"/>
      <point x="1133" y="-347"/>
      <point x="1194" y="-576"/>
      <point x="1431" y="-576" type="curve" smooth="yes"/>
      <point x="1619" y="-576"/>
      <point x="1789" y="-421"/>
      <point x="1828" y="-207" type="curve" smooth="yes"/>
      <point x="1864" y="7"/>
      <point x="1736" y="141"/>
      <point x="1589" y="141" type="curve" smooth="yes"/>
      <point x="1472" y="141"/>
      <point x="1288" y="68"/>
      <point x="1152" y="-83" type="curve"/>
      <point x="839" y="-408" type="line"/>
      <point x="956" y="-497" type="line"/>
      <point x="1373" y="-85" type="line" smooth="yes"/>
      <point x="1399" y="-43"/>
      <point x="1462" y="-11"/>
      <point x="1563" y="-35" type="curve" smooth="yes"/>
      <point x="1631" y="-57"/>
      <point x="1678" y="-119"/>
      <point x="1664" y="-215" type="curve" smooth="yes"/>
      <point x="1645" y="-323"/>
      <point x="1559" y="-405"/>
      <point x="1449" y="-407" type="curve" smooth="yes"/>
      <point x="1335" y="-405"/>
      <point x="1245" y="-317"/>
      <point x="1276" y="-164" type="curve"/>
      <point x="1353" y="348" type="line"/>
    </contour>
    <component base="d" xOffset="-3"/>
  </outline>
</glyph>
<glyph name="uni0222" format="2">
  <advance width="1701"/>
  <unicode hex="0222"/>
  <outline>
    <contour>
      <point x="896" y="1172" type="line"/>
      <point x="483" y="1172"/>
      <point x="123" y="961"/>
      <point x="57" y="569" type="curve" smooth="yes"/>
      <point x="-15" y="155"/>
      <point x="289" y="-28"/>
      <point x="700" y="-28" type="curve" smooth="yes"/>
      <point x="735" y="-28" type="line" smooth="yes"/>
      <point x="1147" y="-28"/>
      <point x="1507" y="155"/>
      <point x="1580" y="573" type="curve" smooth="yes"/>
      <point x="1645" y="961"/>
      <point x="1345" y="1172"/>
      <point x="931" y="1172" type="curve" smooth="yes"/>
    </contour>
    <contour>
      <point x="905" y="1020" type="line"/>
      <point x="1239" y="1019"/>
      <point x="1453" y="889"/>
      <point x="1400" y="573" type="curve" smooth="yes"/>
      <point x="1349" y="247"/>
      <point x="1097" y="135"/>
      <point x="764" y="136" type="curve" smooth="yes"/>
      <point x="729" y="136" type="line" smooth="yes"/>
      <point x="393" y="135"/>
      <point x="183" y="247"/>
      <point x="235" y="569" type="curve" smooth="yes"/>
      <point x="287" y="885"/>
      <point x="534" y="1019"/>
      <point x="871" y="1020" type="curve" smooth="yes"/>
    </contour>
    <contour>
      <point x="883" y="1176" type="line"/>
      <point x="618" y="1176"/>
      <point x="349" y="1237"/>
      <point x="399" y="1537" type="curve" smooth="yes"/>
      <point x="433" y="1752"/>
      <point x="558" y="1839"/>
      <point x="777" y="1896" type="curve"/>
      <point x="800" y="2032" type="line"/>
      <point x="535" y="2007"/>
      <point x="269" y="1859"/>
      <point x="219" y="1537" type="curve" smooth="yes"/>
      <point x="154" y="1143"/>
      <point x="490" y="1021"/>
      <point x="857" y="1021" type="curve" smooth="yes"/>
      <point x="924" y="1021" type="line" smooth="yes"/>
      <point x="1293" y="1021"/>
      <point x="1673" y="1143"/>
      <point x="1739" y="1537" type="curve" smooth="yes"/>
      <point x="1787" y="1859"/>
      <point x="1585" y="2007"/>
      <point x="1315" y="2032" type="curve"/>
      <point x="1292" y="1896" type="line"/>
      <point x="1502" y="1839"/>
      <point x="1594" y="1752"/>
      <point x="1559" y="1537" type="curve" smooth="yes"/>
      <point x="1510" y="1243"/>
      <point x="1230" y="1176"/>
      <point x="952" y="1176" type="curve" smooth="yes"/>
    </contour>
  </outline>
</glyph>
<glyph name="uni0223" format="2">
  <advance width="1703"/>
  <unicode hex="0223"/>
  <outline>
    <contour>
      <point x="901" y="1181" type="line"/>
      <point x="487" y="1181"/>
      <point x="124" y="965"/>
      <point x="59" y="575" type="curve" smooth="yes"/>
      <point x="-13" y="160"/>
      <point x="288" y="-28"/>
      <point x="703" y="-28" type="curve" smooth="yes"/>
      <point x="735" y="-28" type="line" smooth="yes"/>
      <point x="1151" y="-28"/>
      <point x="1509" y="160"/>
      <point x="1581" y="579" type="curve" smooth="yes"/>
      <point x="1645" y="965"/>
      <point x="1351" y="1181"/>
      <point x="936" y="1181" type="curve" smooth="yes"/>
    </contour>
    <contour>
      <point x="915" y="1035" type="line"/>
      <point x="1237" y="1033"/>
      <point x="1455" y="895"/>
      <point x="1404" y="579" type="curve" smooth="yes"/>
      <point x="1351" y="252"/>
      <point x="1083" y="113"/>
      <point x="760" y="115" type="curve" smooth="yes"/>
      <point x="725" y="115" type="line" smooth="yes"/>
      <point x="392" y="113"/>
      <point x="185" y="252"/>
      <point x="239" y="575" type="curve" smooth="yes"/>
      <point x="289" y="895"/>
      <point x="547" y="1033"/>
      <point x="880" y="1035" type="curve" smooth="yes"/>
    </contour>
    <contour>
      <point x="955" y="1177" type="curve" smooth="yes"/>
      <point x="888" y="1177" type="line" smooth="yes"/>
      <point x="617" y="1177"/>
      <point x="351" y="1249"/>
      <point x="401" y="1577" type="curve" smooth="yes"/>
      <point x="445" y="1812"/>
      <point x="569" y="1924"/>
      <point x="800" y="2016" type="curve"/>
      <point x="823" y="2140" type="line"/>
      <point x="549" y="2121"/>
      <point x="281" y="1919"/>
      <point x="224" y="1572" type="curve" smooth="yes"/>
      <point x="156" y="1171"/>
      <point x="491" y="1033"/>
      <point x="860" y="1035" type="curve" smooth="yes"/>
      <point x="929" y="1035" type="line" smooth="yes"/>
      <point x="1296" y="1033"/>
      <point x="1677" y="1171"/>
      <point x="1744" y="1572" type="curve" smooth="yes"/>
      <point x="1803" y="1915"/>
      <point x="1599" y="2121"/>
      <point x="1337" y="2140" type="curve"/>
      <point x="1315" y="2016" type="line"/>
      <point x="1521" y="1924"/>
      <point x="1607" y="1812"/>
      <point x="1564" y="1577" type="curve" smooth="yes"/>
      <point x="1512" y="1247"/>
      <point x="1228" y="1177"/>
    </contour>
  </outline>
</glyph>
<glyph name="uni0224" format="2">
  <advance width="1681"/>
  <unicode hex="0224"/>
  <note>
!post:RemoveOverlap
</note>
  <outline>
    <contour>
      <point x="868" y="129" type="line"/>
      <point x="848" y="0" type="line"/>
      <point x="1077" y="0" type="line" smooth="yes"/>
      <point x="1197" y="0"/>
      <point x="1231" y="-109"/>
      <point x="1215" y="-215" type="curve"/>
      <point x="1205" y="-272" type="line"/>
      <point x="1341" y="-272" type="line"/>
      <point x="1353" y="-195" type="line"/>
      <point x="1385" y="-11"/>
      <point x="1277" y="129"/>
      <point x="1097" y="129" type="curve" smooth="yes"/>
    </contour>
    <contour>
      <point x="868" y="129" type="line"/>
      <point x="227" y="129" type="line"/>
      <point x="1679" y="1919" type="line"/>
      <point x="1699" y="2048" type="line"/>
      <point x="391" y="2048" type="line"/>
      <point x="371" y="1919" type="line"/>
      <point x="1540" y="1919" type="line"/>
      <point x="92" y="129" type="line"/>
      <point x="68" y="0" type="line"/>
      <point x="848" y="0" type="line"/>
    </contour>
  </outline>
</glyph>
<glyph name="zhook" format="2">
  <advance width="1469"/>
  <unicode hex="0225"/>
  <outline>
    <contour>
      <point x="1047" y="-285" type="line"/>
      <point x="1165" y="-285" type="line"/>
      <point x="1184" y="-179" type="line"/>
      <point x="1207" y="-17"/>
      <point x="1119" y="141"/>
      <point x="928" y="143" type="curve" smooth="yes"/>
      <point x="243" y="143" type="line"/>
      <point x="1395" y="1388" type="line"/>
      <point x="1419" y="1536" type="line"/>
      <point x="275" y="1536" type="line"/>
      <point x="252" y="1396" type="line"/>
      <point x="1241" y="1396" type="line"/>
      <point x="83" y="168" type="line"/>
      <point x="59" y="0" type="line"/>
      <point x="905" y="0" type="line" smooth="yes"/>
      <point x="1052" y="0"/>
      <point x="1075" y="-97"/>
      <point x="1056" y="-228" type="curve" smooth="yes"/>
    </contour>
  </outline>
</glyph>
